<svg id="_27" data-name="27" xmlns="http://www.w3.org/2000/svg" width="85" height="88.196" viewBox="0 0 85 88.196">
  <path id="Trazado_113538" data-name="Trazado 113538" d="M73.329,11.2c-3.343,0-4.994-2.7-6.319-4.862C65.667,4.142,64.757,2.8,63.045,2.8s-2.62,1.344-3.96,3.536C57.76,8.5,56.11,11.2,52.768,11.2s-4.994-2.7-6.319-4.862C45.107,4.142,44.2,2.8,42.487,2.8s-2.618,1.344-3.96,3.536C37.2,8.5,35.552,11.2,32.21,11.2s-4.992-2.7-6.316-4.862C24.552,4.142,23.644,2.8,21.936,2.8s-2.617,1.344-3.958,3.536C16.652,8.5,15,11.2,11.661,11.2S6.671,8.5,5.345,6.334C4,4.142,3.1,2.8,1.387,2.8a1.4,1.4,0,0,1,0-2.8C4.727,0,6.378,2.7,7.7,4.863,9.043,7.054,9.953,8.4,11.661,8.4s2.617-1.344,3.958-3.534C16.945,2.7,18.6,0,21.936,0s4.991,2.7,6.315,4.862C29.592,7.054,30.5,8.4,32.21,8.4s2.618-1.344,3.96-3.536C37.5,2.7,39.146,0,42.487,0s4.992,2.7,6.319,4.862C50.147,7.054,51.056,8.4,52.768,8.4s2.618-1.344,3.96-3.536C58.052,2.7,59.7,0,63.045,0s5,2.7,6.321,4.862C70.709,7.054,71.619,8.4,73.329,8.4s2.621-1.344,3.964-3.536C78.619,2.7,80.271,0,83.614,0A1.392,1.392,0,0,1,85,1.4a1.391,1.391,0,0,1-1.386,1.4c-1.712,0-2.621,1.344-3.964,3.536C78.324,8.5,76.674,11.2,73.329,11.2Z" transform="translate(85 50.196) rotate(180)" fill="#b0dcae"/>
  <path id="Trazado_126936" data-name="Trazado 126936" d="M73.329,11.2c-3.343,0-4.994-2.7-6.319-4.862C65.667,4.142,64.757,2.8,63.045,2.8s-2.62,1.344-3.96,3.536C57.76,8.5,56.11,11.2,52.768,11.2s-4.994-2.7-6.319-4.862C45.107,4.142,44.2,2.8,42.487,2.8s-2.618,1.344-3.96,3.536C37.2,8.5,35.552,11.2,32.21,11.2s-4.992-2.7-6.316-4.862C24.552,4.142,23.644,2.8,21.936,2.8s-2.617,1.344-3.958,3.536C16.652,8.5,15,11.2,11.661,11.2S6.671,8.5,5.345,6.334C4,4.142,3.1,2.8,1.387,2.8a1.4,1.4,0,0,1,0-2.8C4.727,0,6.378,2.7,7.7,4.863,9.043,7.054,9.953,8.4,11.661,8.4s2.617-1.344,3.958-3.534C16.945,2.7,18.6,0,21.936,0s4.991,2.7,6.315,4.862C29.592,7.054,30.5,8.4,32.21,8.4s2.618-1.344,3.96-3.536C37.5,2.7,39.146,0,42.487,0s4.992,2.7,6.319,4.862C50.147,7.054,51.056,8.4,52.768,8.4s2.618-1.344,3.96-3.536C58.052,2.7,59.7,0,63.045,0s5,2.7,6.321,4.862C70.709,7.054,71.619,8.4,73.329,8.4s2.621-1.344,3.964-3.536C78.619,2.7,80.271,0,83.614,0A1.392,1.392,0,0,1,85,1.4a1.391,1.391,0,0,1-1.386,1.4c-1.712,0-2.621,1.344-3.964,3.536C78.324,8.5,76.674,11.2,73.329,11.2Z" transform="translate(85 88.196) rotate(180)" fill="#b0dcae"/>
  <path id="Trazado_126924" data-name="Trazado 126924" d="M73.329,11.2c-3.343,0-4.994-2.7-6.319-4.862C65.667,4.142,64.757,2.8,63.045,2.8s-2.62,1.344-3.96,3.536C57.76,8.5,56.11,11.2,52.768,11.2s-4.994-2.7-6.319-4.862C45.107,4.142,44.2,2.8,42.487,2.8s-2.618,1.344-3.96,3.536C37.2,8.5,35.552,11.2,32.21,11.2s-4.992-2.7-6.316-4.862C24.552,4.142,23.644,2.8,21.936,2.8s-2.617,1.344-3.958,3.536C16.652,8.5,15,11.2,11.661,11.2S6.671,8.5,5.345,6.334C4,4.142,3.1,2.8,1.387,2.8a1.4,1.4,0,0,1,0-2.8C4.727,0,6.378,2.7,7.7,4.863,9.043,7.054,9.953,8.4,11.661,8.4s2.617-1.344,3.958-3.534C16.945,2.7,18.6,0,21.936,0s4.991,2.7,6.315,4.862C29.592,7.054,30.5,8.4,32.21,8.4s2.618-1.344,3.96-3.536C37.5,2.7,39.146,0,42.487,0s4.992,2.7,6.319,4.862C50.147,7.054,51.056,8.4,52.768,8.4s2.618-1.344,3.96-3.536C58.052,2.7,59.7,0,63.045,0s5,2.7,6.321,4.862C70.709,7.054,71.619,8.4,73.329,8.4s2.621-1.344,3.964-3.536C78.619,2.7,80.271,0,83.614,0A1.392,1.392,0,0,1,85,1.4a1.391,1.391,0,0,1-1.386,1.4c-1.712,0-2.621,1.344-3.964,3.536C78.324,8.5,76.674,11.2,73.329,11.2Z" transform="translate(85 24.196) rotate(180)" fill="#b0dcae"/>
  <path id="Trazado_126938" data-name="Trazado 126938" d="M73.329,11.2c-3.343,0-4.994-2.7-6.319-4.862C65.667,4.142,64.757,2.8,63.045,2.8s-2.62,1.344-3.96,3.536C57.76,8.5,56.11,11.2,52.768,11.2s-4.994-2.7-6.319-4.862C45.107,4.142,44.2,2.8,42.487,2.8s-2.618,1.344-3.96,3.536C37.2,8.5,35.552,11.2,32.21,11.2s-4.992-2.7-6.316-4.862C24.552,4.142,23.644,2.8,21.936,2.8s-2.617,1.344-3.958,3.536C16.652,8.5,15,11.2,11.661,11.2S6.671,8.5,5.345,6.334C4,4.142,3.1,2.8,1.387,2.8a1.4,1.4,0,0,1,0-2.8C4.727,0,6.378,2.7,7.7,4.863,9.043,7.054,9.953,8.4,11.661,8.4s2.617-1.344,3.958-3.534C16.945,2.7,18.6,0,21.936,0s4.991,2.7,6.315,4.862C29.592,7.054,30.5,8.4,32.21,8.4s2.618-1.344,3.96-3.536C37.5,2.7,39.146,0,42.487,0s4.992,2.7,6.319,4.862C50.147,7.054,51.056,8.4,52.768,8.4s2.618-1.344,3.96-3.536C58.052,2.7,59.7,0,63.045,0s5,2.7,6.321,4.862C70.709,7.054,71.619,8.4,73.329,8.4s2.621-1.344,3.964-3.536C78.619,2.7,80.271,0,83.614,0A1.392,1.392,0,0,1,85,1.4a1.391,1.391,0,0,1-1.386,1.4c-1.712,0-2.621,1.344-3.964,3.536C78.324,8.5,76.674,11.2,73.329,11.2Z" transform="translate(85 62.196) rotate(180)" fill="#b0dcae"/>
  <path id="Trazado_113539" data-name="Trazado 113539" d="M73.329,11.2c-3.343,0-4.994-2.7-6.319-4.862C65.667,4.142,64.757,2.8,63.045,2.8s-2.62,1.344-3.96,3.536C57.76,8.5,56.11,11.2,52.768,11.2s-4.994-2.7-6.319-4.862C45.107,4.142,44.2,2.8,42.487,2.8s-2.618,1.344-3.96,3.536C37.2,8.5,35.552,11.2,32.21,11.2s-4.992-2.7-6.316-4.862C24.552,4.142,23.644,2.8,21.936,2.8s-2.617,1.344-3.958,3.536C16.652,8.5,15,11.2,11.661,11.2S6.671,8.5,5.345,6.334C4,4.142,3.1,2.8,1.387,2.8a1.4,1.4,0,0,1,0-2.8C4.727,0,6.378,2.7,7.7,4.863,9.043,7.054,9.953,8.4,11.661,8.4s2.617-1.344,3.958-3.534C16.945,2.7,18.6,0,21.936,0s4.991,2.7,6.315,4.862C29.592,7.054,30.5,8.4,32.21,8.4s2.618-1.344,3.96-3.536C37.5,2.7,39.146,0,42.487,0s4.992,2.7,6.319,4.862C50.147,7.054,51.056,8.4,52.768,8.4s2.618-1.344,3.96-3.536C58.052,2.7,59.7,0,63.045,0s5,2.7,6.321,4.862C70.709,7.054,71.619,8.4,73.329,8.4s2.621-1.344,3.964-3.536C78.619,2.7,80.271,0,83.614,0A1.392,1.392,0,0,1,85,1.4a1.391,1.391,0,0,1-1.386,1.4c-1.712,0-2.621,1.344-3.964,3.536C78.324,8.5,76.674,11.2,73.329,11.2Z" transform="translate(85 37.196) rotate(180)" fill="#b0dcae"/>
  <path id="Trazado_126937" data-name="Trazado 126937" d="M73.329,11.2c-3.343,0-4.994-2.7-6.319-4.862C65.667,4.142,64.757,2.8,63.045,2.8s-2.62,1.344-3.96,3.536C57.76,8.5,56.11,11.2,52.768,11.2s-4.994-2.7-6.319-4.862C45.107,4.142,44.2,2.8,42.487,2.8s-2.618,1.344-3.96,3.536C37.2,8.5,35.552,11.2,32.21,11.2s-4.992-2.7-6.316-4.862C24.552,4.142,23.644,2.8,21.936,2.8s-2.617,1.344-3.958,3.536C16.652,8.5,15,11.2,11.661,11.2S6.671,8.5,5.345,6.334C4,4.142,3.1,2.8,1.387,2.8a1.4,1.4,0,0,1,0-2.8C4.727,0,6.378,2.7,7.7,4.863,9.043,7.054,9.953,8.4,11.661,8.4s2.617-1.344,3.958-3.534C16.945,2.7,18.6,0,21.936,0s4.991,2.7,6.315,4.862C29.592,7.054,30.5,8.4,32.21,8.4s2.618-1.344,3.96-3.536C37.5,2.7,39.146,0,42.487,0s4.992,2.7,6.319,4.862C50.147,7.054,51.056,8.4,52.768,8.4s2.618-1.344,3.96-3.536C58.052,2.7,59.7,0,63.045,0s5,2.7,6.321,4.862C70.709,7.054,71.619,8.4,73.329,8.4s2.621-1.344,3.964-3.536C78.619,2.7,80.271,0,83.614,0A1.392,1.392,0,0,1,85,1.4a1.391,1.391,0,0,1-1.386,1.4c-1.712,0-2.621,1.344-3.964,3.536C78.324,8.5,76.674,11.2,73.329,11.2Z" transform="translate(85 75.196) rotate(180)" fill="#b0dcae"/>
  <path id="Trazado_126923" data-name="Trazado 126923" d="M73.329,11.2c-3.343,0-4.994-2.7-6.319-4.862C65.667,4.142,64.757,2.8,63.045,2.8s-2.62,1.344-3.96,3.536C57.76,8.5,56.11,11.2,52.768,11.2s-4.994-2.7-6.319-4.862C45.107,4.142,44.2,2.8,42.487,2.8s-2.618,1.344-3.96,3.536C37.2,8.5,35.552,11.2,32.21,11.2s-4.992-2.7-6.316-4.862C24.552,4.142,23.644,2.8,21.936,2.8s-2.617,1.344-3.958,3.536C16.652,8.5,15,11.2,11.661,11.2S6.671,8.5,5.345,6.334C4,4.142,3.1,2.8,1.387,2.8a1.4,1.4,0,0,1,0-2.8C4.727,0,6.378,2.7,7.7,4.863,9.043,7.054,9.953,8.4,11.661,8.4s2.617-1.344,3.958-3.534C16.945,2.7,18.6,0,21.936,0s4.991,2.7,6.315,4.862C29.592,7.054,30.5,8.4,32.21,8.4s2.618-1.344,3.96-3.536C37.5,2.7,39.146,0,42.487,0s4.992,2.7,6.319,4.862C50.147,7.054,51.056,8.4,52.768,8.4s2.618-1.344,3.96-3.536C58.052,2.7,59.7,0,63.045,0s5,2.7,6.321,4.862C70.709,7.054,71.619,8.4,73.329,8.4s2.621-1.344,3.964-3.536C78.619,2.7,80.271,0,83.614,0A1.392,1.392,0,0,1,85,1.4a1.391,1.391,0,0,1-1.386,1.4c-1.712,0-2.621,1.344-3.964,3.536C78.324,8.5,76.674,11.2,73.329,11.2Z" transform="translate(85 11.196) rotate(180)" fill="#b0dcae"/>
</svg>
