<svg xmlns="http://www.w3.org/2000/svg" xmlns:xlink="http://www.w3.org/1999/xlink" width="295" height="141" viewBox="0 0 295 141">
  <defs>
    <clipPath id="clip-path">
      <rect id="Rectángulo_404669" data-name="Rectángulo 404669" width="217.833" height="126.184" transform="translate(0 0)" fill="none"/>
    </clipPath>
  </defs>
  <g id="_60" data-name="60" transform="translate(-1124.99 -979)">
    <rect id="Rectángulo_404667" data-name="Rectángulo 404667" width="295" height="141" rx="10" transform="translate(1124.99 979)" fill="#f3f0ea"/>
    <g id="Grupo_1108878" data-name="Grupo 1108878" transform="translate(1147.896 988.403)">
      <g id="Grupo_1108877" data-name="Grupo 1108877" transform="translate(0 0.005)" clip-path="url(#clip-path)">
        <path id="Trazado_898741" data-name="Trazado 898741" d="M582.579,99.729c-4.1-18.124-23.138-28.032-40.2-31.367-22.922-4.481-47.436-.778-69.249,6.8q-4.028,1.4-7.984,2.99-5.894,2.368-11.591,5.184c-16.9,8.375-32.9,21.106-43.575,36.644-7.442,10.832-12.577,25.983-7.107,38.7a30.044,30.044,0,0,0,6.585,9.489c5.828,5.734,13.558,9.326,21.4,11.506,9.8,2.723,20.188,3.421,30.326,3.051,30.26-1.1,63.43-1.6,90.044-17.773,21.878-13.3,37.163-39.52,31.346-65.219" transform="translate(-365.99 -60.685)" fill="#eeedf7"/>
        <path id="Trazado_898742" data-name="Trazado 898742" d="M905.994,174.871a5.122,5.122,0,0,0-2.761-2.881,3.352,3.352,0,0,0-.051-1.453,3.212,3.212,0,0,0-1.354-1.915,3.354,3.354,0,0,0-2.37-.445,3.151,3.151,0,0,0-2.033,1.269,3.479,3.479,0,0,0-.609,2.264,3.131,3.131,0,0,0,.816,1.845,1.568,1.568,0,0,0,.717,1.228c.04.026.082.049.123.071a6.691,6.691,0,0,0-.128.8,4.049,4.049,0,0,0,1.407,3.945,4.194,4.194,0,0,0,2.487.887,3.913,3.913,0,0,0,2.456-.819,4.131,4.131,0,0,0,1.453-2.106,4.275,4.275,0,0,0-.152-2.691" transform="translate(-819.344 -153.602)" fill="#1e203d"/>
        <path id="Trazado_898743" data-name="Trazado 898743" d="M402.272,567.067c-3.59-4.486-4.536-5.205-9.9-6.022-7.011-1.067-18.9-1.5-25.952-1.614-4.942-.082-10.691-.94-14.92,2.232-2.611,1.9-4.046,4.985-5.176,7.917a90.116,90.116,0,0,0-3.477,11.356c-.932,3.878-1.662,7.8-2.292,11.74-.577,3.607-1.065,7.486.332,10.974a14.219,14.219,0,0,0,6.558,6.88c3.4,1.868,7.269,2.764,11.019,3.641a41.266,41.266,0,0,0,11.935,1.371c.17-.011.341-.025.511-.039a52.124,52.124,0,0,0,6.753.926c3.787.266,7.781.292,11.427-.9a14.173,14.173,0,0,0,4.588-2.5,17.551,17.551,0,0,0,3.3-3.658,35.177,35.177,0,0,0,4.351-9.691,87.775,87.775,0,0,0,2.644-11.966c.309-1.944.6-3.894.833-5.848a41.354,41.354,0,0,0,.348-5.243,15.209,15.209,0,0,0-2.876-9.548" transform="translate(-310.611 -510.959)" fill="#a84b45"/>
        <path id="Trazado_898744" data-name="Trazado 898744" d="M56.282,615.06c1.752-1.707-8.725-8.293-7.778-10.506-1.179-1.891-2.349-3.786-3.469-5.711q-1.12-1.925-2.19-3.878a71.1,71.1,0,0,0,6.393-10.216,70.147,70.147,0,0,0,3.972-9.355q.79-2.315,1.414-4.679a14.982,14.982,0,0,0,.713-5.317c-.292-2.815-.98-6.949-3.762-7.141a54.343,54.343,0,0,0-10.024.36c-6.751.848-12.883,4.374-17.747,8.9-7.459,6.947-13.026,15.749-17.5,24.841-4.039,8.208-9.471,19.376-3.972,28.164,5.142,8.218,19.582,8.135,27.972,6.219,11.037-2.52,20.739-6.581,25.979-11.686" transform="translate(0 -509.952)" fill="#a84b45"/>
        <path id="Trazado_898745" data-name="Trazado 898745" d="M251.763,913.8c5.181-1.651,10.4-3.19,15.627-4.676q8.419-2.392,16.9-4.575,4.3-1.1,8.629-2.132c.32-.075.184-.568-.136-.492-5.327,1.257-10.627,2.626-15.911,4.048q-8.437,2.271-16.817,4.75-4.224,1.254-8.425,2.585c-.312.1-.179.593.136.492" transform="translate(-229.731 -824.016)" fill="#1e203d"/>
        <path id="Trazado_898746" data-name="Trazado 898746" d="M615.974,920.519a11.757,11.757,0,0,0-3.5,7.893,9.712,9.712,0,0,0,3.118,7.435,8.245,8.245,0,0,0,3.9,2.022c.321.065.458-.427.136-.492a8.4,8.4,0,0,1-5.716-4.611,9.865,9.865,0,0,1-.18-7.939,11.4,11.4,0,0,1,2.6-3.947.255.255,0,0,0-.361-.361" transform="translate(-559.57 -840.943)" fill="#1e203d"/>
        <path id="Trazado_898747" data-name="Trazado 898747" d="M830.573,623.672a12.141,12.141,0,0,1-5.484,5.7,19.736,19.736,0,0,1-8.519,2.342,20.141,20.141,0,0,1-8.885-1.579,24.869,24.869,0,0,1-7.073-4.7c-4.516-4.189-7.6-9.625-10.458-15.01a176.634,176.634,0,0,1-8.023-17c-3.19-7.943-4.374-18.158-6.439-26.3,6.6.295,9.44.5,15.527.966A73.759,73.759,0,0,1,802.415,570a23.955,23.955,0,0,1,7.967,3.821c4.814,3.581,8.121,8.739,10.764,14.038,1.422,2.85,2.7,5.772,3.992,8.683s2.551,5.86,3.615,8.872a51.65,51.65,0,0,1,2.436,9.339c.453,2.951.571,6.118-.617,8.922" transform="translate(-708.694 -518.141)" fill="#a84b45"/>
        <path id="Trazado_898748" data-name="Trazado 898748" d="M989.979,805.227a72.523,72.523,0,0,1,1.523,12.395q.063,1.764.04,3.53a.255.255,0,0,0,.511,0,73.323,73.323,0,0,0-.924-12.529q-.285-1.774-.658-3.531c-.068-.321-.56-.185-.492.136" transform="translate(-904.466 -735.385)" fill="#1e203d"/>
        <path id="Trazado_898749" data-name="Trazado 898749" d="M682.693,523.9a19.558,19.558,0,0,0,.447-3.68c.011-.737-.042-1.535-2.138-1.787A93.762,93.762,0,0,0,670.1,518a3.825,3.825,0,0,0-2.287.542c-1.064.745-1.2,2.61-1.519,5.214a5.9,5.9,0,0,0-.038,2.19,1.416,1.416,0,0,0,1.3,1.115.947.947,0,0,0,.48-.119,2.527,2.527,0,0,0,1.673.582c.871.034,1.752-.038,2.623-.068l2.78-.1a14.079,14.079,0,0,0,4.867-.7,5.224,5.224,0,0,0,2.718-2.757" transform="translate(-608.626 -473.235)" fill="#a84b45"/>
        <path id="Trazado_898750" data-name="Trazado 898750" d="M1294.314,445.88a3.4,3.4,0,0,0-1.621-1.8,4.3,4.3,0,0,0-2.792-.3c-2.047.414-3.6,1.886-5.109,3.22-1.679,1.48-3.415,2.895-5.146,4.313s-3.445,2.827-5.105,4.314a55.837,55.837,0,0,0-4.318,4.267,34.658,34.658,0,0,0-3.665,4.824c-1.06,1.7-2.171,3.642-2.133,5.713a4.068,4.068,0,0,0,.86,2.48,3.473,3.473,0,0,0,2,1.293,2.545,2.545,0,0,0,.94,0,18.154,18.154,0,0,0,5.982,1.621,16.155,16.155,0,0,0,8.445-1.438,13.9,13.9,0,0,0,5.607-4.92,11.911,11.911,0,0,0,1.95-7.138,11.166,11.166,0,0,0-2.794-6.855c-.173-.189-.354-.37-.54-.546q2.539-2.244,5.061-4.507a11.123,11.123,0,0,0,2.093-2.123,2.68,2.68,0,0,0,.287-2.425" transform="translate(-1155.211 -405.358)" fill="#ffa67d"/>
        <path id="Trazado_898751" data-name="Trazado 898751" d="M1194.323,103.372h-55.045a2.552,2.552,0,0,1-2.457-3.243L1147.7,61.385h60.347L1196.78,101.51a2.552,2.552,0,0,1-2.457,1.862" transform="translate(-1038.542 -56.083)" fill="#fff"/>
        <path id="Trazado_898752" data-name="Trazado 898752" d="M1751.984,208.028a2.354,2.354,0,0,1-2.077,1.7,1.212,1.212,0,0,1-1.123-1.7,2.354,2.354,0,0,1,2.077-1.7,1.212,1.212,0,0,1,1.123,1.7" transform="translate(-1597.673 -188.508)" fill="#bdbad4"/>
        <path id="Trazado_898753" data-name="Trazado 898753" d="M1636.968,223.555h9.61a.255.255,0,0,0,0-.511h-9.61a.255.255,0,0,0,0,.511" transform="translate(-1495.352 -203.779)" fill="#bdbad4"/>
        <path id="Trazado_898754" data-name="Trazado 898754" d="M1736.22,255.322a2.353,2.353,0,0,1-2.077,1.7,1.213,1.213,0,0,1-1.123-1.7,2.354,2.354,0,0,1,2.078-1.7,1.212,1.212,0,0,1,1.122,1.7" transform="translate(-1583.27 -231.717)" fill="#bdbad4"/>
        <path id="Trazado_898755" data-name="Trazado 898755" d="M1345.7,230.777a2.354,2.354,0,0,1-2.077,1.7,1.212,1.212,0,0,1-1.122-1.7,2.353,2.353,0,0,1,2.077-1.7,1.212,1.212,0,0,1,1.123,1.7" transform="translate(-1226.483 -209.292)" fill="#bdbad4"/>
        <path id="Trazado_898756" data-name="Trazado 898756" d="M1718.631,270.849h1.721a.255.255,0,1,0,0-.51h-1.721a.255.255,0,1,0,0,.51" transform="translate(-1569.954 -246.989)" fill="#bdbad4"/>
        <path id="Trazado_898757" data-name="Trazado 898757" d="M1709.362,373.583a2.353,2.353,0,0,1-2.077,1.7,1.212,1.212,0,0,1-1.123-1.7,2.354,2.354,0,0,1,2.078-1.7,1.212,1.212,0,0,1,1.122,1.7" transform="translate(-1558.732 -339.764)" fill="#bdbad4"/>
        <path id="Trazado_898758" data-name="Trazado 898758" d="M1594.346,389.109h9.61a.255.255,0,0,0,0-.51h-9.61a.255.255,0,0,0,0,.51" transform="translate(-1456.412 -355.035)" fill="#bdbad4"/>
        <path id="Trazado_898759" data-name="Trazado 898759" d="M1691.089,435.449a2.353,2.353,0,0,1-2.077,1.7,1.212,1.212,0,0,1-1.123-1.7,2.353,2.353,0,0,1,2.077-1.7,1.212,1.212,0,0,1,1.122,1.7" transform="translate(-1542.037 -396.286)" fill="#bdbad4"/>
        <path id="Trazado_898760" data-name="Trazado 898760" d="M1371.621,246.3h9.61a.255.255,0,0,0,0-.51h-9.61a.255.255,0,0,0,0,.51" transform="translate(-1252.925 -224.564)" fill="#bdbad4"/>
        <path id="Trazado_898761" data-name="Trazado 898761" d="M1361.375,166.932a2.353,2.353,0,0,1-2.077,1.7,1.212,1.212,0,0,1-1.123-1.7,2.354,2.354,0,0,1,2.077-1.7,1.212,1.212,0,0,1,1.123,1.7" transform="translate(-1240.801 -150.962)" fill="#bdbad4"/>
        <path id="Trazado_898762" data-name="Trazado 898762" d="M1392.378,127.436h13.458a.255.255,0,0,0,0-.51h-13.458a.255.255,0,0,0,0,.51" transform="translate(-1271.889 -115.963)" fill="#bdbad4"/>
        <path id="Trazado_898763" data-name="Trazado 898763" d="M1325.079,290.9a2.354,2.354,0,0,1-2.077,1.7,1.212,1.212,0,0,1-1.123-1.7,2.354,2.354,0,0,1,2.077-1.7,1.212,1.212,0,0,1,1.123,1.7" transform="translate(-1207.64 -264.221)" fill="#bdbad4"/>
        <path id="Trazado_898764" data-name="Trazado 898764" d="M1318.076,375.512h9.61a.255.255,0,0,0,0-.51h-9.61a.255.255,0,0,0,0,.51" transform="translate(-1204.004 -342.612)" fill="#bdbad4"/>
        <path id="Trazado_898765" data-name="Trazado 898765" d="M1582.469,359.086h9.61a.255.255,0,0,0,0-.51h-9.61a.255.255,0,0,0,0,.51" transform="translate(-1445.561 -327.605)" fill="#bdbad4"/>
        <path id="Trazado_898766" data-name="Trazado 898766" d="M1585.769,450.975h9.908a.255.255,0,0,0,0-.51h-9.908a.255.255,0,0,0,0,.51" transform="translate(-1448.576 -411.557)" fill="#bdbad4"/>
        <path id="Trazado_898767" data-name="Trazado 898767" d="M1695.534,270.6l-2.159,7.625a.255.255,0,0,0,.492.136l2.158-7.625a.255.255,0,0,0-.492-.136" transform="translate(-1547.104 -247.067)" fill="#bdbad4"/>
        <path id="Trazado_898768" data-name="Trazado 898768" d="M1319.32,309.849l-1.6,5.65a.255.255,0,0,0,.492.136l1.6-5.65a.255.255,0,0,0-.492-.136" transform="translate(-1203.895 -282.922)" fill="#bdbad4"/>
        <path id="Trazado_898769" data-name="Trazado 898769" d="M1380.3,127.191l-1.094,3.865a.256.256,0,0,0,.492.136l1.094-3.865a.255.255,0,0,0-.492-.136" transform="translate(-1260.073 -116.041)" fill="#bdbad4"/>
        <path id="Trazado_898770" data-name="Trazado 898770" d="M1536.252,127.191l-1.094,3.865a.255.255,0,0,0,.492.136l1.094-3.865a.255.255,0,0,0-.492-.136" transform="translate(-1402.552 -116.041)" fill="#bdbad4"/>
        <path id="Trazado_898771" data-name="Trazado 898771" d="M1586.46,407.848l-1.049,3.7a.256.256,0,0,0,.492.136l1.049-3.7a.255.255,0,0,0-.492-.136" transform="translate(-1448.464 -372.457)" fill="#bdbad4"/>
        <path id="Trazado_898772" data-name="Trazado 898772" d="M1324.207,5.307H1263.86l.966-3.439A2.553,2.553,0,0,1,1267.283,0h55.045a2.553,2.553,0,0,1,2.458,3.243Z" transform="translate(-1154.696 -0.005)" fill="#667cff"/>
        <path id="Trazado_898773" data-name="Trazado 898773" d="M1905.4,17.053a1.786,1.786,0,0,1-1.577,1.29.92.92,0,0,1-.852-1.29,1.787,1.787,0,0,1,1.577-1.29.92.92,0,0,1,.852,1.29" transform="translate(-1738.56 -14.402)" fill="#fff"/>
        <path id="Trazado_898774" data-name="Trazado 898774" d="M1850.859,17.053a1.786,1.786,0,0,1-1.577,1.29.92.92,0,0,1-.852-1.29,1.787,1.787,0,0,1,1.577-1.29.92.92,0,0,1,.852,1.29" transform="translate(-1688.726 -14.402)" fill="#fff"/>
        <path id="Trazado_898775" data-name="Trazado 898775" d="M1383.091,162.564l-5.724,20.379a1.261,1.261,0,0,1-1.214.92h-23.689a1.262,1.262,0,0,1-1.214-1.6l5.724-20.379a1.261,1.261,0,0,1,1.214-.92h23.689a1.262,1.262,0,0,1,1.215,1.6" transform="translate(-1234.494 -147.059)" fill="#bdbad4"/>
        <path id="Trazado_898776" data-name="Trazado 898776" d="M1418.535,196.635c.18-.617,3.8-1.115,8.455-1.115s8.434.5,8.434,1.115l-4.13,14.7c-.083.61-3.8,1.115-8.455,1.115s-8.434-.5-8.434-1.115Z" transform="translate(-1292.239 -178.633)" fill="#fff"/>
        <path id="Trazado_898777" data-name="Trazado 898777" d="M1477.138,207.625a6.292,6.292,0,0,1-2.109.494c-1.235.166-2.483.242-3.728.288a48.37,48.37,0,0,1-8.255-.293,12.446,12.446,0,0,1-1.423-.263,2.132,2.132,0,0,1-.726-.279c-.249-.211-.612.148-.361.361a3.869,3.869,0,0,0,1.838.592,32.029,32.029,0,0,0,3.653.358,50.868,50.868,0,0,0,8.785-.225,7.426,7.426,0,0,0,2.583-.592c.289-.156.031-.6-.258-.441" transform="translate(-1334.309 -189.585)" fill="#1e203d"/>
        <path id="Trazado_898778" data-name="Trazado 898778" d="M1444.469,319.114c0-.07.018-.033-.048.006a1.761,1.761,0,0,1-.349.156,7.7,7.7,0,0,1-1.155.27,31.185,31.185,0,0,1-3.871.367,46.811,46.811,0,0,1-9.012-.307,9.626,9.626,0,0,1-1.436-.3,1.9,1.9,0,0,1-.387-.154c-.054-.031-.065-.057-.1-.071-.019-.007,0-.014,0,.033-.018-.327-.529-.329-.51,0,.035.628,1.135.771,1.587.861a28.145,28.145,0,0,0,4.067.434c1.814.092,3.635.1,5.451.028a33.65,33.65,0,0,0,4.311-.393,6.542,6.542,0,0,0,1.39-.35c.261-.107.556-.264.573-.581s-.492-.327-.51,0" transform="translate(-1304.294 -291.327)" fill="#1e203d"/>
        <path id="Trazado_898779" data-name="Trazado 898779" d="M1461.026,260.347c0-.07.018-.033-.048.006a1.756,1.756,0,0,1-.349.156,7.7,7.7,0,0,1-1.155.27,31.173,31.173,0,0,1-3.87.367,46.814,46.814,0,0,1-9.012-.307,9.625,9.625,0,0,1-1.436-.3,1.892,1.892,0,0,1-.387-.154c-.055-.031-.065-.057-.1-.071-.019-.007,0-.014,0,.033-.018-.327-.529-.329-.511,0,.035.628,1.136.771,1.587.862a28.135,28.135,0,0,0,4.067.434c1.815.093,3.635.1,5.451.028a33.655,33.655,0,0,0,4.312-.393,6.544,6.544,0,0,0,1.39-.35c.261-.107.556-.264.573-.581s-.493-.327-.511,0" transform="translate(-1319.421 -237.635)" fill="#1e203d"/>
        <path id="Trazado_898780" data-name="Trazado 898780" d="M1472.3,238.278a.816.816,0,0,0-.417-.373.861.861,0,0,0-1.056.436.848.848,0,0,0,1.171,1.084.811.811,0,0,0,.3-1.147" transform="translate(-1343.715 -217.31)" fill="#1e203d"/>
        <path id="Trazado_898781" data-name="Trazado 898781" d="M1456.538,295.772a.815.815,0,0,0-.417-.373.861.861,0,0,0-1.056.436.848.848,0,0,0,1.171,1.084.811.811,0,0,0,.3-1.147" transform="translate(-1329.312 -269.838)" fill="#1e203d"/>
        <path id="Trazado_898782" data-name="Trazado 898782" d="M1440.774,353.267a.815.815,0,0,0-.417-.373.861.861,0,0,0-1.056.436.848.848,0,0,0,1.171,1.084.811.811,0,0,0,.3-1.147" transform="translate(-1314.91 -322.368)" fill="#1e203d"/>
        <path id="Trazado_898783" data-name="Trazado 898783" d="M1247.918,456.926c-.746-1.07-2.574-.744-3.757-.019-2.547,1.562-5.086,3.152-7.562,4.825a44.15,44.15,0,0,0-4.167,3.11,20.983,20.983,0,0,0-3.455,3.765,38.206,38.206,0,0,0-4.339,8.974q-.214.583-.424,1.167a.111.111,0,0,0,.041.131,5.032,5.032,0,0,0-.009,2.225,4.022,4.022,0,0,0,1.907,2.613,7.617,7.617,0,0,0,3.354.789,19.373,19.373,0,0,0,7.667-1.15,8.051,8.051,0,0,0,2.8-1.667,5.689,5.689,0,0,0,1.548-3,19.953,19.953,0,0,0,.312-3.8,33.6,33.6,0,0,0-.609-6.8c.519-.424,1.054-.831,1.592-1.235a21.069,21.069,0,0,0,3.8-3.374,7.4,7.4,0,0,0,1.8-4.485,3.51,3.51,0,0,0-.508-2.068" transform="translate(-1118.395 -416.833)" fill="#ffa67d"/>
        <path id="Trazado_898784" data-name="Trazado 898784" d="M1468.873,569.313a2.252,2.252,0,0,0-1.781.2,4.584,4.584,0,0,0,.556-1.541,3.77,3.77,0,0,0-1.565-3.77,2.017,2.017,0,0,0-2.437.1,13.076,13.076,0,0,0-4.353,5.8,4.454,4.454,0,0,0-.363,1.968,1.78,1.78,0,0,0,.944,1.421,3.2,3.2,0,0,0,2.127.176,5.885,5.885,0,0,0-.5.916,3.091,3.091,0,0,0-.225,2.008,2.414,2.414,0,0,0,1.164,1.432,4.5,4.5,0,0,0,3.988-.15,8.024,8.024,0,0,0,3.97-4.236c.589-1.465.452-3.738-1.526-4.325" transform="translate(-1332.905 -515.139)" fill="#ffa67d"/>
        <path id="Trazado_898785" data-name="Trazado 898785" d="M1470.913,568.4a27.1,27.1,0,0,1-3.543,2.707c-1.144.717-2.638.793-3.445-.464-1.091-1.7.253-3.6,1.435-4.821a12.336,12.336,0,0,1,3.579-2.5c.3-.141.038-.581-.258-.441a10.646,10.646,0,0,0-5.383,5.04,3.2,3.2,0,0,0,.107,2.854,2.735,2.735,0,0,0,3.493,1.147,10.751,10.751,0,0,0,2.319-1.484q1.063-.793,2.056-1.673c.246-.218-.116-.578-.361-.361" transform="translate(-1336.65 -514.239)" fill="#1e203d"/>
        <path id="Trazado_898786" data-name="Trazado 898786" d="M1486.566,666.642a6.047,6.047,0,0,0-1.119,2.568,2.688,2.688,0,0,0,.771,2.292,3.351,3.351,0,0,0,2.294.841,5.666,5.666,0,0,0,2.485-.693c.3-.144.037-.585-.258-.441a5.167,5.167,0,0,1-2.143.622,2.846,2.846,0,0,1-2.018-.69c-1.3-1.222-.365-3.037.428-4.241.181-.275-.261-.531-.441-.258" transform="translate(-1357.125 -608.956)" fill="#1e203d"/>
        <path id="Trazado_898787" data-name="Trazado 898787" d="M1423.2,547.34a27.466,27.466,0,0,1-4.792,3.5.255.255,0,0,0,.258.441,28.11,28.11,0,0,0,4.895-3.585c.241-.224-.12-.584-.361-.361" transform="translate(-1295.784 -500.001)" fill="#1e203d"/>
        <path id="Trazado_898788" data-name="Trazado 898788" d="M1417.779,588.647a12.5,12.5,0,0,1,1.17,8.944c-.079.319.414.455.492.136a13.04,13.04,0,0,0-1.222-9.338c-.158-.288-.6-.031-.441.258" transform="translate(-1295.29 -537.454)" fill="#1e203d"/>
        <path id="Trazado_898789" data-name="Trazado 898789" d="M935.19,874.56H866.578a2.639,2.639,0,0,1-2.541-3.353l14.552-51.8h74.095l-14.953,53.225a2.639,2.639,0,0,1-2.541,1.926" transform="translate(-789.316 -748.634)" fill="#fff"/>
        <path id="Trazado_898790" data-name="Trazado 898790" d="M1403.936,990.055l-8.734,31.086a1.056,1.056,0,0,1-1.017.77h-6.461a1.056,1.056,0,0,1-1.016-1.341l8.734-31.086a1.056,1.056,0,0,1,1.016-.77h6.461a1.056,1.056,0,0,1,1.016,1.341" transform="translate(-1266.897 -903.316)" fill="#61c98e"/>
        <path id="Trazado_898791" data-name="Trazado 898791" d="M1266.212,1140l-5.095,18.135a1.055,1.055,0,0,1-1.016.77h-6.461a1.056,1.056,0,0,1-1.016-1.341l5.094-18.135a1.056,1.056,0,0,1,1.016-.77h6.461a1.056,1.056,0,0,1,1.016,1.341" transform="translate(-1144.394 -1040.309)" fill="#61c98e"/>
        <path id="Trazado_898792" data-name="Trazado 898792" d="M1134.238,1052.973l-7.206,25.651a1.056,1.056,0,0,1-1.016.77h-6.461a1.056,1.056,0,0,1-1.016-1.341l7.206-25.651a1.056,1.056,0,0,1,1.017-.77h6.461a1.056,1.056,0,0,1,1.017,1.341" transform="translate(-1021.89 -960.8)" fill="#61c98e"/>
        <path id="Trazado_898793" data-name="Trazado 898793" d="M998.042,1140l-5.095,18.135a1.056,1.056,0,0,1-1.016.77H985.47a1.056,1.056,0,0,1-1.016-1.341l5.094-18.135a1.056,1.056,0,0,1,1.017-.77h6.461a1.056,1.056,0,0,1,1.016,1.341" transform="translate(-899.386 -1040.309)" fill="#61c98e"/>
        <path id="Trazado_898794" data-name="Trazado 898794" d="M1161.866,858.91h25.487a.255.255,0,0,0,0-.51h-25.487a.255.255,0,0,0,0,.51" transform="translate(-1061.286 -784.258)" fill="#1e203d"/>
        <path id="Trazado_898795" data-name="Trazado 898795" d="M1329.1,912.586h22.756a.255.255,0,0,0,0-.511H1329.1a.255.255,0,0,0,0,.511" transform="translate(-1214.074 -833.297)" fill="#1e203d"/>
        <path id="Trazado_898796" data-name="Trazado 898796" d="M1147.825,912.586h9.457a.255.255,0,0,0,0-.511h-9.457a.255.255,0,0,0,0,.511" transform="translate(-1048.458 -833.297)" fill="#1e203d"/>
        <path id="Trazado_898797" data-name="Trazado 898797" d="M1526.825,858.91h6.891a.255.255,0,0,0,0-.51h-6.891a.255.255,0,0,0,0,.51" transform="translate(-1394.724 -784.258)" fill="#1e203d"/>
        <path id="Trazado_898798" data-name="Trazado 898798" d="M1107.664,745.748h-74.095l1.415-5.038a2.639,2.639,0,0,1,2.541-1.926h68.612a2.639,2.639,0,0,1,2.541,3.353Z" transform="translate(-944.296 -674.973)" fill="#667cff"/>
        <path id="Trazado_898799" data-name="Trazado 898799" d="M1816.364,761.178a2.347,2.347,0,0,1-2.071,1.694,1.209,1.209,0,0,1-1.12-1.694,2.347,2.347,0,0,1,2.071-1.694,1.209,1.209,0,0,1,1.12,1.694" transform="translate(-1656.5 -693.885)" fill="#fff"/>
        <path id="Trazado_898800" data-name="Trazado 898800" d="M1744.717,761.178a2.347,2.347,0,0,1-2.071,1.694,1.209,1.209,0,0,1-1.12-1.694,2.347,2.347,0,0,1,2.071-1.694,1.209,1.209,0,0,1,1.12,1.694" transform="translate(-1591.041 -693.885)" fill="#fff"/>
        <path id="Trazado_898801" data-name="Trazado 898801" d="M844.264,920.115c-.331-1.369-1.949-2.005-3.175-2.485-3.036-1.188-5.342-2.016-8.435-3.064-.381-.129-4.627,3.337-4.2,4.446a5.839,5.839,0,0,0,2.615,2.838,18.346,18.346,0,0,0,3.916,1.635,14.165,14.165,0,0,0,4.141.692,7.131,7.131,0,0,0,3.913-.964,2.714,2.714,0,0,0,1.225-3.1" transform="translate(-756.87 -835.569)" fill="#ffa67d"/>
        <rect id="Rectángulo_404668" data-name="Rectángulo 404668" width="4.697" height="14.156" transform="translate(117.647 106.873) rotate(-48.036)" fill="#1e203d"/>
        <path id="Trazado_898802" data-name="Trazado 898802" d="M1485.088,1305.024c-.441-.4-1.5.064-2.369,1.028s-1.213,2.068-.772,2.464,1.5-.064,2.369-1.028,1.213-2.068.772-2.464" transform="translate(-1353.772 -1192.175)" fill="#1e203d"/>
        <path id="Trazado_898803" data-name="Trazado 898803" d="M1145.842,960.853a13.939,13.939,0,1,0,1.044,19.685,13.937,13.937,0,0,0-1.044-19.685m-.988,17.858a11.207,11.207,0,1,1-.84-15.826,11.206,11.206,0,0,1,.84,15.826" transform="translate(-1025.621 -874.595)" fill="#1e203d"/>
        <path id="Trazado_898804" data-name="Trazado 898804" d="M1744.158,452.445c-3.846,13.689-17.414,24.786-30.3,24.786s-20.224-11.1-16.378-24.786,17.414-24.786,30.3-24.786,20.224,11.1,16.378,24.786" transform="translate(-1549.924 -390.721)" fill="#61c98e"/>
        <path id="Trazado_898805" data-name="Trazado 898805" d="M1978.534,452.452l1.384-24.116c6.944-1.635,13.4-.244,17.714,3.818,4.259,4.007,6.052,10.249,4.935,17.175Z" transform="translate(-1807.642 -390.728)" fill="#fff"/>
        <path id="Trazado_898806" data-name="Trazado 898806" d="M2027.141,417.2l13.081-22.007a2.308,2.308,0,0,1,3.1-.828,16.637,16.637,0,0,1,3.392,2.462,18.074,18.074,0,0,1,5.389,10.991,2.283,2.283,0,0,1-1.549,2.45l-22.817,7.676a.51.51,0,0,1-.6-.745" transform="translate(-1851.983 -360.035)" fill="#f5c069"/>
        <path id="Trazado_898807" data-name="Trazado 898807" d="M2000.438,407.479,2003,385.837a1.54,1.54,0,0,1,1.348-1.342,23.222,23.222,0,0,1,2.834-.18q1.065,0,2.1.1a1.532,1.532,0,0,1,1.24,2.162l-9.6,21.038a.255.255,0,0,1-.486-.136" transform="translate(-1827.652 -351.121)" fill="#f26a49"/>
        <path id="Trazado_898808" data-name="Trazado 898808" d="M1730.67,659.006l24.288-5.258c-.517,6.754-3.843,13.823-9.169,19.483-10.477,11.135-25.923,13.876-34.216,6.073a16.281,16.281,0,0,1-4.335-7Z" transform="translate(-1559.778 -597.282)" fill="#667cff"/>
        <path id="Trazado_898809" data-name="Trazado 898809" d="M1704.686,725.439l2.339-1.327,5.586-3.171,6.756-3.835,5.866-3.33,1.932-1.1c.3-.171.623-.326.911-.517.013-.009.028-.016.042-.023a.255.255,0,0,0-.258-.441l-2.339,1.327-5.586,3.171-6.756,3.835-5.867,3.33-1.932,1.1c-.3.171-.623.326-.912.517-.013.009-.028.016-.041.023a.255.255,0,0,0,.257.441" transform="translate(-1557.098 -650.194)" fill="#fff"/>
        <path id="Trazado_898810" data-name="Trazado 898810" d="M534.437,1092.267H501.725a1.946,1.946,0,0,1-1.873-2.472l7.8-27.764h36.753l-8.1,28.816a1.946,1.946,0,0,1-1.873,1.42" transform="translate(-456.611 -970.3)" fill="#fff"/>
        <path id="Trazado_898811" data-name="Trazado 898811" d="M541.586,1062.247l-1.158,4.123-2.6,9.239-2.707,9.636-1.518,5.4a1.794,1.794,0,0,1-1.8,1.4h-31.73a3.316,3.316,0,0,1-1.7-.226,1.747,1.747,0,0,1-.737-2.075l.444-1.581,1.321-4.7.265-.943a.255.255,0,0,0-.492-.136c-.682,2.429-1.374,4.855-2.047,7.286a2.237,2.237,0,0,0,2.179,2.888c.551,0,1.1,0,1.653,0h30.209a3.331,3.331,0,0,0,1.963-.356,3.005,3.005,0,0,0,1.116-1.948l.757-2.693,2.544-9.055,2.786-9.919,1.662-5.917.08-.284a.256.256,0,0,0-.492-.136" transform="translate(-454.109 -970.334)" fill="#1e203d"/>
        <path id="Trazado_898812" data-name="Trazado 898812" d="M627.688,1021.648H590.935l.674-2.4a1.945,1.945,0,0,1,1.873-1.419h32.712a1.945,1.945,0,0,1,1.873,2.471Z" transform="translate(-539.894 -929.917)" fill="#1e203d"/>
        <path id="Trazado_898813" data-name="Trazado 898813" d="M975.31,1030.106a1.287,1.287,0,0,1-1.136.929.663.663,0,0,1-.614-.929,1.287,1.287,0,0,1,1.136-.929.663.663,0,0,1,.614.929" transform="translate(-889.436 -940.284)" fill="#fff"/>
        <path id="Trazado_898814" data-name="Trazado 898814" d="M662.076,1131.027a.705.705,0,0,0-.679.514l-.566,2.014a3.286,3.286,0,0,0-.035,1.141,4.137,4.137,0,0,0,1.313,2.45l4.448,4.507L665,1147.21a.7.7,0,0,0,.3.783l2.218,1.434a.7.7,0,0,0,1.061-.4l2.071-7.372c.717-.468,6.22-4.667,7.03-5.277a5.007,5.007,0,0,0,1.9-2.821l.459-1.633a.7.7,0,0,0-.679-.9Z" transform="translate(-603.692 -1033.337)" fill="#bdbad4"/>
        <path id="Trazado_898815" data-name="Trazado 898815" d="M662.942,1156.354H680.97a.255.255,0,0,0,0-.51H662.942a.255.255,0,0,0,0,.51" transform="translate(-605.456 -1056.01)" fill="#1e203d"/>
        <path id="Trazado_898816" data-name="Trazado 898816" d="M1816.855,960.117h-22.074a2.812,2.812,0,0,1-2.707-3.573L1802.34,920h27.916l-10.693,38.064a2.812,2.812,0,0,1-2.707,2.052" transform="translate(-1637.19 -840.538)" fill="#fff"/>
        <path id="Trazado_898817" data-name="Trazado 898817" d="M2010.368,1023.99h8.287a.255.255,0,0,0,0-.51h-8.287a.255.255,0,0,0,0,.51" transform="translate(-1836.501 -935.079)" fill="#1e203d"/>
        <path id="Trazado_898818" data-name="Trazado 898818" d="M1974.586,1143.771h8.436a.255.255,0,0,0,0-.51h-8.436a.255.255,0,0,0,0,.51" transform="translate(-1803.809 -1044.514)" fill="#1e203d"/>
        <path id="Trazado_898819" data-name="Trazado 898819" d="M1941.554,1007.47l-4.841,17.1-1.383,4.886a.256.256,0,0,0,.492.136q2.42-8.55,4.841-17.1l1.383-4.886a.255.255,0,0,0-.492-.136" transform="translate(-1768.16 -920.287)" fill="#1e203d"/>
        <path id="Trazado_898820" data-name="Trazado 898820" d="M2074.842,1023.256l-2.941,10.388a.256.256,0,0,0,.492.136q1.47-5.194,2.941-10.388a.255.255,0,0,0-.492-.135" transform="translate(-1892.935 -934.71)" fill="#1e203d"/>
        <path id="Trazado_898821" data-name="Trazado 898821" d="M1961.545,992.421h-5.274a1.021,1.021,0,0,1-.983-1.3l1.422-5.061a1.021,1.021,0,0,1,.983-.745h5.274a1.021,1.021,0,0,1,.983,1.3l-1.422,5.061a1.02,1.02,0,0,1-.983.745" transform="translate(-1786.368 -900.213)" fill="#f5c069"/>
        <path id="Trazado_898822" data-name="Trazado 898822" d="M1927.38,1112.2h-5.274a1.021,1.021,0,0,1-.983-1.3l1.422-5.061a1.021,1.021,0,0,1,.983-.745h5.273a1.021,1.021,0,0,1,.983,1.3l-1.422,5.061a1.021,1.021,0,0,1-.983.745" transform="translate(-1755.154 -1009.647)" fill="#f5c069"/>
        <path id="Trazado_898823" data-name="Trazado 898823" d="M1893.214,1231.98h-5.274a1.021,1.021,0,0,1-.983-1.3l1.422-5.061a1.021,1.021,0,0,1,.983-.745h5.274a1.021,1.021,0,0,1,.983,1.3l-1.422,5.061a1.021,1.021,0,0,1-.983.745" transform="translate(-1723.939 -1119.081)" fill="#f5c069"/>
        <path id="Trazado_898824" data-name="Trazado 898824" d="M2070.1,1065.908a3.06,3.06,0,0,1-2.7,2.209,1.577,1.577,0,0,1-1.46-2.209,3.061,3.061,0,0,1,2.7-2.209,1.577,1.577,0,0,1,1.46,2.209" transform="translate(-1887.41 -971.824)" fill="#f26a49"/>
        <path id="Trazado_898825" data-name="Trazado 898825" d="M1939.973,866.421h-27.916l.847-3.014a2.812,2.812,0,0,1,2.708-2.052h22.074a2.812,2.812,0,0,1,2.707,3.573Z" transform="translate(-1746.907 -786.958)" fill="#1e203d"/>
        <path id="Trazado_898826" data-name="Trazado 898826" d="M470.219,780.971,467,793.694l-.918,3.626a.255.255,0,0,0,.492.136l3.22-12.723.918-3.626a.255.255,0,0,0-.492-.136" transform="translate(-425.817 -713.351)" fill="#1e203d"/>
        <path id="Trazado_898827" data-name="Trazado 898827" d="M703.887,902.436c-2.212.188-3.714-3.317-7.081-4.544a22.954,22.954,0,0,0-8.172-1.57c-4.906-.142-6.539,1.208-7.249,2.5a12.9,12.9,0,0,0-1.569,5,9.282,9.282,0,0,0,.076,2.98h4.262s12.353,1.229,18.843,1.355a14.613,14.613,0,0,0,.89-5.727" transform="translate(-621.022 -818.895)" fill="#ffa67d"/>
        <path id="Trazado_898828" data-name="Trazado 898828" d="M750.4,995.14c-.064-1.139-.2-2.291-.374-3.449q-.042-.585-.125-1.18c-6.262.908-12.588,1.69-19.142,2.031.183,4.733.764,7.612,1.59,8.595a2.616,2.616,0,0,0,2.457.648c.822-.2,1.894-.676,2.723-3.11.092.362.2.724.319,1.086a5.21,5.21,0,0,0,1.071,1.908,2.847,2.847,0,0,0,2.021.953,2.291,2.291,0,0,0,1.731-.9,6.055,6.055,0,0,0,.962-1.85c.14-.375.259-.759.365-1.149a9.857,9.857,0,0,0,1.588,1.879,3.909,3.909,0,0,0,2.452,1.124,2,2,0,0,0,1.87-1.261,8.157,8.157,0,0,0,.486-2.631,21.141,21.141,0,0,0,.006-2.7" transform="translate(-667.639 -904.957)" fill="#ffa67d"/>
        <path id="Trazado_898829" data-name="Trazado 898829" d="M913.606,933.034a6.676,6.676,0,0,1,2.7,2.989,6.576,6.576,0,0,1,.512,1.744,11.456,11.456,0,0,1,.025,1.92c-.012.329.5.328.51,0a11.623,11.623,0,0,0-.038-2.022,7.094,7.094,0,0,0-3.453-5.072.255.255,0,0,0-.258.441" transform="translate(-834.583 -852.007)" fill="#1e203d"/>
        <path id="Trazado_898830" data-name="Trazado 898830" d="M666.871,564.6a4.535,4.535,0,0,0,1.952,2.31,11.071,11.071,0,0,0,3.513,1.447,13,13,0,0,0,7.79-.454,9.089,9.089,0,0,0,3.551-2.614c.209-.251-.151-.614-.361-.361a9.326,9.326,0,0,1-6.55,3.235,12.71,12.71,0,0,1-7.1-1.342,4.5,4.5,0,0,1-2.307-2.357c-.1-.312-.592-.179-.492.136" transform="translate(-609.26 -515.544)" fill="#1e203d"/>
        <path id="Trazado_898831" data-name="Trazado 898831" d="M664.008,179.747q.048-.343.111-.683c1.509-8.106,12.575-11.215,19.438-7.189,5.779,3.39,6.964,9.2,7.247,15.155.026.55.036,1.141.029,1.761q.074.217.143.435c1.541,4.889,1.835,14.656-5.45,13.61-4.989-.716-7.658-2.93-10.893-4.571-7.093-3.6-11.768-10.3-10.624-18.517" transform="translate(-606.498 -155.426)" fill="#ffa67d"/>
        <path id="Trazado_898832" data-name="Trazado 898832" d="M736.6,394.985s-1.773,4.793-3.406,9.089c0,0-1.476,3.18-6.544,1.722-3.867-1.113-3.257-3.034-3.257-3.034l3.747-11.125Z" transform="translate(-660.879 -357.811)" fill="#ffa67d"/>
        <path id="Trazado_898833" data-name="Trazado 898833" d="M798.706,499.767a27.688,27.688,0,0,0,3.235,1.844c.294.143.554-.3.258-.441a27.693,27.693,0,0,1-3.235-1.844c-.275-.182-.531.26-.258.441" transform="translate(-729.613 -456.159)" fill="#1e203d"/>
        <path id="Trazado_898834" data-name="Trazado 898834" d="M711.864,426.056a10.073,10.073,0,0,0,2.392,2.542l-.4,1.182a3.842,3.842,0,0,0,4.07-3.272c1.057-4.584-6.064-.452-6.064-.452" transform="translate(-650.378 -387.695)" fill="#1e203d"/>
        <path id="Trazado_898835" data-name="Trazado 898835" d="M646.516,126.328a4.245,4.245,0,0,0-2.66.934,4.886,4.886,0,0,0-8.506-1.007,5.818,5.818,0,0,0-3.468-.977,4.662,4.662,0,0,0-3.509,1.735,3.188,3.188,0,0,0-.31.518,3.706,3.706,0,0,0-2.492-.013,4.3,4.3,0,0,0-2.728,4.312,5.4,5.4,0,0,0-3.8,4.911,3.347,3.347,0,0,0,.517,1.866,3.022,3.022,0,0,0,.857.848,5.212,5.212,0,0,0-.971,2.174,4.662,4.662,0,0,0,1.116,4.023,4.747,4.747,0,0,0,2.147,1.359h0a5.52,5.52,0,0,0,.058,4.046,4.819,4.819,0,0,0,2.816,2.757,4.267,4.267,0,0,0,3.789-.372,4.071,4.071,0,0,0,1.691-2.424,7.021,7.021,0,0,0,1.79-4.428,3.028,3.028,0,0,0,.5-.091,4.751,4.751,0,0,0,2.98-2.971,3.667,3.667,0,0,0,.152-2.2c0-.015-.009-.029-.013-.044.048.01.1.02.143.028a3.7,3.7,0,0,0,3.449-1.227,3.858,3.858,0,0,0,.839-2.413,3.5,3.5,0,0,0,2.371.279,3.655,3.655,0,0,0,2.607-2.651c.029-.12.082-.365.1-.487a3,3,0,0,0,.545.044,4.266,4.266,0,0,0,0-8.532" transform="translate(-565.574 -113.48)" fill="#1e203d"/>
        <path id="Trazado_898836" data-name="Trazado 898836" d="M889.135,443.934a.271.271,0,0,1,.294-.323c.961.1,3.288.352,4.645.491a.271.271,0,0,1,.222.373,4.283,4.283,0,0,1-.468.849,2.618,2.618,0,0,1-4.693-1.391" transform="translate(-812.333 -405.294)" fill="#fff"/>
        <path id="Trazado_898837" data-name="Trazado 898837" d="M744.668,364.355a4.082,4.082,0,0,0-.01-6.929,3.91,3.91,0,0,0-5.817,2.6c-.518,3.222,2.857,6.32,5.827,4.325" transform="translate(-674.977 -326.022)" fill="#ffa67d"/>
        <path id="Trazado_898838" data-name="Trazado 898838" d="M764.827,381.192a3.291,3.291,0,0,0-.332,3.814.255.255,0,0,0,.441-.258,2.767,2.767,0,0,1,.252-3.2c.211-.249-.148-.612-.361-.361" transform="translate(-698.044 -348.191)" fill="#1e203d"/>
        <path id="Trazado_898839" data-name="Trazado 898839" d="M951.1,373.2c.349.051.8-.1,1.045-.768.36-.971.24-2.74-.916-2.7-1.241.043-1.418,3.281-.129,3.468" transform="translate(-868.143 -337.794)" fill="#1e203d"/>
        <path id="Trazado_898840" data-name="Trazado 898840" d="M873.231,374.972c.349.051.8-.1,1.045-.768.36-.971.24-2.74-.916-2.7-1.241.043-1.418,3.281-.129,3.468" transform="translate(-796.996 -339.416)" fill="#1e203d"/>
        <path id="Trazado_898841" data-name="Trazado 898841" d="M847.469,324.161a1.709,1.709,0,0,0,1.427.189c.6-.11,1.189-.23,1.784-.346a3.266,3.266,0,0,0,1.387-.452,1.2,1.2,0,0,0,.409-1.359,2.152,2.152,0,0,0-2.077-1.273,3.621,3.621,0,0,0-3.231,1.86,1.208,1.208,0,0,0,.3,1.38" transform="translate(-773.909 -293.202)" fill="#1e203d"/>
        <path id="Trazado_898842" data-name="Trazado 898842" d="M940.056,325.255c.549.572,1.247.483,1.933.613.5.094,1.021.252,1.409-.219.587-.711-.022-1.8-.61-2.272a2.392,2.392,0,0,0-2.493-.472,1.363,1.363,0,0,0-.71,1.134,1.669,1.669,0,0,0,.47,1.215" transform="translate(-858.429 -294.845)" fill="#1e203d"/>
        <path id="Trazado_898843" data-name="Trazado 898843" d="M931.031,393.117a1.319,1.319,0,0,1,.174,2.22.263.263,0,0,0-.091.349.257.257,0,0,0,.349.092,1.828,1.828,0,0,0-.174-3.1c-.287-.16-.545.281-.258.441" transform="translate(-850.5 -358.729)" fill="#1e203d"/>
        <path id="Trazado_898844" data-name="Trazado 898844" d="M664.363,212.4a4.007,4.007,0,0,1,6.465.684c.119.2.509.135.476-.129a3.789,3.789,0,0,1,2.353-3.919,3.9,3.9,0,0,1,2.636-.01,3.441,3.441,0,0,1,1.8,1.677c.149.293.589.035.441-.258a4.041,4.041,0,0,0-5.011-1.9,3.986,3.986,0,0,0-2,1.574,4.407,4.407,0,0,0-.728,2.838l.476-.129A4.522,4.522,0,0,0,664,212.04c-.223.241.137.6.361.361" transform="translate(-606.586 -190.297)" fill="#7d83ab"/>
        <path id="Trazado_898845" data-name="Trazado 898845" d="M899.086,178.666a3.572,3.572,0,0,1,2.5,1.859,3.535,3.535,0,0,1-.167,3.408c-.172.281.27.538.441.258a3.978,3.978,0,0,0-2.635-6.017c-.321-.063-.459.429-.136.492" transform="translate(-821.261 -162.78)" fill="#7d83ab"/>
        <path id="Trazado_898846" data-name="Trazado 898846" d="M794.575,979.3c1.926,2.507,1.524,5.695,1,8.6-.058.321.434.459.492.136a18.5,18.5,0,0,0,.44-4.921,7.774,7.774,0,0,0-1.489-4.072c-.2-.257-.641,0-.441.258" transform="translate(-725.899 -894.382)" fill="#1e203d"/>
        <path id="Trazado_898847" data-name="Trazado 898847" d="M872.442,979.3c1.926,2.507,1.524,5.695,1,8.6-.058.321.434.459.492.136a18.49,18.49,0,0,0,.44-4.921,7.773,7.773,0,0,0-1.489-4.072c-.2-.257-.641,0-.441.258" transform="translate(-797.04 -894.382)" fill="#1e203d"/>
        <path id="Trazado_898848" data-name="Trazado 898848" d="M936.614,1357.583l-1.116,3.973-.614,2.186a2.642,2.642,0,0,1-1.473,1.9,3.529,3.529,0,0,1-1.43.185H865.819c-1.186,0-2.691.222-3.608-.681a2.4,2.4,0,0,1-.718-1.7,4.738,4.738,0,0,1,.261-1.254.255.255,0,0,0-.492-.136,5.6,5.6,0,0,0-.277,1.289,2.887,2.887,0,0,0,.514,1.744,2.937,2.937,0,0,0,2.391,1.25c.27,0,.54,0,.81,0h64.569c1.056,0,2.113.007,3.169,0a2.965,2.965,0,0,0,1.693-.511,3.287,3.287,0,0,0,1.241-1.935l1.382-4.919.353-1.257a.255.255,0,0,0-.492-.136" transform="translate(-786.617 -1240.16)" fill="#1e203d"/>
        <path id="Trazado_898849" data-name="Trazado 898849" d="M1820.453,1201.031l-2.2,7.817-1.315,4.68c-.095.336-.187.674-.284,1.01a2.594,2.594,0,0,1-2.208,1.9,19.607,19.607,0,0,1-1.974.012h-19.415c-.288,0-.577,0-.865,0a2.559,2.559,0,0,1-2.636-2.778c.022-.328-.489-.327-.51,0a3.1,3.1,0,0,0,1.886,3.055,3.651,3.651,0,0,0,1.43.233h14.206c2.511,0,5.022.009,7.533,0a3.145,3.145,0,0,0,2.276-.929,3.56,3.56,0,0,0,.831-1.583l1.088-3.874,2.592-9.225.052-.186a.255.255,0,0,0-.492-.136" transform="translate(-1634.517 -1097.13)" fill="#1e203d"/>
      </g>
    </g>
  </g>
</svg>
