<svg xmlns="http://www.w3.org/2000/svg" xmlns:xlink="http://www.w3.org/1999/xlink" width="190" height="189" viewBox="0 0 190 189">
  <defs>
    <clipPath id="clip-path">
      <rect id="Rectángulo_404676" data-name="Rectángulo 404676" width="178" height="125" transform="translate(0 -0.198)" fill="none"/>
    </clipPath>
  </defs>
  <g id="_63" data-name="63" transform="translate(-179.99 -3256)">
    <rect id="Rectángulo_404559" data-name="Rectángulo 404559" width="190" height="189" rx="10" transform="translate(179.99 3256)" fill="#e2dacc"/>
    <g id="Grupo_1108886" data-name="Grupo 1108886" transform="translate(187 3289.806)">
      <g id="Grupo_1108885" data-name="Grupo 1108885" transform="translate(-0.01 0.392)" clip-path="url(#clip-path)">
        <path id="Trazado_898850" data-name="Trazado 898850" d="M163.3,25.256C154.706,9.991,133.5,2.113,116.344.493,91.3-1.873,65.229,4.539,42.2,14.054,18.8,23.721-6.605,45.388,1.562,74.037c7.476,26.224,32.64,35,58.045,34.656,33.278-.446,67.519-10.14,90.794-34.187,7.5-7.75,15.184-19.227,16.522-29.93A30.691,30.691,0,0,0,163.3,25.256" transform="translate(0.008 -0.349)" fill="#f9f7f4"/>
        <path id="Trazado_898851" data-name="Trazado 898851" d="M1110.383,243.1,1082.8,246a2.144,2.144,0,0,1-2.368-2.132V190.694a2.144,2.144,0,0,1,1.919-2.132l27.583-2.9a2.144,2.144,0,0,1,2.368,2.132v53.177a2.144,2.144,0,0,1-1.919,2.132" transform="translate(-990.506 -170.546)" fill="#fff"/>
        <path id="Trazado_898852" data-name="Trazado 898852" d="M1156.188,324.34a6.9,6.9,0,0,1-5.977,6.782,5.359,5.359,0,0,1-5.977-5.524,6.9,6.9,0,0,1,5.977-6.782,5.359,5.359,0,0,1,5.977,5.523" transform="translate(-1048.998 -292.603)" fill="#22a37d"/>
        <path id="Trazado_898853" data-name="Trazado 898853" d="M1191.293,364.662a2.856,2.856,0,0,1-2.472,2.8,2.217,2.217,0,0,1-2.472-2.285,2.856,2.856,0,0,1,2.472-2.8,2.216,2.216,0,0,1,2.472,2.284" transform="translate(-1087.608 -332.556)" fill="#fff"/>
        <path id="Trazado_898854" data-name="Trazado 898854" d="M1309.542,315.4l6.039-.636c.259-.027.262-.437,0-.409l-6.039.636c-.259.027-.262.437,0,.409" transform="translate(-1200.369 -288.54)" fill="#1e203d"/>
        <path id="Trazado_898855" data-name="Trazado 898855" d="M1157.389,506.314l14.586-1.535,4.116-.433c.259-.027.262-.437,0-.409l-14.586,1.535-4.116.433c-.259.027-.262.437,0,.409" transform="translate(-1060.879 -462.345)" fill="#1e203d"/>
        <path id="Trazado_898856" data-name="Trazado 898856" d="M1262.986,549.386l-10.815,1.138c-.259.027-.262.437,0,.409l10.815-1.138c.259-.027.262-.437,0-.409" transform="translate(-1147.773 -504.012)" fill="#1e203d"/>
        <path id="Trazado_898857" data-name="Trazado 898857" d="M1161.81,567.44l-4.428.466c-.259.027-.262.437,0,.409l4.428-.466c.259-.027.262-.437,0-.409" transform="translate(-1060.873 -520.564)" fill="#1e203d"/>
        <path id="Trazado_898858" data-name="Trazado 898858" d="M1157.389,597.216l14.586-1.535,4.116-.433c.259-.027.262-.437,0-.409l-14.586,1.535-4.116.433c-.259.027-.262.437,0,.409" transform="translate(-1060.879 -545.682)" fill="#1e203d"/>
        <path id="Trazado_898859" data-name="Trazado 898859" d="M1343.256,640.287l-3.528.371c-.259.027-.262.437,0,.409l3.528-.371c.259-.027.262-.437,0-.409" transform="translate(-1228.043 -587.348)" fill="#1e203d"/>
        <path id="Trazado_898860" data-name="Trazado 898860" d="M1169.1,649.126l-11.714,1.233c-.259.027-.262.437,0,.409l11.714-1.233c.259-.027.262-.437,0-.409" transform="translate(-1060.873 -595.452)" fill="#1e203d"/>
        <path id="Trazado_898861" data-name="Trazado 898861" d="M1157.389,688.117l14.586-1.535,4.116-.433c.259-.027.262-.437,0-.409l-14.586,1.535-4.116.433c-.259.027-.262.437,0,.409" transform="translate(-1060.879 -629.018)" fill="#1e203d"/>
        <path id="Trazado_898862" data-name="Trazado 898862" d="M1282.073,731.187l-9.082.956c-.259.027-.262.437,0,.409l9.082-.956c.259-.027.262-.437,0-.409" transform="translate(-1166.86 -670.683)" fill="#1e203d"/>
        <path id="Trazado_898863" data-name="Trazado 898863" d="M1163.541,747.053l-6.158.648c-.259.027-.262.437,0,.409l6.158-.648c.259-.027.262-.437,0-.409" transform="translate(-1060.874 -685.229)" fill="#1e203d"/>
        <path id="Trazado_898864" data-name="Trazado 898864" d="M1157.389,784.633l10.343-1.089,3.516-.37c.259-.027.262-.437,0-.409l-10.344,1.089-3.516.37c-.259.027-.262.437,0,.409" transform="translate(-1060.879 -717.969)" fill="#1e203d"/>
        <path id="Trazado_898865" data-name="Trazado 898865" d="M1309.542,354.358l3.54-.373c.259-.027.262-.437,0-.409l-3.54.373c-.259.027-.262.437,0,.409" transform="translate(-1200.369 -324.498)" fill="#1e203d"/>
        <path id="Trazado_898866" data-name="Trazado 898866" d="M1112.3,190.71l-31.87,3.354v-3.371a2.144,2.144,0,0,1,1.919-2.132l27.583-2.9a2.144,2.144,0,0,1,2.368,2.132Z" transform="translate(-990.506 -170.546)" fill="#667cff"/>
        <path id="Trazado_898867" data-name="Trazado 898867" d="M1370.314,213.8a1.322,1.322,0,0,1-1.144,1.3,1.026,1.026,0,0,1-1.144-1.057,1.322,1.322,0,0,1,1.144-1.3,1.026,1.026,0,0,1,1.144,1.057" transform="translate(-1254.165 -195.384)" fill="#fff"/>
        <path id="Trazado_898868" data-name="Trazado 898868" d="M1411.308,209.489a1.322,1.322,0,0,1-1.144,1.3,1.026,1.026,0,0,1-1.144-1.057,1.322,1.322,0,0,1,1.144-1.3,1.026,1.026,0,0,1,1.144,1.057" transform="translate(-1291.747 -191.429)" fill="#fff"/>
        <path id="Trazado_898869" data-name="Trazado 898869" d="M498.234,54.327l-38.759,4.079a2.144,2.144,0,0,1-2.368-2.132V25.482a2.144,2.144,0,0,1,1.919-2.132l38.759-4.079a2.144,2.144,0,0,1,2.368,2.132V52.195a2.144,2.144,0,0,1-1.919,2.132" transform="translate(-419.056 -18.005)" fill="#fff"/>
        <path id="Trazado_898870" data-name="Trazado 898870" d="M500.153,23.833l-43.046,4.531V25.483a2.144,2.144,0,0,1,1.919-2.132l38.759-4.079a2.144,2.144,0,0,1,2.368,2.132Z" transform="translate(-419.056 -18.006)" fill="#667cff"/>
        <path id="Trazado_898871" data-name="Trazado 898871" d="M876.252,45.87a1.264,1.264,0,0,1-1.094,1.242.981.981,0,0,1-1.094-1.011,1.264,1.264,0,0,1,1.094-1.242.981.981,0,0,1,1.094,1.011" transform="translate(-801.311 -41.47)" fill="#fff"/>
        <path id="Trazado_898872" data-name="Trazado 898872" d="M918.247,40.671a1.264,1.264,0,0,1-1.094,1.242.981.981,0,0,1-1.094-1.011,1.264,1.264,0,0,1,1.094-1.242.981.981,0,0,1,1.094,1.011" transform="translate(-839.811 -36.703)" fill="#fff"/>
        <path id="Trazado_898873" data-name="Trazado 898873" d="M535.22,178.669l-5.667.6a.857.857,0,0,1-.947-.853v-5.874a.857.857,0,0,1,.768-.853l5.667-.6a.857.857,0,0,1,.947.853v5.874a.858.858,0,0,1-.768.853" transform="translate(-484.605 -157.196)" fill="#bdbad4"/>
        <path id="Trazado_898874" data-name="Trazado 898874" d="M657.293,180.989l15.8-1.663,4.456-.469c.259-.027.262-.437,0-.409l-15.8,1.663-4.456.469c-.259.027-.262.437,0,.409" transform="translate(-602.403 -163.944)" fill="#1e203d"/>
        <path id="Trazado_898875" data-name="Trazado 898875" d="M657.293,218.767l15.8-1.663,4.456-.469c.259-.027.262-.437,0-.409l-15.8,1.663-4.456.469c-.259.027-.262.437,0,.409" transform="translate(-602.403 -198.578)" fill="#1e203d"/>
        <path id="Trazado_898876" data-name="Trazado 898876" d="M657.293,143.21l15.8-1.663,4.456-.469c.259-.027.262-.437,0-.409l-15.8,1.663-4.456.469c-.259.027-.262.437,0,.409" transform="translate(-602.403 -129.31)" fill="#1e203d"/>
        <path id="Trazado_898877" data-name="Trazado 898877" d="M657.293,256.545l15.8-1.663,4.456-.469c.259-.027.262-.437,0-.409l-15.8,1.663-4.456.469c-.259.027-.262.437,0,.409" transform="translate(-602.403 -233.213)" fill="#1e203d"/>
        <path id="Trazado_898878" data-name="Trazado 898878" d="M657.293,294.325l15.8-1.663,4.456-.469c.259-.027.262-.437,0-.409l-15.8,1.663-4.456.469c-.259.027-.262.437,0,.409" transform="translate(-602.403 -267.848)" fill="#1e203d"/>
        <path id="Trazado_898879" data-name="Trazado 898879" d="M531.632,362.605l.676,1.339,1.512.067a.309.309,0,0,1,.175.537l-1.094,1.213.258,1.523a.351.351,0,0,1-.459.391l-1.353-.59L530,367.96a.291.291,0,0,1-.459-.295l.258-1.578-1.094-.983a.348.348,0,0,1,.175-.573l1.512-.385.676-1.482a.315.315,0,0,1,.567-.06" transform="translate(-484.604 -332.636)" fill="#f5c069"/>
        <path id="Trazado_898880" data-name="Trazado 898880" d="M615.6,353.767l.676,1.339,1.512.067a.309.309,0,0,1,.175.537l-1.094,1.213.258,1.523a.352.352,0,0,1-.459.391l-1.353-.59-1.353.874a.291.291,0,0,1-.459-.295l.258-1.578-1.094-.983a.348.348,0,0,1,.175-.573l1.512-.385.676-1.482a.315.315,0,0,1,.567-.06" transform="translate(-561.584 -324.534)" fill="#f5c069"/>
        <path id="Trazado_898881" data-name="Trazado 898881" d="M699.567,344.929l.676,1.339,1.512.067a.309.309,0,0,1,.175.537l-1.094,1.213.258,1.523a.352.352,0,0,1-.459.391l-1.353-.59-1.353.874a.291.291,0,0,1-.459-.295l.258-1.578-1.094-.983a.347.347,0,0,1,.175-.573l1.512-.385.676-1.482a.315.315,0,0,1,.567-.06" transform="translate(-638.563 -316.432)" fill="#f5c069"/>
        <path id="Trazado_898882" data-name="Trazado 898882" d="M1549.224,408.607l-30.7,3.231a2.144,2.144,0,0,1-2.368-2.132V364.248l34.987-3.682v45.909a2.144,2.144,0,0,1-1.919,2.132" transform="translate(-1389.968 -330.908)" fill="#fff"/>
        <path id="Trazado_898883" data-name="Trazado 898883" d="M1887.411,725.213v12.563c0,.925,0,1.849,0,2.774a1.969,1.969,0,0,1-1.716,1.971c-.7.089-1.4.147-2.094.22l-.233.024c-.259.027-.262.437,0,.409l2.111-.222a2.851,2.851,0,0,0,1.169-.327,2.367,2.367,0,0,0,1.092-1.425,4.11,4.11,0,0,0,.08-1.072V726.206c0-.314.019-.635,0-.949,0-.014,0-.029,0-.043a.2.2,0,0,0-.409,0" transform="translate(-1726.439 -665.027)" fill="#1e203d"/>
        <path id="Trazado_898884" data-name="Trazado 898884" d="M1603.814,615.449l-3.916.412a.879.879,0,0,1-.971-.874v-23.8a.879.879,0,0,1,.787-.874l3.916-.412a.879.879,0,0,1,.971.874v23.8a.879.879,0,0,1-.787.874" transform="translate(-1465.85 -541.156)" fill="#667cff"/>
        <path id="Trazado_898885" data-name="Trazado 898885" d="M1701.37,541.667l-3.916.412a.879.879,0,0,1-.971-.874V511.644a.879.879,0,0,1,.787-.874l3.916-.412a.879.879,0,0,1,.971.874v29.561a.879.879,0,0,1-.787.874" transform="translate(-1555.287 -468.229)" fill="#667cff"/>
        <path id="Trazado_898886" data-name="Trazado 898886" d="M1798.926,474.122l-3.916.412a.879.879,0,0,1-.971-.874V438.9a.879.879,0,0,1,.787-.874l3.916-.412a.879.879,0,0,1,.971.874v34.761a.879.879,0,0,1-.787.874" transform="translate(-1644.724 -401.538)" fill="#667cff"/>
        <path id="Trazado_898887" data-name="Trazado 898887" d="M1548.777,290.426l-30.7,3.231a2.144,2.144,0,0,0-1.919,2.132v4.146l34.987-3.682v-3.694a2.144,2.144,0,0,0-2.368-2.132" transform="translate(-1389.969 -266.594)" fill="#667cff"/>
        <path id="Trazado_898888" data-name="Trazado 898888" d="M1837.74,318.938a1.373,1.373,0,0,1-1.189,1.349,1.066,1.066,0,0,1-1.189-1.1,1.373,1.373,0,0,1,1.189-1.349,1.066,1.066,0,0,1,1.189,1.1" transform="translate(-1682.608 -291.731)" fill="#fff"/>
        <path id="Trazado_898889" data-name="Trazado 898889" d="M1880.331,314.455a1.373,1.373,0,0,1-1.189,1.349,1.066,1.066,0,0,1-1.189-1.1,1.373,1.373,0,0,1,1.189-1.349,1.066,1.066,0,0,1,1.189,1.1" transform="translate(-1721.654 -287.621)" fill="#fff"/>
        <path id="Trazado_898890" data-name="Trazado 898890" d="M150.324,741l-42.939,4.519a2.144,2.144,0,0,1-2.368-2.132V693.665l47.226-4.971v50.178A2.144,2.144,0,0,1,150.324,741" transform="translate(-96.268 -631.728)" fill="#fff"/>
        <path id="Trazado_898891" data-name="Trazado 898891" d="M145.275,1090.039l-2.658.28-6.73.708-8.889.936-9.288.978-7.78.819-4.4.463a2.348,2.348,0,0,1-1.854-.37,2,2,0,0,1-.725-1.585c0-.195,0-.39,0-.585v-22.166a.2.2,0,0,0-.409,0v21.207c0,.526,0,1.052,0,1.577a2.376,2.376,0,0,0,2.6,2.372c1.063-.106,2.125-.224,3.188-.335l7.057-.743,9.117-.96,9.253-.974,7.5-.789,3.846-.4.169-.018c.259-.027.262-.437,0-.409" transform="translate(-94.001 -980.675)" fill="#1e203d"/>
        <path id="Trazado_898892" data-name="Trazado 898892" d="M149.874,616.038l-42.939,4.519a2.144,2.144,0,0,0-1.919,2.132v4.355l47.226-4.971v-3.9a2.144,2.144,0,0,0-2.368-2.132" transform="translate(-96.267 -565.107)" fill="#667cff"/>
        <path id="Trazado_898893" data-name="Trazado 898893" d="M561.442,640.12a1.6,1.6,0,0,1-1.385,1.572,1.242,1.242,0,0,1-1.385-1.28,1.6,1.6,0,0,1,1.385-1.572,1.242,1.242,0,0,1,1.385,1.28" transform="translate(-512.168 -586.016)" fill="#fff"/>
        <path id="Trazado_898894" data-name="Trazado 898894" d="M611.072,634.9a1.6,1.6,0,0,1-1.385,1.572,1.242,1.242,0,0,1-1.385-1.28,1.6,1.6,0,0,1,1.385-1.572,1.242,1.242,0,0,1,1.385,1.28" transform="translate(-557.667 -581.226)" fill="#fff"/>
        <path id="Trazado_898895" data-name="Trazado 898895" d="M182.171,837.049a7.312,7.312,0,0,0,8.162,7.6,9.568,9.568,0,0,0,8.271-9.328,7.312,7.312,0,0,0-8.162-7.6,9.568,9.568,0,0,0-8.271,9.328" transform="translate(-167.001 -759.144)" fill="#667cff"/>
        <path id="Trazado_898896" data-name="Trazado 898896" d="M280.212,836.192l6.271-6.167a7.262,7.262,0,0,0-6.217-2.3l-.117.013Z" transform="translate(-256.826 -759.151)" fill="#f5c069"/>
        <path id="Trazado_898897" data-name="Trazado 898897" d="M280.9,861.979l5.979,5.131q.2-.24.384-.493c2.5-3.424,2.457-7.991-.091-10.8Z" transform="translate(-257.512 -784.938)" fill="#eeedf7"/>
        <path id="Trazado_898898" data-name="Trazado 898898" d="M239.654,891.115a3.055,3.055,0,0,0,3.41,3.174,4,4,0,0,0,3.455-3.9,3.055,3.055,0,0,0-3.41-3.174,4,4,0,0,0-3.455,3.9" transform="translate(-219.7 -813.713)" fill="#fff"/>
        <path id="Trazado_898899" data-name="Trazado 898899" d="M163.267,1073.458v15.816a.2.2,0,0,0,.409,0v-15.816a.2.2,0,0,0-.409,0" transform="translate(-149.671 -984.289)" fill="#1e203d"/>
        <path id="Trazado_898900" data-name="Trazado 898900" d="M620.131,844.849v15.816a.2.2,0,0,0,.409,0V844.849a.2.2,0,0,0-.409,0" transform="translate(-568.513 -774.705)" fill="#1e203d"/>
        <path id="Trazado_898901" data-name="Trazado 898901" d="M612.7,835.662a1.141,1.141,0,0,1-.988,1.121.886.886,0,0,1-.988-.913,1.141,1.141,0,0,1,.988-1.121.886.886,0,0,1,.988.913" transform="translate(-559.886 -765.623)" fill="#1e203d"/>
        <path id="Trazado_898902" data-name="Trazado 898902" d="M155.832,1064.272a1.141,1.141,0,0,1-.988,1.121.886.886,0,0,1-.988-.913,1.141,1.141,0,0,1,.988-1.121.885.885,0,0,1,.988.913" transform="translate(-141.044 -975.207)" fill="#1e203d"/>
        <path id="Trazado_898903" data-name="Trazado 898903" d="M198.734,965.953l-8.853.933-17.616,1.856c-2.656.28-5.314.541-7.97.835a1.105,1.105,0,0,1-1.23-1.095v-.012q0-1.4,0-2.8a7.021,7.021,0,0,1,3.179-1.925,5.818,5.818,0,0,1,2.224-.185,11.83,11.83,0,0,1,2.434.715,5.1,5.1,0,0,0,2.421.352,4.363,4.363,0,0,0,2.18-1.12,22.82,22.82,0,0,0,3.081-3.934,10.278,10.278,0,0,1,2.6-2.623,14.337,14.337,0,0,1,3.671-1.241,5.03,5.03,0,0,0,2.03-1.283,22.905,22.905,0,0,0,2.7-4.1,19.884,19.884,0,0,1,3.261-3.96,19.307,19.307,0,0,1,8.676-4.75q0,.417,0,.833,0,1.328,0,2.656,0,2.656,0,5.311,0,5.312,0,10.624c0,1.536-.01,3.074,0,4.61q-1.391.153-2.781.3" transform="translate(-149.482 -863.601)" fill="#22a37d"/>
        <path id="Trazado_898904" data-name="Trazado 898904" d="M163.563,1184.165a13.9,13.9,0,0,1,5.214.059,18.806,18.806,0,0,0,5.485.253,14.526,14.526,0,0,0,4.965-1.722c1.565-.839,3.047-1.825,4.633-2.624a11.076,11.076,0,0,1,5.85-1.421c.262.022.261-.387,0-.409-3.666-.308-6.829,1.912-9.858,3.64a13.816,13.816,0,0,1-10.618,1.945,26.224,26.224,0,0,0-2.776-.355,11.31,11.31,0,0,0-3,.239c-.257.055-.148.45.109.395" transform="translate(-149.707 -1080.562)" fill="#1e203d"/>
        <path id="Trazado_898905" data-name="Trazado 898905" d="M730.627,657.537l-27.582,2.9a2.144,2.144,0,0,1-2.368-2.132V605.131A2.144,2.144,0,0,1,702.6,603l27.582-2.9a2.144,2.144,0,0,1,2.368,2.132v53.177a2.144,2.144,0,0,1-1.919,2.132" transform="translate(-642.354 -550.492)" fill="#fff"/>
        <path id="Trazado_898906" data-name="Trazado 898906" d="M788.723,730.2a5.162,5.162,0,0,1-4.469,5.07,4.007,4.007,0,0,1-4.469-4.129,5.162,5.162,0,0,1,4.469-5.07,4.006,4.006,0,0,1,4.469,4.13" transform="translate(-714.881 -665.972)" fill="#bdbad4"/>
        <path id="Trazado_898907" data-name="Trazado 898907" d="M929.786,729.836l6.039-.636c.259-.027.262-.437,0-.409l-6.039.636c-.259.027-.262.437,0,.409" transform="translate(-852.218 -668.487)" fill="#1e203d"/>
        <path id="Trazado_898908" data-name="Trazado 898908" d="M963.607,918.364l-3.517.37c-.259.027-.262.437,0,.409l3.517-.37c.259-.027.262-.437,0-.409" transform="translate(-879.999 -842.283)" fill="#1e203d"/>
        <path id="Trazado_898909" data-name="Trazado 898909" d="M789.367,927.189l-11.723,1.234c-.259.027-.262.437,0,.409l11.723-1.234c.259-.027.262-.437,0-.409" transform="translate(-712.738 -850.373)" fill="#1e203d"/>
        <path id="Trazado_898910" data-name="Trazado 898910" d="M777.633,966.2l14.586-1.535,4.117-.433c.259-.027.262-.437,0-.409l-14.586,1.535-4.117.433c-.259.027-.262.437,0,.409" transform="translate(-712.728 -883.96)" fill="#1e203d"/>
        <path id="Trazado_898911" data-name="Trazado 898911" d="M868.793,1009.264l-12.125,1.276c-.259.027-.262.437,0,.409l12.125-1.276c.259-.027.262-.437,0-.409" transform="translate(-785.185 -925.618)" fill="#1e203d"/>
        <path id="Trazado_898912" data-name="Trazado 898912" d="M780.758,1028.978l-3.113.328c-.259.027-.262.437,0,.409l3.113-.328c.259-.027.262-.437,0-.409" transform="translate(-712.738 -943.691)" fill="#1e203d"/>
        <path id="Trazado_898913" data-name="Trazado 898913" d="M953.421,1054.728l-4.442.468c-.259.027-.262.437,0,.409l4.442-.468c.259-.027.262-.437,0-.409" transform="translate(-869.814 -967.298)" fill="#1e203d"/>
        <path id="Trazado_898914" data-name="Trazado 898914" d="M788.44,1064.725l-10.8,1.136c-.259.027-.262.437,0,.409l10.8-1.136c.259-.027.262-.437,0-.409" transform="translate(-712.738 -976.463)" fill="#1e203d"/>
        <path id="Trazado_898915" data-name="Trazado 898915" d="M777.633,1102.555l14.586-1.535,4.117-.433c.259-.027.262-.437,0-.409l-14.586,1.535-4.117.433c-.259.027-.262.437,0,.409" transform="translate(-712.728 -1008.965)" fill="#1e203d"/>
        <path id="Trazado_898916" data-name="Trazado 898916" d="M894.784,1145.628l-9.765,1.028c-.259.027-.262.437,0,.409l9.765-1.028c.259-.027.262-.437,0-.409" transform="translate(-811.177 -1050.633)" fill="#1e203d"/>
        <path id="Trazado_898917" data-name="Trazado 898917" d="M783.12,1162.356l-5.475.576c-.259.027-.262.437,0,.409l5.475-.576c.259-.027.262-.437,0-.409" transform="translate(-712.738 -1065.969)" fill="#1e203d"/>
        <path id="Trazado_898918" data-name="Trazado 898918" d="M777.633,1193.456l14.586-1.535,4.117-.433c.259-.027.262-.437,0-.409l-14.586,1.535-4.117.433c-.259.027-.262.437,0,.409" transform="translate(-712.728 -1092.3)" fill="#1e203d"/>
        <path id="Trazado_898919" data-name="Trazado 898919" d="M929.786,768.8l3.54-.373c.259-.027.262-.437,0-.409l-3.54.373c-.259.027-.262.437,0,.409" transform="translate(-852.218 -704.445)" fill="#1e203d"/>
        <path id="Trazado_898920" data-name="Trazado 898920" d="M455.247,449.956a36.915,36.915,0,1,1-23.264-46.73,36.913,36.913,0,0,1,23.264,46.73" transform="translate(-351.412 -368.25)" fill="#eeedf7"/>
        <path id="Trazado_898921" data-name="Trazado 898921" d="M588.47,479.038v50.776a36.963,36.963,0,0,1-50.9,2.594V481.252a3.423,3.423,0,0,1,3.066-3.4l41.21-4.339a36.727,36.727,0,0,1,6.62,5.529" transform="translate(-492.826 -434.451)" fill="#fff"/>
        <path id="Trazado_898922" data-name="Trazado 898922" d="M805.514,1072.1l-3.82.4a.858.858,0,0,1-.947-.853V1058.46a.858.858,0,0,1,.768-.853l3.82-.4a.857.857,0,0,1,.947.853v13.188a.858.858,0,0,1-.768.853" transform="translate(-734.096 -969.566)" fill="#667cff"/>
        <path id="Trazado_898923" data-name="Trazado 898923" d="M883.283,1094.211l-3.82.4a.858.858,0,0,1-.947-.853v-10.494a.857.857,0,0,1,.768-.853l3.82-.4a.858.858,0,0,1,.947.853v10.494a.857.857,0,0,1-.768.853" transform="translate(-805.393 -992.307)" fill="#667cff"/>
        <path id="Trazado_898924" data-name="Trazado 898924" d="M961.053,1036.426l-3.82.4a.857.857,0,0,1-.947-.853v-15a.858.858,0,0,1,.768-.853l3.82-.4a.858.858,0,0,1,.947.853v15a.858.858,0,0,1-.768.853" transform="translate(-876.691 -935.198)" fill="#667cff"/>
        <path id="Trazado_898925" data-name="Trazado 898925" d="M904.752,758.055l9.645-1.015c.259-.027.262-.437,0-.409l-9.645,1.015c-.259.027-.262.437,0,.409" transform="translate(-829.268 -694.01)" fill="#1e203d"/>
        <path id="Trazado_898926" data-name="Trazado 898926" d="M666.193,721.671a10.585,10.585,0,0,1-9.164,10.4,8.216,8.216,0,0,1-9.164-8.468,10.585,10.585,0,0,1,9.164-10.4,8.216,8.216,0,0,1,9.164,8.468" transform="translate(-593.939 -654.15)" fill="#22a37d"/>
        <path id="Trazado_898927" data-name="Trazado 898927" d="M748.946,722.643l-.82-9.309a8.835,8.835,0,0,1,3.054-.075,8.1,8.1,0,0,1,2.936,1.051Z" transform="translate(-685.855 -654.158)" fill="#eeedf7"/>
        <path id="Trazado_898928" data-name="Trazado 898928" d="M657.049,724.467l-8.336,4.8a10,10,0,0,1,1.183-9.939,10.379,10.379,0,0,1,6.373-4.173Z" transform="translate(-593.959 -655.982)" fill="#f5c069"/>
        <path id="Trazado_898929" data-name="Trazado 898929" d="M713.4,775.9a5.14,5.14,0,0,1-4.45,5.049,3.99,3.99,0,0,1-4.45-4.112,5.14,5.14,0,0,1,4.45-5.049,3.99,3.99,0,0,1,4.45,4.112" transform="translate(-645.863 -707.882)" fill="#fff"/>
        <path id="Trazado_898930" data-name="Trazado 898930" d="M904.752,700.464l9.645-1.015c.259-.027.262-.437,0-.409l-9.645,1.015c-.259.027-.262.437,0,.409" transform="translate(-829.268 -641.212)" fill="#1e203d"/>
        <path id="Trazado_898931" data-name="Trazado 898931" d="M670.4,1130.893l-8.62.907c-.259.027-.262.437,0,.409l8.62-.907c.259-.027.262-.437,0-.409" transform="translate(-606.517 -1037.124)" fill="#1e203d"/>
        <path id="Trazado_898932" data-name="Trazado 898932" d="M670.4,1193.194l-8.62.907c-.259.027-.262.437,0,.409l8.62-.907c.259-.027.262-.437,0-.409" transform="translate(-606.517 -1094.24)" fill="#1e203d"/>
        <path id="Trazado_898933" data-name="Trazado 898933" d="M904.752,814.079l5.654-.6c.259-.027.262-.437,0-.409l-5.654.6c-.259.027-.262.437,0,.409" transform="translate(-829.268 -745.755)" fill="#1e203d"/>
        <path id="Trazado_898934" data-name="Trazado 898934" d="M670.4,1068.631l-8.62.907c-.259.027-.262.437,0,.409l8.62-.907c.259-.027.262-.437,0-.409" transform="translate(-606.517 -980.044)" fill="#1e203d"/>
        <path id="Trazado_898935" data-name="Trazado 898935" d="M724.811,979.462l-10.066,1.06-11.7,1.231-5.094.536c-.259.027-.262.437,0,.409l10.065-1.059,11.7-1.231,5.094-.536c.259-.027.262-.437,0-.409" transform="translate(-639.681 -898.296)" fill="#1e203d"/>
        <path id="Trazado_898936" data-name="Trazado 898936" d="M1660.373,897.018c-.211-6.441-6.216-11.434-11.081-15.2a60.288,60.288,0,0,0-11.353-7.187c-4.13-1.918-7.008-3.28-11.568-3.446a20.112,20.112,0,0,0-3.986.3c-2.077.77-1.515,3.153-1.228,4.843q1.2,7.1,2.908,14.108t3.9,13.9q.541,1.7,1.112,3.384.292.862.591,1.722a12.362,12.362,0,0,0,.565,1.448,3.055,3.055,0,0,0,2.077,1.732,9.355,9.355,0,0,0,3.109-.042q3.647-.4,7.252-1.109a57.1,57.1,0,0,0,6.792-1.685c4.495-1.475,9.046-4.476,10.445-9.229a11.188,11.188,0,0,0,.467-3.544" transform="translate(-1485.963 -799.03)" fill="#f5c069"/>
        <rect id="Rectángulo_404675" data-name="Rectángulo 404675" width="11.614" height="74.977" transform="translate(101.748 90.579) rotate(-73.257)" fill="#1e203d"/>
        <path id="Trazado_898937" data-name="Trazado 898937" d="M2073.552,1217.93c-1.4-.423-3.292,1.725-4.216,4.8s-.534,5.9.87,6.326,3.292-1.724,4.216-4.8.534-5.9-.87-6.326" transform="translate(-1896.651 -1116.87)" fill="#1e203d"/>
        <path id="Trazado_898938" data-name="Trazado 898938" d="M393.692,360.38a40.494,40.494,0,1,0,25.52,51.266,40.489,40.489,0,0,0-25.52-51.266m22.125,50.127a36.915,36.915,0,1,1-23.264-46.73,36.913,36.913,0,0,1,23.264,46.73" transform="translate(-311.981 -328.8)" fill="#1e203d"/>
        <path id="Trazado_898939" data-name="Trazado 898939" d="M564.479,1220.657a4.021,4.021,0,0,0-2.1-.137q-1.291.1-2.581.21a12.557,12.557,0,0,0-2.854-1.5,26.179,26.179,0,0,0-7.07-1.31c-.965-.081-2.772-.3-2.944.9-.12.836,2.464,2.417,4.069,3.386a15.18,15.18,0,0,1-3.074.414,16.6,16.6,0,0,1-4.369-1.075,3.957,3.957,0,0,0-2.378-.261c-.6.3-.978,1.16-.347,2.236,1.311,2.236,5.093,3.674,6.217,4.017a27.081,27.081,0,0,0,6.888,1.159,26.018,26.018,0,0,0,6.949-.669c.274-.065.546-.135.817-.208a7.373,7.373,0,0,0,2.151-.176,2.351,2.351,0,0,0,1.461-1.327,5.68,5.68,0,0,0,.391-2.153,7.176,7.176,0,0,0-.158-2.049,2.158,2.158,0,0,0-1.068-1.462" transform="translate(-495.513 -1116.848)" fill="#bd6548"/>
        <path id="Trazado_898940" data-name="Trazado 898940" d="M1411.068,879.316c-.829-2.538-1.521-5.325-3.948-6.839a11.806,11.806,0,0,0-6.408-1.317q-2.036.009-4.068.1c-1.309.355-2.615.724-3.939,1.012-3.553.773-7.134,1.374-10.624,2.42a41.236,41.236,0,0,0-5.628,2.177,13.322,13.322,0,0,0-.7,6.216l1.5,22.245a71.4,71.4,0,0,0,1.069,9.877,12.646,12.646,0,0,0,3.192,6.255c2.184,2.3,4.912,2.321,7.918,2.481a100.488,100.488,0,0,0,19.379-.535c5.38-.762,10.228-2.48,10.548-8.694.088-1.71-4.6-24.114-8.288-35.394" transform="translate(-1261.186 -799.007)" fill="#f5c069"/>
        <path id="Trazado_898941" data-name="Trazado 898941" d="M848.77,893.4c-2.368.484-4.732.982-7.054,1.679a31.479,31.479,0,0,0-12.109,6.231c-4.476,3.963-10.581,10.339-16.133,15.166-5.647,1.665-22.83,3.613-25.247,4.155-4.469,1,.035,5.986.412,9.555.168,1.593.479,5.987,1.61,6.813a4.71,4.71,0,0,0,2.687,1.079c2.69.3,18.751.322,24.614-.755a26.523,26.523,0,0,0,5.9-1.808,53.7,53.7,0,0,0,11.507-6.757c5.944-4.72,9.766-9.458,14.382-16.841,1.936-3.1,4.745-5.72,5.718-9.24a10.408,10.408,0,0,0-.421-6.864c-.31-.693-2.937-1.765-5.862-2.414" transform="translate(-720.819 -819.394)" fill="#f5c069"/>
        <path id="Trazado_898942" data-name="Trazado 898942" d="M1391.016,1212.79l7.348-7.745c.181-.191-.108-.481-.289-.289l-7.348,7.745c-.181.191.108.481.289.289" transform="translate(-1274.924 -1104.784)" fill="#1e203d"/>
        <path id="Trazado_898943" data-name="Trazado 898943" d="M1815.026,1024.458q1.567,5.242,2.929,10.544,1.332,5.212,2.444,10.478.644,3.046,1.22,6.105c.049.258.443.149.394-.109q-1.019-5.395-2.246-10.747-1.208-5.238-2.635-10.421-.822-2.989-1.712-5.959a.2.2,0,0,0-.395.109" transform="translate(-1663.955 -939.317)" fill="#1e203d"/>
        <path id="Trazado_898944" data-name="Trazado 898944" d="M756.22,1219.873q-.163-1.263-.448-2.5-.142-.62-.315-1.233a4.935,4.935,0,0,0-.36-1.013,1.482,1.482,0,0,0-.7-.675c-.31-.136-.066-.633-.4-.633-.864,0-4.9.582-5.737.7a2.3,2.3,0,0,0-1.894.984,13.514,13.514,0,0,0-1.3,7.216,12.155,12.155,0,0,0,.949,3.564c.493,1.126,1,1.8,2.322,1.77,1.594-.038,3.349-.027,4.911-.205.039,0,.107-.132.146-.137a1.7,1.7,0,0,0,1.237.847,1.6,1.6,0,0,0,1.454-1.219,5.581,5.581,0,0,0,.2-1.126q.071-.635.11-1.272a26.605,26.605,0,0,0-.171-5.066" transform="translate(-682.979 -1113.145)" fill="#f5c069"/>
        <path id="Trazado_898945" data-name="Trazado 898945" d="M1400.186,725.839a1.445,1.445,0,0,0,.527.516,1.666,1.666,0,0,0,.75.32c.31.015.473-.231.544-.5.094-.354.169-.713.254-1.07l.27-1.138c.086-.364.194-.73.251-1.1l.084-.069c.086-.067-.031-.184-.115-.121-.036.027-.072.056-.108.083a.091.091,0,0,0-.032.025,18.746,18.746,0,0,0-1.73,1.489c-.407.4-1.022.938-.694,1.565" transform="translate(-1283.564 -662.866)" fill="#bd6548"/>
        <path id="Trazado_898946" data-name="Trazado 898946" d="M1429.847,604.548a8.023,8.023,0,0,0-1.495-4.627,10.744,10.744,0,0,0-9.742-4.032,9.321,9.321,0,0,0-7.334,6.212c-.753,1.944-.8,4.135-1.406,6.123a42.693,42.693,0,0,0-1.128,4.408c-.519,2.624.575,5.23,3.667,5.2a24.572,24.572,0,0,0,7.984-1.579,13.312,13.312,0,0,0,7.97-5.984,11.4,11.4,0,0,0,1.482-5.717" transform="translate(-1291.38 -546.571)" fill="#bd6548"/>
        <path id="Trazado_898947" data-name="Trazado 898947" d="M1516.95,777.672s1.155,5.335,1.9,8.62c0,0,.559,2.294,3.986,1.572a3.251,3.251,0,0,0,2.82-3.572l-1.51-8.079Z" transform="translate(-1390.695 -711.963)" fill="#bd6548"/>
        <path id="Trazado_898948" data-name="Trazado 898948" d="M1493.094,757.175s3.263,5.887,9.9,3.847l-.377-3.158-5.941-2.429Z" transform="translate(-1368.825 -692.915)" fill="#1e203d"/>
        <path id="Trazado_898949" data-name="Trazado 898949" d="M1467.81,559.817a4.224,4.224,0,0,0-1.32-.737,3.679,3.679,0,0,0,1.175-2.026,2.709,2.709,0,0,0-.677-2.35,3.847,3.847,0,0,0-2.2-1.164,7.531,7.531,0,0,0-3.259.317,1.023,1.023,0,0,0-.271-1.053,2.36,2.36,0,0,0-1.764-.41,8.745,8.745,0,0,0-3.514.916c-.233.116-.46.243-.682.377a2.007,2.007,0,0,0-1.107-.318,3.116,3.116,0,0,0-2.291,1.286,6.287,6.287,0,0,0-1.43,4.673,4.743,4.743,0,0,0,2.442,3.558,1.582,1.582,0,0,1,.728.744c.229.587-.144,1.213-.371,1.739q-.424.985-.766,2c-.114.339-.222.68-.321,1.024a2.929,2.929,0,0,0-.147.944,1.56,1.56,0,0,0,1.022,1.3,8.633,8.633,0,0,0,4.139.887,8.483,8.483,0,0,0,1.792,1.686,8.291,8.291,0,0,0,1.643.9,3.882,3.882,0,0,0,2.063.319,3.7,3.7,0,0,0,1.715-.857,9.729,9.729,0,0,0,1.351-1.395,11.721,11.721,0,0,0,1.874-3.318,11.533,11.533,0,0,0,.7-3.249,4.28,4.28,0,0,0,.951-2.012,4.015,4.015,0,0,0-1.472-3.772" transform="translate(-1329.708 -506.763)" fill="#1e203d"/>
        <path id="Trazado_898950" data-name="Trazado 898950" d="M1483.71,648.366a4.112,4.112,0,0,0,5.069,2.537l-.231-.094a4.471,4.471,0,0,0,4.264,2.161c.259-.028.262-.437,0-.409a4.069,4.069,0,0,1-3.911-1.958.207.207,0,0,0-.231-.094,3.7,3.7,0,0,1-4.566-2.251c-.083-.249-.478-.142-.395.109" transform="translate(-1360.211 -594.527)" fill="#7d83ab"/>
        <path id="Trazado_898951" data-name="Trazado 898951" d="M1576.125,671.84a5.054,5.054,0,0,0,4.05-.624c.22-.143.016-.5-.206-.353a4.645,4.645,0,0,1-3.735.583.2.2,0,0,0-.109.394" transform="translate(-1444.812 -615.349)" fill="#7d83ab"/>
        <path id="Trazado_898952" data-name="Trazado 898952" d="M1423.088,688.255c.208.593.661.634,1.288.932.5.236,1.2.593,1.433-.038.325-.865-.868-2.032-1.607-2.211-.982-.238-1.264.893-1.115,1.317" transform="translate(-1304.61 -630.088)" fill="#1e203d"/>
        <path id="Trazado_898953" data-name="Trazado 898953" d="M1426.933,721.826a.512.512,0,0,0,.963.008,1.813,1.813,0,0,0,.1-1.254c-.133-.429-.6-.621-.885-.237a1.122,1.122,0,0,0-.143.263,2.13,2.13,0,0,0-.039,1.219" transform="translate(-1308.104 -660.554)" fill="#1e203d"/>
        <path id="Trazado_898954" data-name="Trazado 898954" d="M1410.033,780.724a2.318,2.318,0,0,0,1.888-.886,2.193,2.193,0,0,0,.352-.651c-.63-.018-1.262-.038-1.891-.058-.121.5-.234,1.018-.343,1.569a.126.126,0,0,1-.006.026" transform="translate(-1292.676 -714.637)" fill="#fff"/>
        <path id="Trazado_898955" data-name="Trazado 898955" d="M1522.681,837.064a8.977,8.977,0,0,0-.688-2.107,2.413,2.413,0,0,0-1.435-1.17c-4.069-1.2-12.668,3.337-7.519,8.036,2.346,2.141,5.482,2.052,7.926,1.545a4.012,4.012,0,0,0,1.594-.627,2.019,2.019,0,0,0,.784-1.4,6.273,6.273,0,0,0-.14-1.93q-.22-1.175-.522-2.352" transform="translate(-1385.645 -764.567)" fill="#f5c069"/>
        <path id="Trazado_898956" data-name="Trazado 898956" d="M1511.94,870.892a27.263,27.263,0,0,1,10.615-2.108.2.2,0,0,0,0-.409,27.562,27.562,0,0,0-10.724,2.123c-.24.1-.134.5.109.394" transform="translate(-1385.878 -796.454)" fill="#1e203d"/>
        <path id="Trazado_898957" data-name="Trazado 898957" d="M1443.034,722.759a3.088,3.088,0,0,0-4.69-1.828,3.224,3.224,0,0,0,.261,5.466c2.421,1.459,4.963-1.117,4.429-3.639" transform="translate(-1317.354 -660.787)" fill="#bd6548"/>
        <path id="Trazado_898958" data-name="Trazado 898958" d="M1476.652,742.817a1.3,1.3,0,0,1,.524,1.206,1.323,1.323,0,0,1-.805,1.018.206.206,0,0,0-.073.28.21.21,0,0,0,.28.073,1.678,1.678,0,0,0,.281-2.931.206.206,0,0,0-.28.073.209.209,0,0,0,.073.28" transform="translate(-1353.402 -680.996)" fill="#1e203d"/>
        <path id="Trazado_898959" data-name="Trazado 898959" d="M805.043,1235.7a21.973,21.973,0,0,1-1.048-9.969,21.6,21.6,0,0,1,.569-2.872.2.2,0,0,0-.395-.109,22.362,22.362,0,0,0-.3,10.229,21.925,21.925,0,0,0,.781,2.83c.086.247.481.141.394-.109" transform="translate(-736.544 -1121.201)" fill="#1e203d"/>
        <path id="Trazado_898960" data-name="Trazado 898960" d="M648.875,1263.865l2.551,1.225c.236.113.444-.239.206-.353l-2.551-1.225c-.236-.114-.444.239-.206.353" transform="translate(-594.768 -1158.686)" fill="#1e203d"/>
        <path id="Trazado_898961" data-name="Trazado 898961" d="M588.47,479.038v3.614l-50.9,5.357v-6.757a3.423,3.423,0,0,1,3.066-3.4l41.21-4.339a36.727,36.727,0,0,1,6.62,5.529" transform="translate(-492.826 -434.451)" fill="#f26a49"/>
        <path id="Trazado_898962" data-name="Trazado 898962" d="M975.264,516.353a2.506,2.506,0,0,1-2.17,2.462,1.945,1.945,0,0,1-2.17-2.005,2.506,2.506,0,0,1,2.17-2.462,1.945,1.945,0,0,1,2.17,2.005" transform="translate(-890.111 -471.88)" fill="#fff"/>
        <path id="Trazado_898963" data-name="Trazado 898963" d="M1053,508.171a2.506,2.506,0,0,1-2.17,2.462,1.945,1.945,0,0,1-2.17-2.005,2.506,2.506,0,0,1,2.17-2.462,1.945,1.945,0,0,1,2.17,2.005" transform="translate(-961.377 -464.379)" fill="#fff"/>
      </g>
    </g>
  </g>
</svg>
