<svg xmlns="http://www.w3.org/2000/svg" xmlns:xlink="http://www.w3.org/1999/xlink" width="315" height="182" viewBox="0 0 315 182">
  <defs>
    <clipPath id="clip-path">
      <rect id="Rectángulo_404681" data-name="Rectángulo 404681" width="290" height="172.986" fill="none"/>
    </clipPath>
  </defs>
  <g id="_64" data-name="64" transform="translate(-369.99 -3672)">
    <g id="Grupo_1108891" data-name="Grupo 1108891" transform="translate(379.99 3673.72)">
      <g id="Grupo_1108890" data-name="Grupo 1108890" clip-path="url(#clip-path)">
        <path id="Trazado_899049" data-name="Trazado 899049" d="M275.256,139.9c-24.608-38.161-72.761-50.247-114.412-35.3-4.937,1.772-20.779,9.249-20.344,9.766a67.9,67.9,0,0,1-13.028,3.518c-40.656,5.465-69.479-10.569-96.6,7.5-61.757,41.159-20.669,134.649,34.166,134.649l38.538,0c18.195,0,28.114-9.869,50.385-10.695a86.241,86.241,0,0,1,22.128,2.466c4.986,1.287,32.241,8.236,38.546,8.236h16.216c38.054,0,58.168-35.752,59.112-68.608a90.655,90.655,0,0,0-14.71-51.542" transform="translate(0 -87.074)" fill="#cfd5db"/>
        <path id="Trazado_899050" data-name="Trazado 899050" d="M723.81,354.482a6.871,6.871,0,0,0-.271-3.021,2.615,2.615,0,0,0-2.514-1.931c-1.217.09-1.93,1.178-2.429,2.163a15.841,15.841,0,0,0-1.2,3.108,6.789,6.789,0,0,0-.211,3.458,2.357,2.357,0,0,0,2.492,1.812c2.406-.359,3.881-3.433,4.13-5.589" transform="translate(-634.589 -309.333)" fill="#180c45"/>
        <path id="Trazado_899051" data-name="Trazado 899051" d="M782.346,558.4a1.218,1.218,0,0,0-.209-.164,77.114,77.114,0,0,0-16.019-7.408c-1.607-.532-3.224-1-4.869-1.393a.617.617,0,0,0-.681.3c-1.112.589-2.168,1.318-3.224,1.994q-1.7,1.085-3.366,2.209-2.626,1.766-5.179,3.637c-1.6-2.064-3.275-4.077-4.919-6.107q-2.912-3.594-5.831-7.182l-5.882-7.245a53.172,53.172,0,0,0-5.666-6.384c-1.929-1.719-5.089-2.947-7.771-3.862-1.56.134-2.679,3.705-2.979,4.927a51.525,51.525,0,0,0-1.261,7.462,52.617,52.617,0,0,0,.744,15.139q.421,2.131,1.015,4.224c.328,1.157-1.213,2.924-.974,3.206,3.662,4.32,9.041,9.989,12.956,14.092a34.026,34.026,0,0,0,13.2,9.045,21.211,21.211,0,0,0,7.811,1.216,20.537,20.537,0,0,0,7.625-1.92c5.034-2.3,9.3-6.066,13.186-9.94a135.087,135.087,0,0,0,11.274-13.033c.438-.566.865-1.141,1.3-1.711a.727.727,0,0,0-.282-1.106" transform="translate(-632.121 -466.221)" fill="#4050ff"/>
        <path id="Trazado_899052" data-name="Trazado 899052" d="M285.3,1024.684q-1.984-5.712-4.357-11.258a165.864,165.864,0,0,0-7.9-16.047c-5.065-9.016-11.034-18.7-18.406-25.781-6.228-5.985-15.1-11.151-23.708-8.529a20.2,20.2,0,0,0-9.828,7.268c-5.637,7.34-8.08,17.129-9.195,26.356-.377,3.106-.585,6.232-.656,9.36,9.113,9.253,20.228,15.781,32.315,17.892.725-6.771,1.313-17.174,1.313-17.174,2.807,8.064,5.874,15.124,7.122,17.909q11.316,0,22.633.013c3.558,0,7.115-.006,10.673,0,0,0,0,0,0-.007" transform="translate(-186.954 -851.709)" fill="#180c45"/>
        <path id="Trazado_899053" data-name="Trazado 899053" d="M294.1,932.3l-3.494,13.443s12.7,4.741,35.134,3.587l.819-16.65Z" transform="translate(-257.192 -825.093)" fill="#180c45"/>
        <path id="Trazado_899054" data-name="Trazado 899054" d="M346.544,1019.049a66.257,66.257,0,0,0,27.118,1.156,65.376,65.376,0,0,0,7.5-1.7.325.325,0,0,0-.173-.627,65.575,65.575,0,0,1-26.809,2,64.849,64.849,0,0,1-7.465-1.451.325.325,0,0,0-.173.627" transform="translate(-306.491 -900.821)" fill="#614ab5"/>
        <path id="Trazado_899055" data-name="Trazado 899055" d="M309.9,511.792c-.18.315-.36.627-.548.934a102.949,102.949,0,0,1-5.75,8.587c-2.147,2.829-4.335,5.6-6.637,8.281a48.518,48.518,0,0,1-4.935,3.139c-1.26.7-2.551,1.357-3.86,1.964a72.726,72.726,0,0,1-14.079,4.808,73.838,73.838,0,0,1-9.664,1.6c-.051.008-.1.012-.151.017a48.277,48.277,0,0,1-10.421.131,17.987,17.987,0,0,1-8.889-3.329,11.77,11.77,0,0,1-4.582-7.032c-.622-3.346.457-6.711,1.82-9.735a97.441,97.441,0,0,1,4.859-9.27q2.65-4.516,5.722-8.767c1.915-2.649,2.774-7.048,5.244-9.207,2.392-2.094.851-3.161,3.937-3.9,3.052-.729,11.713.042,14.865.551h.036c3.689.448,7.274.291,10.878.786.035.006.071.009.106.015a59.446,59.446,0,0,1,9.19,1.881c4.949,1.5,10.13,4.234,12.289,9.213a14.752,14.752,0,0,1,.569,9.326" transform="translate(-212.58 -433.41)" fill="#4050ff"/>
        <path id="Trazado_899056" data-name="Trazado 899056" d="M670.73,522.211a15.421,15.421,0,0,0,2.865-11.165c-.049-.41-.7-.415-.65,0a14.813,14.813,0,0,1-2.675,10.706c-.254.326.2.789.459.459" transform="translate(-593.131 -452.008)" fill="#180c45"/>
        <path id="Trazado_899057" data-name="Trazado 899057" d="M516.035,493.478a14.278,14.278,0,0,0,3.177,10.9c.267.322.725-.14.459-.459a13.657,13.657,0,0,1-2.987-10.439c.054-.413-.6-.409-.65,0" transform="translate(-456.594 -436.461)" fill="#180c45"/>
        <path id="Trazado_899058" data-name="Trazado 899058" d="M453.786,535.694c-.179.671-.356,1.346-.535,2.017-.007.02-.01.038-.017.058a37.387,37.387,0,0,1-2.658,7.591,12.143,12.143,0,0,1-4.785,4.992,18.681,18.681,0,0,1-6.446,2.173,26.375,26.375,0,0,1-13.19-1.333c1.237-2.542,2.381-5.124,3.453-7.725.007-.02.017-.04.024-.06a164.051,164.051,0,0,0,9.918-31.846,135.932,135.932,0,0,0,1.9-15.107s2.32.181,3.486.248c2.462.142,4.934.271,7.379.613.035.006.071.009.106.015a79.99,79.99,0,0,1,2.953,19.345,95.219,95.219,0,0,1-1.587,19.019" transform="translate(-377.152 -439.368)" fill="#fff"/>
        <path id="Trazado_899059" data-name="Trazado 899059" d="M556.3,531.012a9.906,9.906,0,0,0,12,.633c.342-.236.017-.8-.328-.561a9.251,9.251,0,0,1-11.215-.531c-.317-.269-.779.188-.459.46" transform="translate(-492.24 -469.472)" fill="#180c45"/>
        <path id="Trazado_899060" data-name="Trazado 899060" d="M227.778,649.187l-14.394,41.507a50.551,50.551,0,0,0,23.067,5.514l13.7-44.2Z" transform="translate(-188.847 -574.538)" fill="#4050ff"/>
        <path id="Trazado_899061" data-name="Trazado 899061" d="M569.75,680.076l-8.276,45.285c7.329,1.275,15.411-3.058,15.411-3.058l6.814-38.732Z" transform="translate(-496.91 -601.875)" fill="#4050ff"/>
        <path id="Trazado_899062" data-name="Trazado 899062" d="M730.47,764.391l-1.018,8.478c-.05.414.6.411.65,0l1.018-8.478c.05-.414-.6-.411-.65,0" transform="translate(-645.571 -676.222)" fill="#180c45"/>
        <path id="Trazado_899063" data-name="Trazado 899063" d="M817.639,304.724a17.185,17.185,0,1,1-7.417-23.5,17.425,17.425,0,0,1,7.417,23.5" transform="translate(-694.743 -247.308)" fill="#180c45"/>
        <rect id="Rectángulo_404680" data-name="Rectángulo 404680" width="32.173" height="4.376" transform="translate(89.783 80.226) rotate(-63.317)" fill="#180c45"/>
        <path id="Trazado_899064" data-name="Trazado 899064" d="M835.761,324.366a14.538,14.538,0,1,1-6.275-19.876,14.741,14.741,0,0,1,6.275,19.876" transform="translate(-715.23 -268.138)" fill="#f28e61"/>
        <path id="Trazado_899065" data-name="Trazado 899065" d="M854.739,384.116a16.725,16.725,0,0,1-24.1-9.972,16.725,16.725,0,0,1,24.1,9.972" transform="translate(-735.125 -329.258)" fill="#fff"/>
        <path id="Trazado_899066" data-name="Trazado 899066" d="M893.06,387.952a6.255,6.255,0,1,1-3.388-8.171,6.255,6.255,0,0,1,3.388,8.171" transform="translate(-779.717 -335.689)" fill="#180c45"/>
        <path id="Trazado_899067" data-name="Trazado 899067" d="M960.98,335.506l1.478-3.572a.327.327,0,0,0-.227-.4.333.333,0,0,0-.4.227l-1.478,3.572a.327.327,0,0,0,.227.4.333.333,0,0,0,.4-.227" transform="translate(-849.909 -293.401)" fill="#180c45"/>
        <path id="Trazado_899068" data-name="Trazado 899068" d="M882.73,323.413l-.727-3.8c-.079-.41-.7-.237-.627.173l.727,3.8c.078.41.7.237.627-.173" transform="translate(-780.022 -282.657)" fill="#180c45"/>
        <path id="Trazado_899069" data-name="Trazado 899069" d="M1019.58,390.614l3.2-2.173a.333.333,0,0,0,.117-.445.328.328,0,0,0-.445-.117l-3.2,2.173a.333.333,0,0,0-.117.444.328.328,0,0,0,.445.117" transform="translate(-901.909 -343.238)" fill="#180c45"/>
        <path id="Trazado_899070" data-name="Trazado 899070" d="M892.6,499.077l-1.478,3.572a.327.327,0,0,0,.227.4.333.333,0,0,0,.4-.227l1.478-3.572a.327.327,0,0,0-.227-.4.333.333,0,0,0-.4.227" transform="translate(-788.641 -441.477)" fill="#180c45"/>
        <path id="Trazado_899071" data-name="Trazado 899071" d="M976.795,509.515l.727,3.8c.079.41.705.237.627-.173l-.727-3.8c-.078-.41-.7-.237-.627.173" transform="translate(-864.469 -450.567)" fill="#180c45"/>
        <path id="Trazado_899072" data-name="Trazado 899072" d="M820.874,454.723l-3.2,2.173a.333.333,0,0,0-.117.445.328.328,0,0,0,.445.117l3.2-2.173a.333.333,0,0,0,.117-.445.328.328,0,0,0-.445-.117" transform="translate(-723.512 -402.395)" fill="#180c45"/>
        <path id="Trazado_899073" data-name="Trazado 899073" d="M673.692,603.873c.248-.367.489-.738.732-1.094a4.212,4.212,0,0,0,.945-2.776c-.2-1.805-2.136-2.689-3.511-3.5-.9-.53-1.8-1.062-2.7-1.578a11.065,11.065,0,0,0-2.716-1.214,20.11,20.11,0,0,0-6.1-.174c-2.291.143-7.947.748-10.2,1.163-.226.041-.055,5.021-.714,7.554a29.071,29.071,0,0,0-1,7.863.851.851,0,0,0,.1.383.632.632,0,0,0,.653.915c2.595-.4,5.179-.869,7.766-1.32l2.617-.456a4.531,4.531,0,0,0,2.993,2.47,14.823,14.823,0,0,0,4.563.651,7.02,7.02,0,0,0,3.931-1.163,3.455,3.455,0,0,0,1.7-3.2s0-.008,0-.012A4.57,4.57,0,0,0,674.208,606a2.793,2.793,0,0,0-.517-2.128" transform="translate(-573.861 -525.158)" fill="#f28e61"/>
        <path id="Trazado_899074" data-name="Trazado 899074" d="M118.713,504.147q-7.891,1.364-15.766,2.813a38.494,38.494,0,0,0,2.637-6.441c.624-2.052,2.14-10.537-.067-10.637-5.136-.231-10.809.126-15.408,2.175-7.346,3.274-22.351,14.493-25.757,17.819a25.6,25.6,0,0,0-7.168,11.231c-1.467,5.328-.865,11.589,3.311,15.574,5.471,5.22,15.247,4.6,22.161,3.786a148.28,148.28,0,0,0,22.164-4.709c3.654-1.009,7.293-2.072,10.944-3.1l9.783-2.75c.07-5.934.145-11.868.369-17.8.113-3,.254-6.034.329-9.078-.462.079-7.069,1.029-7.531,1.109" transform="translate(-49.968 -433.497)" fill="#4050ff"/>
        <path id="Trazado_899075" data-name="Trazado 899075" d="M802.609,642.607a36.656,36.656,0,0,1,7.129,4.31c.331.255.655-.309.328-.561a36.659,36.659,0,0,0-7.129-4.31c-.377-.173-.708.387-.328.561" transform="translate(-710.17 -568.19)" fill="#180c45"/>
        <path id="Trazado_899076" data-name="Trazado 899076" d="M793.723,683.034a36.656,36.656,0,0,1,7.129,4.31c.331.255.655-.309.328-.561a36.657,36.657,0,0,0-7.129-4.31c-.377-.173-.708.387-.328.561" transform="translate(-702.306 -603.968)" fill="#180c45"/>
        <path id="Trazado_899077" data-name="Trazado 899077" d="M743.123,733.78a13.923,13.923,0,0,0,6.456.577c.412-.059.237-.686-.173-.627a13.215,13.215,0,0,1-6.11-.577c-.4-.134-.567.493-.173.627" transform="translate(-657.474 -648.833)" fill="#180c45"/>
        <path id="Trazado_899078" data-name="Trazado 899078" d="M581.384,390.773l-3.691,8.794s-4.751,4.014-9.828-1.212l5.648-12.91Z" transform="translate(-502.567 -341.123)" fill="#f28e61"/>
        <path id="Trazado_899079" data-name="Trazado 899079" d="M601.709,312.222a5.042,5.042,0,0,1-.091-2.636c1.384-5.524,8.612-8.114,13.521-5.906a8.406,8.406,0,0,1,4.071,3.9c.958,1.954.7,5.671-1.1,9.3a46.675,46.675,0,0,1-.462,5.179c-.8,4.931-4.807,9.014-9.663,5.187-1.8-1.42-2.518-3.852-2.987-6-.335-1.531-.378-3.122-.852-4.623-.4-1.269-1.425-2.139-2.006-3.309a6.607,6.607,0,0,1-.43-1.1" transform="translate(-532.32 -268.065)" fill="#f28e61"/>
        <path id="Trazado_899080" data-name="Trazado 899080" d="M599.488,293.574a3.366,3.366,0,0,0-1.89-3.1,9.193,9.193,0,0,0-4.409-1.13c-.876-.046-1.758-.043-2.631-.137a8.984,8.984,0,0,1-2.5-.665,4.894,4.894,0,0,0-2.865-.407,3.851,3.851,0,0,0-1.712.794,5.451,5.451,0,0,0-3.352.468,5.567,5.567,0,0,0-2.817,3.287,5.642,5.642,0,0,0-.276,2.19,10.807,10.807,0,0,1,.2,2.45,4.167,4.167,0,0,1-.961,1.727,4.7,4.7,0,0,0-1,2.122,7.323,7.323,0,0,0,.255,2.819c.351,1.406,1.474,2.121,2.841,1.341a7.759,7.759,0,0,0,2.712-3.638c.073-.161.155-.336.233-.518a6.959,6.959,0,0,0,3.213.557c2.216-.265,3.327-2.192,3.673-4.222a16.073,16.073,0,0,0,.224-2.311c.5.339,1.017.662,1.546.962a10.913,10.913,0,0,0,3.812,1.525c2.706.354,5.54-1.816,5.7-4.11" transform="translate(-509.082 -254.936)" fill="#180c45"/>
        <path id="Trazado_899081" data-name="Trazado 899081" d="M608.638,389.311a3.336,3.336,0,1,1-4.706-.341,3.336,3.336,0,0,1,4.706.341" transform="translate(-533.466 -343.524)" fill="#f28e61"/>
        <path id="Trazado_899082" data-name="Trazado 899082" d="M616.589,402.4c-.011-.044-.022-.088-.03-.133,0-.025-.009-.049-.013-.074.005.033,0,.025,0,0a2.1,2.1,0,0,1-.008-.27c0-.045.007-.09.01-.135s-.009.048,0,0c0-.025.008-.049.013-.074a2.075,2.075,0,0,1,.068-.261c.013-.038.027-.076.041-.113-.021.055,0-.008.009-.019l.026-.054a1.985,1.985,0,0,1,.136-.233l.044-.061c-.02.027-.011.013,0-.005.029-.035.058-.069.089-.1s.063-.065.1-.1l.045-.04s.078-.062.029-.025a.334.334,0,0,0,.117-.445.328.328,0,0,0-.445-.117,2.335,2.335,0,0,0-.859,2.436.325.325,0,1,0,.626-.173" transform="translate(-545.07 -354.081)" fill="#180c45"/>
        <path id="Trazado_899083" data-name="Trazado 899083" d="M726.324,422.731c1.147.13.867,1.633.606,2.222-.169.383-.489.822-1.008.756-.756-.1-.723-1.049-.65-1.553.081-.562.3-1.511,1.052-1.426" transform="translate(-641.843 -374.117)" fill="#180c45"/>
        <path id="Trazado_899084" data-name="Trazado 899084" d="M702.071,433.881a1.932,1.932,0,0,0,1.521.269,1.293,1.293,0,0,0,.914-.947,3.737,3.737,0,0,0-.209-1.5l-.272-1.162c-.1-.407-.722-.235-.627.173l.227.972c.084.362.2.728.248,1.1a.633.633,0,0,1-.406.727,1.258,1.258,0,0,1-1.068-.188.325.325,0,0,0-.328.561" transform="translate(-621.203 -380.827)" fill="#180c45"/>
        <path id="Trazado_899085" data-name="Trazado 899085" d="M682.6,454.826a3.293,3.293,0,0,0,1.732,2.576.332.332,0,0,0,.445-.117.328.328,0,0,0-.117-.445,2.859,2.859,0,0,1-.294-.173,1.724,1.724,0,0,1-.23-.179,2.958,2.958,0,0,1-.242-.24q-.057-.063-.11-.13c.028.035-.033-.044-.032-.043l-.049-.07a3.017,3.017,0,0,1-.176-.292,2.108,2.108,0,0,1-.121-.264,2.86,2.86,0,0,1-.1-.325q-.02-.083-.036-.167c-.005-.028-.01-.056-.014-.084.008.054,0-.043-.005-.049a.334.334,0,0,0-.325-.325.327.327,0,0,0-.325.325" transform="translate(-604.105 -402.239)" fill="#180c45"/>
        <path id="Trazado_899086" data-name="Trazado 899086" d="M682.427,422.806c.039-.027.078-.052.12-.075l.056-.029s.06-.028.033-.016.051-.019.049-.018l.06-.019q.06-.018.122-.03c.007,0,.089-.013.05-.009s.029,0,.035,0c.042,0,.084,0,.126,0l.079,0c.025,0,.042,0,.007,0a1.266,1.266,0,0,1,.135.029c.037.01.074.022.111.035.006,0,.061.025.028.011s.034.017.04.02c.034.018.068.037.1.057l.049.032s.067.05.037.026.019.017.023.02l.043.039c.032.03.062.061.091.094l.037.044c-.02-.025-.013-.018,0,0,.027.04.053.081.076.123a.325.325,0,1,0,.561-.328,1.663,1.663,0,0,0-2.4-.569.325.325,0,0,0,.328.561" transform="translate(-603.522 -373.435)" fill="#180c45"/>
        <path id="Trazado_899087" data-name="Trazado 899087" d="M681.562,322.977l-.043-.077a4.5,4.5,0,0,1-.287-1.042.945.945,0,0,0-.685-.758.741.741,0,0,0-.752.685,11.051,11.051,0,0,0-5.07-1.4,6,6,0,0,0-3.31.962,3.515,3.515,0,0,0-1.254,1.579.628.628,0,0,0-.292.928c.039.052.081.1.121.154,0,.079.013.158.025.238a.664.664,0,0,0,.663.622c.017,0,.034-.005.052-.007a9.823,9.823,0,0,0,4.6,2.737c2.13.542,5.1.181,6-2.161a4.1,4.1,0,0,0,.25-1.543c.287-.335.157-.6-.02-.92" transform="translate(-592.755 -283.545)" fill="#180c45"/>
        <path id="Trazado_899088" data-name="Trazado 899088" d="M225.484,630.848l27.93-5.973,7.769-1.662c.409-.087.236-.714-.173-.627l-27.93,5.973-7.769,1.662c-.409.087-.236.714.173.627" transform="translate(-199.196 -550.989)" fill="#180c45"/>
        <path id="Trazado_899089" data-name="Trazado 899089" d="M461.425,597.135l-2.454,4.477c-.2.367.36.7.561.328l2.454-4.477c.2-.367-.36-.7-.561-.328" transform="translate(-406.157 -528.33)" fill="#180c45"/>
        <path id="Trazado_899090" data-name="Trazado 899090" d="M239.946,849.1a160.933,160.933,0,0,0,16.411-2.433c6.658-1.4,13.242-3.2,19.787-5.055,3.809-1.077,7.605-2.2,11.4-3.322a.325.325,0,0,0-.173-.627c-6.492,1.925-12.992,3.824-19.542,5.545a179.445,179.445,0,0,1-19.132,4.181c-2.907.433-5.829.753-8.752,1.06-.412.043-.416.693,0,.65" transform="translate(-212.08 -741.329)" fill="#180c45"/>
        <path id="Trazado_899091" data-name="Trazado 899091" d="M652.962,751.176c-.094,3.331-.167,6.663-.262,9.994a.325.325,0,0,0,.65,0c.094-3.331.167-6.663.262-9.994a.325.325,0,0,0-.65,0" transform="translate(-577.647 -664.522)" fill="#180c45"/>
        <path id="Trazado_899092" data-name="Trazado 899092" d="M594.871,617.447l-1.212,21.378-.335,5.908c-.024.418.626.417.65,0l1.212-21.378.335-5.908c.024-.418-.626-.417-.65,0" transform="translate(-525.098 -546.171)" fill="#180c45"/>
        <path id="Trazado_899093" data-name="Trazado 899093" d="M628.089,475.325A11.768,11.768,0,0,0,630.194,479a.327.327,0,0,0,.46,0,.332.332,0,0,0,0-.46,10.9,10.9,0,0,1-1.938-3.39c-.138-.392-.766-.223-.627.173" transform="translate(-555.849 -420.318)" fill="#180c45"/>
        <path id="Trazado_899094" data-name="Trazado 899094" d="M686.435,398.472a2.215,2.215,0,0,0-1.272-1.784c-.5-.257-1.579-.53-2.085-.111-.857.71.22,1.429.7,1.778.337.248.668.519,1.023.738a1.36,1.36,0,0,0,1.066.244.811.811,0,0,0,.573-.866" transform="translate(-604.247 -350.784)" fill="#180c45"/>
        <path id="Trazado_899095" data-name="Trazado 899095" d="M728.921,401.7c-.226-.571-1.2-.86-1.713-.889a1.9,1.9,0,0,0-1.775.824.769.769,0,0,0,.09.958,1.255,1.255,0,0,0,.955.305c.377-.008.756-.069,1.131-.108.208-.022.416-.042.624-.066a1.032,1.032,0,0,0,.432-.121.759.759,0,0,0,.255-.9" transform="translate(-641.906 -354.715)" fill="#180c45"/>
        <path id="Trazado_899096" data-name="Trazado 899096" d="M828.267,372a17.952,17.952,0,0,1,11.864-1.669,15.558,15.558,0,0,1,8.887,6.058,21.164,21.164,0,0,1,2.8,5.162c.146.388.774.22.627-.173a20.131,20.131,0,0,0-6.386-8.935,15.624,15.624,0,0,0-11.114-3.063,20.377,20.377,0,0,0-7.006,2.059c-.375.185-.046.746.328.561" transform="translate(-732.589 -326.829)" fill="#180c45"/>
        <path id="Trazado_899097" data-name="Trazado 899097" d="M500.664,1206.111q.424-9.25.408-18.512a.325.325,0,0,0-.65,0q.015,9.259-.408,18.512c-.019.418.631.417.65,0" transform="translate(-442.518 -1050.761)" fill="#614ab5"/>
        <path id="Trazado_899098" data-name="Trazado 899098" d="M1940.279,350.173c-1.7-2.807-2.449-5.99-4.795-7.511a6.347,6.347,0,0,0-6.545-.308,2.573,2.573,0,0,0-.39-.035c-3.219-.252-4.985,1.055-6.9,3.648a9.3,9.3,0,0,0-.92,1.554,4.535,4.535,0,0,0-3.665,3.71,4.861,4.861,0,0,0,0,1.374c-1.816.412-3.136,2.7-3.4,3.92a5.621,5.621,0,0,0,.42,3.8,4.072,4.072,0,0,0,.643.9,7.036,7.036,0,0,0-1,.776,4.19,4.19,0,0,0-1.532,3.485,4.079,4.079,0,0,0,2.125,3.025,5.18,5.18,0,0,0,5.285-.115,7.621,7.621,0,0,0,3.583,1.3,8.214,8.214,0,0,0,5.112-1.076,5.225,5.225,0,0,0,4.826-.4,4.021,4.021,0,0,0,1.91-2.58c3.513-.337,8.343-.81,10.87-3.507,3.944-4.209-3.425-8.309-5.635-11.96" transform="translate(-1692.307 -302.307)" fill="#180c45"/>
        <path id="Trazado_899099" data-name="Trazado 899099" d="M1959.946,1058.715a52.229,52.229,0,0,1-36.786,14.51h-10.976c1.331-12.7,7-39.492,8.3-41.75,4.838-8.389,12.688-16.369,22.708-13.763,3.489.907,11.134,3.067,15.989,15.638,2.632,6.82,2.277,16.359.767,25.365" transform="translate(-1692.307 -900.243)" fill="#a0a4ba"/>
        <path id="Trazado_899100" data-name="Trazado 899100" d="M2135.055,1039.966q.895,9.574,1.79,19.148l1.806,19.324,1,10.683c.039.413.689.417.65,0q-.9-9.574-1.79-19.148l-1.806-19.324-1-10.683c-.038-.413-.689-.417-.65,0" transform="translate(-1889.548 -920.107)" fill="#180c45"/>
        <path id="Trazado_899101" data-name="Trazado 899101" d="M2155.525,1057.8a12.708,12.708,0,0,0,4.7-4.352,10.076,10.076,0,0,0,1.709-4.836,28.128,28.128,0,0,0-.29-4.9c-.241-1.952-.564-3.892-.92-5.826-.345-1.872-.726-3.736-1.118-5.6-.086-.409-.713-.236-.627.173.716,3.4,1.4,6.818,1.885,10.264a37.79,37.79,0,0,1,.439,5.066,9.4,9.4,0,0,1-.124,1.793,9.577,9.577,0,0,1-.957,2.573,12.089,12.089,0,0,1-5.026,5.083c-.369.2-.041.758.328.561" transform="translate(-1907.232 -913.376)" fill="#180c45"/>
        <path id="Trazado_899102" data-name="Trazado 899102" d="M2016.76,999.651l-2.239-8.935s-23.3,3.883-27.563,3.964-2.01,7.633-2.01,7.633,10.61,3.987,31.812-2.661" transform="translate(-1756.177 -876.795)" fill="#a0a4ba"/>
        <path id="Trazado_899103" data-name="Trazado 899103" d="M1996.526,1071.646a93.323,93.323,0,0,0,24.171-1.718q3.261-.69,6.453-1.659c.4-.121.229-.749-.173-.627a84.792,84.792,0,0,1-23.473,3.494c-2.327.032-4.654-.018-6.978-.139-.418-.022-.417.628,0,.65" transform="translate(-1766.672 -944.862)" fill="#180c45"/>
        <path id="Trazado_899104" data-name="Trazado 899104" d="M2050.3,1190.508a130.723,130.723,0,0,0-.17,27.429q.388,3.868,1.005,7.709c.066.412.692.237.626-.173a129.529,129.529,0,0,1-1.442-27.3q.2-3.839.63-7.662c.046-.415-.6-.412-.65,0" transform="translate(-1813.821 -1053.339)" fill="#180c45"/>
        <path id="Trazado_899105" data-name="Trazado 899105" d="M1571.475,307.148c-1.282-3.1-4.25-5.067-7.223-6.354a56.931,56.931,0,0,0-12.219-3.433c-4.352-.808-8.756-1.327-13.151-1.837q-2.372-.275-4.746-.522l-4.285-5.763q-4.54-6.107-9.076-12.217c-3-4.041-5.968-8.109-9.005-12.123a67.213,67.213,0,0,0-4.516-5.485,17.56,17.56,0,0,0-4.938-3.866,9.215,9.215,0,0,0-6.092-.825,6.888,6.888,0,0,0-4.491,3.087,3.973,3.973,0,0,0-1.048,3.519,20.537,20.537,0,0,0,.476,2.462q.326,1.452.688,2.9c.92,3.69,15.283,34.712,26.585,46.206,5.9,6,12.315,6.689,20.686,6.67,1.518,0,6.2-.259,7.725-.315l1.134.1q3.828.36,7.658.7c4.277.386,9.086.686,12.67-2.136.136-.107.269-.219.4-.332a.708.708,0,0,0,1.342.242c1.487-3.259,2.882-7.16,1.429-10.678" transform="translate(-1319.242 -225.253)" fill="#c2573c"/>
        <path id="Trazado_899106" data-name="Trazado 899106" d="M1921.495,617.388q1.141-1.105,2.182-2.314a29.071,29.071,0,0,0,4.574-7.2,9.387,9.387,0,0,0,.936-4.158,7.125,7.125,0,0,0-1.553-4.022,14.409,14.409,0,0,0-7.223-4.507c-2.745-.859-10.369-1.164-13.234-1.236,0,0-7.509.719-13.836,1.513-.009.066-.935,13.334-.593,29.2,13.45-.361,19.59-3.085,28.746-7.273" transform="translate(-1675.038 -525.65)" fill="#fff"/>
        <path id="Trazado_899107" data-name="Trazado 899107" d="M1996.511,591.541c-2.853-7.62-8.829-10.812-18.025-10.593-2.385.057-15.065,1.485-15.065,1.485-2.322,4.176-7.373,44.466-7.192,46.662,19.84,5.763,43.249,2.867,43.249,2.867,0-8.087-1.19-35.677-2.966-40.421" transform="translate(-1731.281 -514.136)" fill="#fff"/>
        <path id="Trazado_899108" data-name="Trazado 899108" d="M816.493,99.767c-4.274-10.744-34.532-71.074-37.482-75.7a119.341,119.341,0,0,0-9.341-13.078c-3.162-3.734-7.154-7.27-12.15-8.078a10.448,10.448,0,0,0-5.3.452h0l-45.97,15.234,0,0a8.915,8.915,0,0,0-1.983.923,11.035,11.035,0,0,0-3.943,4.7,21.254,21.254,0,0,0-1.713,6.06.8.8,0,0,0,1,.875l19.845-6.614a43.682,43.682,0,0,1,4.809,5.533q2.417,3.19,4.651,6.515c3,4.446,5.782,9.04,8.412,13.716,4.2,7.474,8.075,15.224,11.844,22.926-.244.1-45.851,15.1-45.851,15.1h0a7.228,7.228,0,0,0-2.581,1.435,26.032,26.032,0,0,0-4.478,5.811,87.759,87.759,0,0,0-7.35,14c-.974,2.354-1.831,4.755-2.587,7.188a.763.763,0,0,0,.919.954h0l34.9-11.57c.195.4.389.808.575,1.216,3.95,8.633,6.231,17.92,10.257,26.521,3.819,8.16,9.469,16.3,18.105,19.835a19.438,19.438,0,0,0,13.807.733c.185-.067.365-.142.546-.216l45.221-14.958c.187-.06.375-.117.561-.184a16.106,16.106,0,0,0,9.124-9.1c4.226-10-.09-20.814-3.836-30.229" transform="translate(-607.366 -2.439)" fill="#fff"/>
        <path id="Trazado_899109" data-name="Trazado 899109" d="M867.464,14.948A65.134,65.134,0,0,0,860,5.727,19.626,19.626,0,0,0,851.18.374a11.3,11.3,0,0,0-6.555.232l.316.543h0c.184-.23.023-.656-.316-.543l-2.962.982L834.14,4.08,824.1,7.407,813.589,10.89l-8.913,2.954-5.34,1.77c-.382.126-.787.256-1.095.372a11.044,11.044,0,0,0-6.049,6.393,22.006,22.006,0,0,0-1.362,5.075c-.09.576-.079,1.135.495,1.452a1.229,1.229,0,0,0,.875.113c.675-.169,1.341-.447,2-.667l9.55-3.183,7.843-2.614.433-.144-.316-.084a60.762,60.762,0,0,1,7.591,9.346c.239.339.8.015.561-.328a61.639,61.639,0,0,0-7.693-9.478.325.325,0,0,0-.316-.083l-5.63,1.876-10,3.332L792.8,28.135c-.24.08-.484.185-.73.243a.555.555,0,0,1-.454-.056c-.316-.205-.173-.61-.123-.918q.109-.669.25-1.331c.653-3.054,1.935-6.21,4.449-8.2a8.347,8.347,0,0,1,2.154-1.232c.17-.066.348-.117.517-.187.255-.106-.051-.017-.035.014,0,0,.02-.007.021-.007a1.106,1.106,0,0,0,.322-.107l4.56-1.511,8.346-2.766,10.2-3.379L832.42,5.334,840.5,2.656l4.115-1.364.183-.06-.316-.543h0c-.18.225-.023.666.316.543,3.525-1.276,7.362-.309,10.477,1.572a30.2,30.2,0,0,1,7.537,7.028c1.435,1.76,2.788,3.585,4.092,5.444.238.34.8.016.561-.328" transform="translate(-699.858 0)" fill="#180c45"/>
        <path id="Trazado_899110" data-name="Trazado 899110" d="M826.283,742.149a10.086,10.086,0,0,1,5.992-.818A9.708,9.708,0,0,1,836.9,743.9a20.308,20.308,0,0,1,3.167,4.058c1.046,1.67,1.98,3.411,2.857,5.175.885,1.781,1.714,3.592,2.471,5.432.157.381.786.214.627-.173a72.342,72.342,0,0,0-5.269-10.561c-1.884-3.047-4.344-6.136-7.987-7.05a10.691,10.691,0,0,0-6.81.811c-.383.164-.053.724.328.561" transform="translate(-730.829 -655.372)" fill="#180c45"/>
        <path id="Trazado_899111" data-name="Trazado 899111" d="M1251.113,696.877a17.166,17.166,0,0,0,7.747-10.964c1.306-5.226.56-10.622-1.078-15.686-1.866-5.769-4.7-11.21-7.272-16.682l-8.068-17.14-8.035-17.07-.977-2.076c-.178-.378-.738-.049-.561.328l7.874,16.728,7.918,16.821,3.873,8.228c1.275,2.71,2.547,5.426,3.623,8.223,1.951,5.07,3.317,10.569,2.5,16.022-.672,4.489-2.715,9-6.429,11.767a14.137,14.137,0,0,1-1.443.94.325.325,0,0,0,.328.561" transform="translate(-1091.073 -546.133)" fill="#180c45"/>
        <path id="Trazado_899112" data-name="Trazado 899112" d="M845,139.052a10.994,10.994,0,0,1,7.991.288c2.435,1.1,4.32,2.985,6.272,4.758.309.281.77-.178.459-.46-2.05-1.862-4.041-3.851-6.628-4.958a11.666,11.666,0,0,0-8.267-.255c-.394.134-.225.762.173.627" transform="translate(-747.488 -121.947)" fill="#180c45"/>
        <path id="Trazado_899113" data-name="Trazado 899113" d="M1049.479,97.073c4.726-1.591,9.44-3.219,14.194-4.727q2.563-.813,5.131-1.608c.4-.124.228-.751-.173-.627q-7.112,2.212-14.166,4.593-2.579.874-5.158,1.743c-.394.133-.225.761.173.627" transform="translate(-928.45 -79.735)" fill="#180c45"/>
        <path id="Trazado_899114" data-name="Trazado 899114" d="M1099.6,142.563c7.4-2.493,14.811-4.983,22.251-7.369q3.133-1.005,6.275-1.984c.4-.124.228-.751-.173-.627-7.439,2.315-14.837,4.759-22.224,7.234q-3.152,1.056-6.3,2.118c-.394.133-.225.761.173.627" transform="translate(-972.806 -117.323)" fill="#180c45"/>
        <path id="Trazado_899115" data-name="Trazado 899115" d="M1149.716,231.5c5.071-1.708,10.132-3.447,15.232-5.068q2.636-.838,5.279-1.657c.4-.124.228-.751-.173-.627q-7.634,2.375-15.2,4.933-2.653.9-5.306,1.792c-.394.133-.225.761.173.627" transform="translate(-1017.161 -198.36)" fill="#180c45"/>
        <path id="Trazado_899116" data-name="Trazado 899116" d="M1194.665,292.611c7.4-2.493,14.811-4.983,22.251-7.369q3.133-1.005,6.275-1.984c.4-.124.228-.751-.173-.627-7.439,2.315-14.837,4.759-22.224,7.234q-3.152,1.056-6.3,2.118c-.394.133-.225.761.173.627" transform="translate(-1056.941 -250.118)" fill="#180c45"/>
        <path id="Trazado_899117" data-name="Trazado 899117" d="M1239.613,373.949c7.4-2.493,14.811-4.983,22.251-7.369q3.133-1.005,6.275-1.984c.4-.124.228-.751-.173-.627-7.439,2.315-14.837,4.759-22.224,7.234q-3.152,1.056-6.3,2.118c-.394.133-.225.761.173.627" transform="translate(-1096.721 -322.103)" fill="#180c45"/>
        <path id="Trazado_899118" data-name="Trazado 899118" d="M1281.885,456.673c7.4-2.493,14.811-4.983,22.251-7.369q3.133-1.005,6.275-1.984c.4-.124.228-.751-.173-.627-7.439,2.315-14.837,4.759-22.224,7.234q-3.152,1.057-6.3,2.119c-.394.133-.225.761.173.627" transform="translate(-1134.132 -395.315)" fill="#180c45"/>
        <path id="Trazado_899119" data-name="Trazado 899119" d="M1321.243,559.886c5.116-1.723,10.222-3.476,15.367-5.112q2.646-.841,5.3-1.663c.4-.124.228-.751-.173-.627q-7.7,2.4-15.34,4.977-2.662.9-5.325,1.8c-.394.133-.225.76.173.627" transform="translate(-1168.965 -488.941)" fill="#180c45"/>
        <path id="Trazado_899120" data-name="Trazado 899120" d="M1360.334,623.061c7.4-2.493,14.811-4.983,22.251-7.369q3.133-1.005,6.275-1.984c.4-.124.228-.751-.173-.627-7.439,2.315-14.837,4.759-22.224,7.234q-3.152,1.056-6.3,2.118c-.394.133-.225.76.173.627" transform="translate(-1203.56 -542.57)" fill="#180c45"/>
        <path id="Trazado_899121" data-name="Trazado 899121" d="M1405.04,704.4c7.4-2.493,14.811-4.983,22.251-7.369q3.133-1.005,6.275-1.984c.4-.124.228-.751-.173-.627-7.439,2.315-14.837,4.759-22.224,7.234q-3.152,1.056-6.3,2.118c-.394.133-.225.76.173.627" transform="translate(-1243.126 -614.555)" fill="#180c45"/>
        <path id="Trazado_899122" data-name="Trazado 899122" d="M1438.623,791.437c7.4-2.493,14.811-4.983,22.251-7.369q3.134-1.005,6.275-1.984c.4-.124.228-.751-.173-.627-7.439,2.315-14.837,4.759-22.224,7.234q-3.152,1.056-6.3,2.118c-.394.133-.225.761.173.627" transform="translate(-1272.847 -691.585)" fill="#180c45"/>
        <path id="Trazado_899123" data-name="Trazado 899123" d="M1472.819,873.085c7.4-2.493,14.812-4.983,22.251-7.369q3.133-1.005,6.275-1.984c.4-.124.228-.751-.173-.627-7.439,2.315-14.837,4.759-22.224,7.234q-3.152,1.056-6.3,2.118c-.394.133-.225.76.173.627" transform="translate(-1303.111 -763.844)" fill="#180c45"/>
        <path id="Trazado_899124" data-name="Trazado 899124" d="M1147.351,817.16c5.014-1.688,10.017-3.409,15.059-5.011q2.624-.834,5.254-1.649c.4-.124.228-.751-.173-.627q-7.547,2.348-15.031,4.876-2.64.893-5.281,1.784c-.394.133-.225.761.173.627" transform="translate(-1015.068 -716.733)" fill="#180c45"/>
        <path id="Trazado_899125" data-name="Trazado 899125" d="M1127.838,900.07c6.9-2.323,13.8-4.65,20.731-6.871q3.026-.969,6.059-1.913c.4-.124.228-.751-.173-.627-6.93,2.156-13.823,4.427-20.7,6.736q-3.044,1.022-6.087,2.048c-.394.133-.225.761.173.627" transform="translate(-997.799 -788.23)" fill="#180c45"/>
        <path id="Trazado_899126" data-name="Trazado 899126" d="M1162.034,980.215c7.055-2.375,14.11-4.752,21.2-7.024q3.059-.98,6.126-1.935c.4-.124.228-.751-.173-.627-7.087,2.2-14.135,4.529-21.172,6.889q-3.077,1.033-6.153,2.069c-.394.133-.225.761.173.627" transform="translate(-1028.062 -859.004)" fill="#180c45"/>
        <path id="Trazado_899127" data-name="Trazado 899127" d="M1273.675,1059.172c4.534-1.527,9.055-3.093,13.616-4.538q2.522-.8,5.049-1.582c.4-.124.228-.751-.173-.627q-6.822,2.122-13.588,4.4-2.537.861-5.076,1.716c-.394.133-.225.76.173.627" transform="translate(-1126.866 -931.395)" fill="#180c45"/>
        <path id="Trazado_899128" data-name="Trazado 899128" d="M1053.524,737.249c6.863-2.311,13.724-4.626,20.62-6.834q3.018-.967,6.044-1.908c.4-.124.228-.751-.173-.627-6.893,2.145-13.749,4.4-20.593,6.7q-3.036,1.019-6.071,2.043c-.394.133-.225.761.173.627" transform="translate(-932.03 -644.168)" fill="#180c45"/>
        <path id="Trazado_899129" data-name="Trazado 899129" d="M1000.772,655.866c7.338-2.471,14.677-4.938,22.049-7.3q3.119-1,6.247-1.974c.4-.124.228-.751-.173-.627-7.371,2.294-14.7,4.715-22.022,7.168q-3.138,1.052-6.274,2.109c-.394.133-.225.76.173.627" transform="translate(-885.344 -571.67)" fill="#180c45"/>
        <path id="Trazado_899130" data-name="Trazado 899130" d="M1500.956,962.94c7.4-2.493,14.811-4.983,22.251-7.369q3.133-1.005,6.275-1.984c.4-.124.228-.751-.173-.627-7.439,2.315-14.837,4.759-22.224,7.234q-3.152,1.057-6.3,2.119c-.394.133-.225.76.173.627" transform="translate(-1328.012 -843.367)" fill="#180c45"/>
        <path id="Trazado_899131" data-name="Trazado 899131" d="M1597.231,716.485a13.863,13.863,0,0,0-11.865-3.626,14.74,14.74,0,0,0-6.364,3.078c-.362,1.222-4.508,17.183-5.787,22.33-2.512-.7-28.842-11.359-28.9-11.38a34.456,34.456,0,0,0-9.395-1.621,88.373,88.373,0,0,0-8.836.159q-1.087.041-2.173.1a10.679,10.679,0,0,0-1.9.191,2.583,2.583,0,0,0-1.455.823,2.053,2.053,0,0,0-.3,1.924,3.71,3.71,0,0,0,2.734,2.2,33.485,33.485,0,0,0,5.357.745c-2.8.78-3.258,3.111-2.987,4.074a2.867,2.867,0,0,0,1.241,1.632,4.017,4.017,0,0,0-.428,1.315c-.285,2.317,1.847,3.7,2.451,3.95-.072,6.28,10.025,6.341,10.34,4.517,1.634.749,23.351,9.9,26.955,11.075,8.415,2.754,15.883,4.143,21.588-.892,5.285-4.665,6.3-14.669,8.1-21.268,1.419-5.206,4.662-8.935,5.562-14.258a18.244,18.244,0,0,0-3.942-5.064" transform="translate(-1345.349 -630.678)" fill="#c2573c"/>
        <path id="Trazado_899132" data-name="Trazado 899132" d="M1595.491,947.351a5.063,5.063,0,0,0-4.949,2.536c-.187.373.374.7.561.328a4.435,4.435,0,0,1,4.388-2.214c.417.031.415-.619,0-.65" transform="translate(-1407.615 -838.403)" fill="#180c45"/>
        <path id="Trazado_899133" data-name="Trazado 899133" d="M1581.174,896.864a5.8,5.8,0,0,0-5.732,3.113c-.185.373.375.7.561.328a5.17,5.17,0,0,1,5.171-2.791c.415.049.411-.6,0-.65" transform="translate(-1394.252 -793.704)" fill="#180c45"/>
        <path id="Trazado_899134" data-name="Trazado 899134" d="M1592.447,870.219a7.563,7.563,0,0,0-3.61.236.325.325,0,0,0,.173.627,8.753,8.753,0,0,1,1.631-.3,5.4,5.4,0,0,1,1.634.064c.407.091.581-.535.173-.627" transform="translate(-1405.937 -770.042)" fill="#180c45"/>
        <path id="Trazado_899135" data-name="Trazado 899135" d="M1646.611,988.694l4,2.042c.372.19.7-.371.328-.561l-4-2.042c-.372-.19-.7.371-.328.561" transform="translate(-1457.125 -874.475)" fill="#180c45"/>
        <path id="Trazado_899136" data-name="Trazado 899136" d="M1535.806,313.81c-1.141-.076-2.3-.027-3.441-.014l-3.425.04a11.272,11.272,0,0,0-3.278.225,2.151,2.151,0,0,0-1.572,2.176,3.251,3.251,0,0,0,1.474,2.335,6.311,6.311,0,0,0,2.9.965,58.269,58.269,0,0,0,8.98-.038c.582-.045-1.322-5.667-1.641-5.689" transform="translate(-1348.833 -277.689)" fill="#c2573c"/>
        <path id="Trazado_899137" data-name="Trazado 899137" d="M2025.028,618.853a20.863,20.863,0,0,0-1.717-4.541c-2.211-4.224-7-9.055-12.234-7.361a14.409,14.409,0,0,0-6.674,5.285,25.93,25.93,0,0,0-4.048,7.58,168.408,168.408,0,0,0-4.35,18.21c7.353,3.352,22.563,9.59,27.137,10.619.53.119,2.586-16.947,2.674-18.508a37.422,37.422,0,0,0-.788-11.284" transform="translate(-1766.488 -536.852)" fill="#fff"/>
        <path id="Trazado_899138" data-name="Trazado 899138" d="M1993.949,746.267l2.654-13.721.613-3.171c.079-.409-.547-.584-.627-.173l-2.654,13.721-.613,3.171c-.079.409.547.583.627.173" transform="translate(-1764.108 -645.145)" fill="#180c45"/>
        <path id="Trazado_899139" data-name="Trazado 899139" d="M1970.4,782.23l1.722-8.9c.079-.409-.547-.584-.627-.173l-1.722,8.9c-.079.409.547.584.626.173" transform="translate(-1743.269 -684.043)" fill="#180c45"/>
        <path id="Trazado_899140" data-name="Trazado 899140" d="M2235.126,782.481c1.472-6.262,2.616-12.588,3.828-18.9q.535-2.79,1.107-5.573c.084-.408-.542-.583-.627-.173-1.289,6.241-2.358,12.525-3.665,18.762q-.6,2.864-1.269,5.713c-.1.407.531.58.626.173" transform="translate(-1977.55 -670.484)" fill="#180c45"/>
        <path id="Trazado_899141" data-name="Trazado 899141" d="M2005.252,826.72a152.713,152.713,0,0,0,21.531,8.792c2.042.645,4.1,1.246,6.163,1.815a.325.325,0,0,0,.173-.627,147.676,147.676,0,0,1-21.146-7.525q-3.226-1.444-6.393-3.016c-.374-.184-.7.376-.328.561" transform="translate(-1774.525 -731.128)" fill="#180c45"/>
        <path id="Trazado_899142" data-name="Trazado 899142" d="M1936.046,630.269q-.1-11.172.4-22.338.141-3.154.329-6.306c.025-.418-.625-.416-.65,0q-.665,11.152-.736,22.329-.02,3.157.009,6.315a.325.325,0,0,0,.65,0" transform="translate(-1712.834 -532.168)" fill="#180c45"/>
        <path id="Trazado_899143" data-name="Trazado 899143" d="M2053.908,582.106a4.493,4.493,0,0,0-.8,3.841,3,3,0,0,0,1.832,1.864,7.476,7.476,0,0,0,4.827-.393,14.387,14.387,0,0,0,7.354-5.811c.226-.353-.336-.679-.561-.328a13.773,13.773,0,0,1-5.993,5.128,10.132,10.132,0,0,1-4.144,1,2.764,2.764,0,0,1-2.5-1.236c-.71-1.224-.159-2.654.547-3.74.229-.352-.334-.678-.561-.328" transform="translate(-1816.875 -514.305)" fill="#180c45"/>
        <path id="Trazado_899144" data-name="Trazado 899144" d="M1995.809,363.577c3.08-1.485,4.571-6.145,5.828-9.2.771-1.873,2.752-1.917,3.415-3.893,1.292-3.851.553-9.082-2.786-11.582a9.1,9.1,0,0,0-8.5-1.508,8.642,8.642,0,0,0-4.827,4.25,12.179,12.179,0,0,0-1.146,6.881,13.64,13.64,0,0,0,.458,2.331c-.058.355-.114.71-.165,1.066q-.326,2.294-.459,4.612c-.281,4.908,2.7,9.683,8.177,7.041" transform="translate(-1759.062 -298.188)" fill="#c2573c"/>
        <path id="Trazado_899145" data-name="Trazado 899145" d="M2039.262,460.292l3.874,12.877s5.117,2.515,8.84-2.828l-5.544-14.381Z" transform="translate(-1804.771 -403.53)" fill="#c2573c"/>
        <path id="Trazado_899146" data-name="Trazado 899146" d="M2012.209,516.772a3.708,3.708,0,0,1-.605-.639c1.365-.331,2.751-.7,4.108-1.035-.153,1.058-.671,2.1-1.76,2.223a2.358,2.358,0,0,1-1.742-.549" transform="translate(-1780.293 -455.868)" fill="#180c45"/>
        <path id="Trazado_899147" data-name="Trazado 899147" d="M2003.763,346.555a4.554,4.554,0,0,0-1.587-.942,8.52,8.52,0,0,0-.888-.26c-.089-.021-.179-.037-.268-.055.012-.018.023-.036.033-.053a5.414,5.414,0,0,0,.332-.689,5.86,5.86,0,0,0,.4-1.619,5.129,5.129,0,0,0-.656-3.084,4.38,4.38,0,0,0-3.708-2.109,4.928,4.928,0,0,0-.689-4.288,4.774,4.774,0,0,0-4.668-1.635,6.045,6.045,0,0,0-2.2-2.191,11.665,11.665,0,0,0-16.348,5.266c-.446,1.04-1.431,4.294-1.431,4.294a22.921,22.921,0,0,0,6.523.276c.021-.747.181-3.446.943-4.628a21.827,21.827,0,0,1,1.305,4.487c.769-.057,1.657-.12,2.6-.2a12.26,12.26,0,0,0,2.728,4.586c.053,1.179.276,2.387.342,3.737.212,4.307,1.14,6.827,4.714,7.865a8.864,8.864,0,0,0,6.206-.708,8.124,8.124,0,0,0,1.561-1.049c.3,0,.6-.015.914-.037,2.432-.169,4.8-1.731,5.023-4.1a3.541,3.541,0,0,0-1.175-2.865" transform="translate(-1745.315 -290.385)" fill="#180c45"/>
        <path id="Trazado_899148" data-name="Trazado 899148" d="M2067.963,458.018a3.283,3.283,0,1,0,4.634.285,3.283,3.283,0,0,0-4.634-.285" transform="translate(-1829.191 -404.622)" fill="#c2573c"/>
        <path id="Trazado_899149" data-name="Trazado 899149" d="M1975.972,439.721a1.69,1.69,0,0,1,.545-.76,3.489,3.489,0,0,1,1.962-.85,1.551,1.551,0,0,1,.947.432,1.1,1.1,0,0,1,.309,1.068,1.342,1.342,0,0,1-.827.747l-.745.364-.755.369a1.409,1.409,0,0,1-.611.194.87.87,0,0,1-.764-.444,1.329,1.329,0,0,1-.061-1.12" transform="translate(-1748.675 -387.729)" fill="#180c45"/>
        <path id="Trazado_899150" data-name="Trazado 899150" d="M2031.671,438.352a.87.87,0,0,1-.548.693,1.409,1.409,0,0,1-.639.044l-.838-.066-.827-.066a1.343,1.343,0,0,1-1.043-.392,1.1,1.1,0,0,1-.1-1.107,1.552,1.552,0,0,1,.723-.749,3.488,3.488,0,0,1,2.137.071,1.689,1.689,0,0,1,.785.507,1.329,1.329,0,0,1,.354,1.065" transform="translate(-1794.424 -386.364)" fill="#180c45"/>
        <path id="Trazado_899151" data-name="Trazado 899151" d="M2101.731,472.42a2.286,2.286,0,0,0-.5-2.427.325.325,0,0,0-.459.46c.033.033.066.067.1.1l.04.048c.033.041-.024-.034.006.009a1.99,1.99,0,0,1,.14.225c.012.023.024.046.035.069,0,.005.028.06.016.032s.011.028.013.033.015.039.021.058a2,2,0,0,1,.073.271c0,.02.007.041.011.061.01.053,0-.047,0,.006s.009.093.011.14a2,2,0,0,1-.005.265c0,.006-.006.068,0,.034s0,.028-.005.034c-.008.046-.017.092-.029.138a1.912,1.912,0,0,1-.088.268.326.326,0,0,0,.227.4.335.335,0,0,0,.4-.227" transform="translate(-1859.121 -415.868)" fill="#180c45"/>
        <path id="Trazado_899152" data-name="Trazado 899152" d="M1992.876,464.068c-1.13-.119-1.179,1.385-1.054,2.007.081.4.3.893.808.94.747.068.917-.854.954-1.354.041-.557.033-1.515-.708-1.593" transform="translate(-1762.744 -410.7)" fill="#180c45"/>
        <path id="Trazado_899153" data-name="Trazado 899153" d="M2032.436,464.068c-1.13-.119-1.179,1.385-1.054,2.007.081.4.3.893.808.94.747.068.917-.854.954-1.354.041-.557.033-1.515-.708-1.593" transform="translate(-1797.755 -410.7)" fill="#180c45"/>
        <path id="Trazado_899154" data-name="Trazado 899154" d="M2061.484,551a13.981,13.981,0,0,0,2.338-1.779.325.325,0,0,0-.459-.459,13.118,13.118,0,0,1-2.207,1.677.325.325,0,0,0,.328.561" transform="translate(-1824.007 -485.576)" fill="#180c45"/>
        <path id="Trazado_899155" data-name="Trazado 899155" d="M2164.9,949.932c2.617.869,5.268,1.642,7.912,2.423a.325.325,0,0,0,.173-.627c-2.644-.781-5.3-1.553-7.912-2.423-.4-.132-.568.5-.173.627" transform="translate(-1915.763 -840.13)" fill="#180c45"/>
        <path id="Trazado_899156" data-name="Trazado 899156" d="M1559.089,308.819l5.8-.249c.417-.018.419-.668,0-.65l-5.8.249c-.417.018-.419.668,0,.65" transform="translate(-1379.535 -272.513)" fill="#180c45"/>
        <path id="Trazado_899157" data-name="Trazado 899157" d="M1587.636,366.553a8.624,8.624,0,0,0,4.661,1.359.325.325,0,0,0,0-.65,7.989,7.989,0,0,1-4.333-1.271c-.353-.227-.679.336-.328.561" transform="translate(-1404.943 -323.86)" fill="#180c45"/>
        <path id="Trazado_899158" data-name="Trazado 899158" d="M2004.518,477.707a2.43,2.43,0,0,0-1.382,2.123,1.352,1.352,0,0,0,.671,1.038,2.713,2.713,0,0,0,1.187.3.325.325,0,0,0,0-.65c-.5-.035-1.177-.165-1.216-.776-.043-.676.568-1.138,1.068-1.475a.333.333,0,0,0,.117-.445.328.328,0,0,0-.445-.117" transform="translate(-1772.79 -422.736)" fill="#180c45"/>
      </g>
    </g>
    <rect id="Rectángulo_404682" data-name="Rectángulo 404682" width="315" height="182" transform="translate(369.99 3672)" fill="none"/>
  </g>
</svg>
