<svg xmlns="http://www.w3.org/2000/svg" xmlns:xlink="http://www.w3.org/1999/xlink" width="315" height="182" viewBox="0 0 315 182">
  <defs>
    <clipPath id="clip-path">
      <rect id="Rectángulo_404679" data-name="Rectángulo 404679" width="254.773" height="163.144" transform="translate(0 0)" fill="none"/>
    </clipPath>
  </defs>
  <g id="_65" data-name="65" transform="translate(-894.99 -3672)">
    <g id="Grupo_1108889" data-name="Grupo 1108889" transform="translate(929.99 3684.924)">
      <g id="Grupo_1108888" data-name="Grupo 1108888" transform="translate(0 0.005)" clip-path="url(#clip-path)">
        <path id="Trazado_898964" data-name="Trazado 898964" d="M254.662,122.691c-.742-15.483-5.246-30.527-15.467-42.222-11.659-13.341-29.879-20.231-46.514-16.158-17.606,4.311-33.6,19.956-51.249,15.858-11.881-2.758-18.672-13.531-28.223-20.424-9.431-6.807-21.091-9.72-32.377-9.371-22.39.691-45.412,11.208-61.12,28.355-20.877,22.79-26.914,64.858-9.6,90C27,193.231,62.075,207.913,95.577,207.913c14.638,0,33.243-.055,36.873,0,15.623.238,35.238-2.356,47.4-4.814,31.693-6.4,71.762-39.979,74.316-64.389a105.712,105.712,0,0,0,.491-16.019" transform="translate(0 -44.784)" fill="#fae4d4"/>
        <path id="Trazado_898965" data-name="Trazado 898965" d="M829.371,100.171H757.06a3.857,3.857,0,0,1-3.857-3.857V7.02a3.857,3.857,0,0,1,3.857-3.857h72.311a3.857,3.857,0,0,1,3.857,3.857V96.314a3.857,3.857,0,0,1-3.857,3.857" transform="translate(-669.987 -2.814)" fill="#fff"/>
        <path id="Trazado_898966" data-name="Trazado 898966" d="M750.758,5.279a8.446,8.446,0,0,1,.066-1.643,3.678,3.678,0,0,1,1.327-2.168,3.736,3.736,0,0,1,2.33-.774c.541,0,1.083,0,1.624,0h69.929c.137,0,.273,0,.41,0a3.69,3.69,0,0,1,3.263,1.992,7.631,7.631,0,0,1,.393,3.489v25.75a.341.341,0,0,0,.682,0V4.518a4.395,4.395,0,0,0-4.33-4.505c-1.5-.018-2.993,0-4.489,0H754.853c-.145,0-.29,0-.434,0a4.319,4.319,0,0,0-4.3,3.754,11.615,11.615,0,0,0-.04,1.513.341.341,0,0,0,.682,0" transform="translate(-667.201 -0.004)" fill="#180c45"/>
        <path id="Trazado_898967" data-name="Trazado 898967" d="M753.724,101.634h79.3a.341.341,0,0,0,0-.682h-79.3a.341.341,0,0,0,0,.682" transform="translate(-670.157 -89.799)" fill="#180c45"/>
        <path id="Trazado_898968" data-name="Trazado 898968" d="M1303.224,36.2a2.45,2.45,0,1,1-2.45-2.45,2.45,2.45,0,0,1,2.45,2.45" transform="translate(-1154.882 -30.018)" fill="#4050ff"/>
        <path id="Trazado_898969" data-name="Trazado 898969" d="M1382.245,36.2a2.45,2.45,0,1,1-2.45-2.45,2.45,2.45,0,0,1,2.45,2.45" transform="translate(-1225.172 -30.018)" fill="#4050ff"/>
        <path id="Trazado_898970" data-name="Trazado 898970" d="M930.784,346.556l22.59,3.911a22.926,22.926,0,1,1-22.59-26.837q1.07,0,2.137.1Z" transform="translate(-807.555 -287.875)" fill="#d5dbe8"/>
        <path id="Trazado_898971" data-name="Trazado 898971" d="M1136.531,387.012l15.75-16.66a22.935,22.935,0,0,1,7.176,16.66q0,.287-.007.575Z" transform="translate(-1010.964 -329.435)" fill="#ffb43b"/>
        <path id="Trazado_898972" data-name="Trazado 898972" d="M1060.74,196.335h14.518a.341.341,0,0,0,0-.682H1060.74a.341.341,0,0,0,0,.682" transform="translate(-943.253 -174.037)" fill="#180c45"/>
        <path id="Trazado_898973" data-name="Trazado 898973" d="M866.867,196.335H884a.341.341,0,0,0,0-.682H866.867a.341.341,0,0,0,0,.682" transform="translate(-770.8 -174.037)" fill="#180c45"/>
        <path id="Trazado_898974" data-name="Trazado 898974" d="M866.867,238.538h11.662a.341.341,0,0,0,0-.682H866.867a.341.341,0,0,0,0,.682" transform="translate(-770.8 -211.578)" fill="#180c45"/>
        <path id="Trazado_898975" data-name="Trazado 898975" d="M1132.336,315.942l4.395-22.5a22.921,22.921,0,0,1,9.407,4.195Z" transform="translate(-1007.233 -261.021)" fill="#0c826a"/>
        <path id="Trazado_898976" data-name="Trazado 898976" d="M1711.44,270.786,1660.4,247.631c-1.557-.706-2.819-3.061-2.819-5.259V153.324c0-2.2,1.262-3.408,2.819-2.7l51.036,23.156c1.557.706,2.819,3.061,2.819,5.259v89.047c0,2.2-1.262,3.408-2.819,2.7" transform="translate(-1474.45 -133.802)" fill="#fff"/>
        <path id="Trazado_898977" data-name="Trazado 898977" d="M2075,1097.96v10.748c0,1.328.364,4.081-1.329,4.466a2.908,2.908,0,0,1-1.755-.477l-2.691-1.221-5.187-2.353c-.4-.18-.744.408-.344.589l4.591,2.083,3,1.359a7.762,7.762,0,0,0,1.708.694c1.588.284,2.491-1.179,2.656-2.564a14.09,14.09,0,0,0,.038-1.65V1097.96a.341.341,0,0,0-.682,0" transform="translate(-1835.531 -976.361)" fill="#180c45"/>
        <path id="Trazado_898978" data-name="Trazado 898978" d="M1655.149,153.443v-2.5c0-1,.118-2.581,1.329-2.857a3.2,3.2,0,0,1,1.885.535l2.886,1.309,2.016.915c.4.18.744-.408.344-.589L1658.651,148a3.815,3.815,0,0,0-2.274-.6c-1.451.282-1.9,1.956-1.911,3.225-.009.936,0,1.873,0,2.81a.341.341,0,0,0,.682,0" transform="translate(-1471.673 -131.092)" fill="#180c45"/>
        <path id="Trazado_898979" data-name="Trazado 898979" d="M1656.848,240.215l21.884,9.929,21.937,9.953,12.339,5.6c.4.18.744-.408.344-.589l-21.884-9.929-21.937-9.953-12.339-5.6c-.4-.18-.744.408-.344.589" transform="translate(-1473.637 -213.122)" fill="#180c45"/>
        <path id="Trazado_898980" data-name="Trazado 898980" d="M2047.107,355.771c0,1.353-.777,2.1-1.735,1.663a3.741,3.741,0,0,1-1.735-3.237c0-1.353.777-2.1,1.735-1.663a3.74,3.74,0,0,1,1.735,3.237" transform="translate(-1817.85 -313.475)" fill="#4050ff"/>
        <path id="Trazado_898981" data-name="Trazado 898981" d="M2103.07,381.162c0,1.353-.777,2.1-1.735,1.663a3.739,3.739,0,0,1-1.735-3.237c0-1.353.777-2.1,1.735-1.663a3.741,3.741,0,0,1,1.735,3.237" transform="translate(-1867.63 -336.061)" fill="#4050ff"/>
        <path id="Trazado_898982" data-name="Trazado 898982" d="M2001.732,496.825l-12.135-5.506c-.4-.18-.744.408-.345.589l12.135,5.506c.4.18.744-.408.344-.589" transform="translate(-1769.316 -437.007)" fill="#180c45"/>
        <path id="Trazado_898983" data-name="Trazado 898983" d="M2032.943,553.19l-8.259-3.747c-.4-.18-.744.408-.344.589l8.259,3.747c.4.18.744-.408.344-.589" transform="translate(-1800.527 -488.71)" fill="#180c45"/>
        <path id="Trazado_898984" data-name="Trazado 898984" d="M1741.71,529.812l-9.04-4.1v-51.1c0-1.131.649-1.753,1.45-1.389l6.14,2.786a3.125,3.125,0,0,1,1.45,2.7Z" transform="translate(-1541.24 -420.846)" fill="#4050ff"/>
        <path id="Trazado_898985" data-name="Trazado 898985" d="M1933.435,645.31l-9.04-4.1v-47.56c0-1.131.649-1.753,1.45-1.389l6.14,2.786a3.125,3.125,0,0,1,1.45,2.7Z" transform="translate(-1711.782 -526.734)" fill="#4050ff"/>
        <path id="Trazado_898986" data-name="Trazado 898986" d="M1837.573,708.54l-9.04-4.1v-34.3c0-1.131.649-1.753,1.45-1.389l6.14,2.786a3.126,3.126,0,0,1,1.45,2.7Z" transform="translate(-1626.512 -594.769)" fill="#ff5c33"/>
        <path id="Trazado_898987" data-name="Trazado 898987" d="M2029.3,848.512l-9.04-4.1V816.687c0-1.131.649-1.753,1.449-1.389l6.14,2.786a3.125,3.125,0,0,1,1.45,2.7Z" transform="translate(-1797.054 -725.13)" fill="#ff5c33"/>
        <path id="Trazado_898988" data-name="Trazado 898988" d="M176.539,331.646l-51.172,22.678c-1.561.692-2.826-.529-2.826-2.728V262.549c0-2.2,1.265-4.541,2.826-5.233l51.172-22.678c1.561-.692,2.826.53,2.826,2.728v89.047c0,2.2-1.265,4.541-2.826,5.233" transform="translate(-109.001 -208.543)" fill="#fff"/>
        <path id="Trazado_898989" data-name="Trazado 898989" d="M132.414,1176.587l-4.8,2.129c-1.718.761-3.421,1.58-5.161,2.287a1.439,1.439,0,0,1-1.572-.189,3.021,3.021,0,0,1-.759-2.239c0-.485,0-.969,0-1.454v-12.65a.341.341,0,0,0-.682,0v12.377c0,.569,0,1.138,0,1.707.011,1.368.556,3.151,2.172,3.279a4.516,4.516,0,0,0,2.075-.636l3.149-1.4,5.928-2.627c.4-.177.054-.766-.344-.589" transform="translate(-106.238 -1035.525)" fill="#180c45"/>
        <path id="Trazado_898990" data-name="Trazado 898990" d="M122.147,349.416l21.942-9.724,22-9.748,12.372-5.483c.4-.178.054-.766-.344-.589L156.171,333.6l-22,9.748L121.8,348.827c-.4.177-.054.766.344.589" transform="translate(-108.188 -288.061)" fill="#180c45"/>
        <path id="Trazado_898991" data-name="Trazado 898991" d="M513.1,305.576a3.7,3.7,0,0,1-1.74,3.221c-.961.426-1.739-.326-1.739-1.679a3.7,3.7,0,0,1,1.739-3.221c.961-.426,1.74.326,1.74,1.679" transform="translate(-453.32 -270.216)" fill="#4050ff"/>
        <path id="Trazado_898992" data-name="Trazado 898992" d="M569.216,280.709a3.7,3.7,0,0,1-1.739,3.221c-.961.426-1.74-.326-1.74-1.679a3.7,3.7,0,0,1,1.74-3.221c.961-.426,1.739.326,1.739,1.679" transform="translate(-503.233 -248.096)" fill="#4050ff"/>
        <path id="Trazado_898993" data-name="Trazado 898993" d="M467.264,426.315,455.1,431.707c-.4.178-.054.766.344.589l12.168-5.392c.4-.178.054-.766-.344-.589" transform="translate(-404.657 -379.186)" fill="#180c45"/>
        <path id="Trazado_898994" data-name="Trazado 898994" d="M498.559,468.518l-8.281,3.67c-.4.178-.054.766.344.589l8.281-3.67c.4-.178.054-.766-.344-.589" transform="translate(-435.952 -416.726)" fill="#180c45"/>
        <path id="Trazado_898995" data-name="Trazado 898995" d="M209.995,672.5v55.612a.341.341,0,0,0,.682,0V672.5a.341.341,0,0,0-.682,0" transform="translate(-186.794 -597.908)" fill="#180c45"/>
        <path id="Trazado_898996" data-name="Trazado 898996" d="M307.208,629.419V685.03a.341.341,0,0,0,.682,0V629.419a.341.341,0,0,0-.682,0" transform="translate(-273.267 -559.586)" fill="#180c45"/>
        <path id="Trazado_898997" data-name="Trazado 898997" d="M404.423,586.336v55.612a.341.341,0,0,0,.682,0V586.336a.341.341,0,0,0-.682,0" transform="translate(-359.741 -521.264)" fill="#180c45"/>
        <path id="Trazado_898998" data-name="Trazado 898998" d="M501.637,543.255v55.612a.341.341,0,0,0,.682,0V543.255a.341.341,0,0,0-.682,0" transform="translate(-446.215 -482.942)" fill="#180c45"/>
        <path id="Trazado_898999" data-name="Trazado 898999" d="M210.436,1043.049l29.152-12.919,8.157-3.615c.4-.177.054-.766-.344-.589l-29.152,12.919-8.157,3.615c-.4.177-.054.765.344.589" transform="translate(-186.722 -912.55)" fill="#180c45"/>
        <path id="Trazado_899000" data-name="Trazado 899000" d="M210.436,907.174l29.152-12.919,8.157-3.615c.4-.178.054-.766-.344-.589L218.248,902.97l-8.157,3.615c-.4.177-.054.766.344.589" transform="translate(-186.722 -791.687)" fill="#180c45"/>
        <path id="Trazado_899001" data-name="Trazado 899001" d="M210.436,771.3l29.152-12.919,8.157-3.615c.4-.178.054-.766-.344-.589L218.248,767.1l-8.157,3.615c-.4.178-.054.766.344.589" transform="translate(-186.722 -670.824)" fill="#180c45"/>
        <path id="Trazado_899002" data-name="Trazado 899002" d="M210.436,635.424l29.152-12.919,8.157-3.615c.4-.178.054-.766-.344-.589L218.248,631.22l-8.157,3.615c-.4.178-.054.766.344.589" transform="translate(-186.722 -549.961)" fill="#180c45"/>
        <path id="Trazado_899003" data-name="Trazado 899003" d="M226.077,712.3a92.568,92.568,0,0,1,2.691-13.943,31.649,31.649,0,0,1,5.929-11.582,13.2,13.2,0,0,1,4.465-3.531c1.939-.883,4.087-1.164,6.047-1.994,3.847-1.631,6.267-5.393,7.875-9.089,2.1-4.827,2.838-10.064,3.531-15.241.058-.434-.625-.43-.682,0-.63,4.7-1.3,9.467-3.034,13.915-1.46,3.736-3.747,7.785-7.507,9.589-1.94.931-4.111,1.207-6.094,2.023a13.089,13.089,0,0,0-4.57,3.272,30.007,30.007,0,0,0-6.082,10.79,83.285,83.285,0,0,0-3.226,15.609c-.06.43.6.615.658.181" transform="translate(-200.511 -584.051)" fill="#180c45"/>
        <path id="Trazado_899004" data-name="Trazado 899004" d="M207,1118.131c0,2.323-1.338,4.8-2.987,5.531s-2.987-.56-2.987-2.883,1.338-4.8,2.987-5.531,2.987.56,2.987,2.883" transform="translate(-178.813 -991.85)" fill="#ffb43b"/>
        <path id="Trazado_899005" data-name="Trazado 899005" d="M289.233,890.952c0,2.323-1.338,4.8-2.987,5.531s-2.987-.56-2.987-2.883,1.337-4.8,2.987-5.531,2.987.56,2.987,2.883" transform="translate(-251.963 -789.771)" fill="#ffb43b"/>
        <path id="Trazado_899006" data-name="Trazado 899006" d="M386.447,847.87c0,2.323-1.338,4.8-2.987,5.531s-2.987-.56-2.987-2.883,1.337-4.8,2.987-5.531,2.987.56,2.987,2.883" transform="translate(-338.436 -751.449)" fill="#ffb43b"/>
        <path id="Trazado_899007" data-name="Trazado 899007" d="M483.661,614.052c0,2.323-1.337,4.8-2.987,5.531s-2.987-.56-2.987-2.883,1.337-4.8,2.987-5.531,2.987.56,2.987,2.883" transform="translate(-424.91 -543.464)" fill="#ffb43b"/>
        <path id="Trazado_899008" data-name="Trazado 899008" d="M773.782,1139.87h-.051c-3.63-.055-22.234,0-36.875,0a118.759,118.759,0,0,1-15.762-1.061c-.532-9.56.1-19.949,3.971-28.621,2.784-6.24,8.929-12.316,16.288-12.125,4.053.1,7.779,2.115,10.89,4.582,6.09,4.828,10.638,11.433,14.087,18.328a160.568,160.568,0,0,1,7.451,18.9" transform="translate(-641.28 -976.741)" fill="#ff5c33"/>
        <path id="Trazado_899009" data-name="Trazado 899009" d="M829.129,1041.219l6.5-10.013,26.46,16.863-3.948,8.113s-18.458-4.8-29.011-14.963" transform="translate(-737.525 -917.276)" fill="#ff5c33"/>
        <path id="Trazado_899010" data-name="Trazado 899010" d="M805.733,1308.808a24.169,24.169,0,0,0,6.3,14.927,23.45,23.45,0,0,0,3.461,3.09c.355.26.7-.332.344-.589a23.432,23.432,0,0,1-8.73-12.955,22.547,22.547,0,0,1-.69-4.473c-.023-.437-.706-.44-.682,0" transform="translate(-716.713 -1163.915)" fill="#180c45"/>
        <path id="Trazado_899011" data-name="Trazado 899011" d="M826.134,1123.683a43.606,43.606,0,0,0,10.746,7.592,58.427,58.427,0,0,0,12.492,4.8,39.967,39.967,0,0,0,6.485,1.13c.438.037.435-.646,0-.682a45.353,45.353,0,0,1-11.683-2.776,56.036,56.036,0,0,1-12.011-6.047,37.367,37.367,0,0,1-5.547-4.5.341.341,0,0,0-.482.483" transform="translate(-734.771 -999.018)" fill="#180c45"/>
        <path id="Trazado_899012" data-name="Trazado 899012" d="M1061.8,1276.634c2.585-.225,3.768-3,4.254-5.212a15.449,15.449,0,0,0-.685-8.881c-.158-.4-.818-.229-.658.181a14.8,14.8,0,0,1,.774,8.085c-.369,1.951-1.3,4.937-3.685,5.145-.434.038-.438.721,0,.682" transform="translate(-944.196 -1122.849)" fill="#180c45"/>
        <path id="Trazado_899013" data-name="Trazado 899013" d="M1017.029,1233.037l5.962,20.749,1.538,5.353a.341.341,0,0,0,.658-.181l-5.962-20.749-1.538-5.352a.341.341,0,0,0-.658.181" transform="translate(-904.651 -1096.433)" fill="#180c45"/>
        <path id="Trazado_899014" data-name="Trazado 899014" d="M685.238,447.676c1.821-5.849,4.571-11.5,6.9-17.029,1.05-2.488,2.137-4.961,3.3-7.391-1.707-1.807-3.136-3.36-3.136-3.36l-8.961-4.757c-.6-.338-1.218-.666-1.841-.977l-.023-.012a21.726,21.726,0,0,0-6.615-2.209c-7.739-1.086-12.584,5.689-14.64,12.287-1.763,5.658-1.983,11.715-1.778,17.6.115,3.3.4,6.6.706,9.884a57.926,57.926,0,0,0,1.723,10.611c.122.425.36,1.532.606,2.624q-1.266.832-2.5,1.71-1.566,1.12-3.082,2.308a32.24,32.24,0,0,0-2.862,2.379,2.493,2.493,0,0,0-.662,3.073,2.8,2.8,0,0,0,2.469,1.265c-.428.351-.848.712-1.238,1.1a2.493,2.493,0,0,0-.662,3.073,2.882,2.882,0,0,0,2.868,1.239,10.705,10.705,0,0,0,3.389-1.358c1.073-.556,2.126-1.152,3.148-1.8a25.626,25.626,0,0,0-1.988,2.314,2.493,2.493,0,0,0-.164,3.139,2.882,2.882,0,0,0,3.029.766,10.7,10.7,0,0,0,3.129-1.881c.975-.723,1.923-1.482,2.833-2.286A38.446,38.446,0,0,0,673.9,475.1q-.224,1.806-.376,3.62a32.242,32.242,0,0,0-.2,3.716,2.493,2.493,0,0,0,1.8,2.574,2.882,2.882,0,0,0,2.858-1.262,10.708,10.708,0,0,0,1.307-3.409,33.88,33.88,0,0,0,.824-3.546c1.985-12.2.579-33.233.58-33.352q2.183,2.211,4.541,4.233" transform="translate(-580.033 -366.327)" fill="#ff9d70"/>
        <path id="Trazado_899015" data-name="Trazado 899015" d="M1434.867,824.463a90.339,90.339,0,0,0-5.627-12.644,183.092,183.092,0,0,0-14.751-23.148,12.926,12.926,0,0,0-1.816-1.97c-2.132,1.941-4.333,3.818-6.431,5.8-3.025,2.853-5.914,5.872-8.9,8.781q2.743,4.879,5.61,9.687l0,0c-.1.161-1.812,1.878-1.979,2.019a13.9,13.9,0,0,0-1.824,2.582c-.907,1.229-1.906,2.408-2.871,3.592-1.778,2.179-3.577,4.337-5.328,6.539-2.383,3-7.651-.749-9.848,2.385,2.277,2.461,7.353,8.353,9.7,10.751,12.5,12.79,32.224,24.938,43.027,9.944a20.168,20.168,0,0,0,3.3-10.694,35.871,35.871,0,0,0-2.26-13.617" transform="translate(-1228.511 -699.785)" fill="#ff9d70"/>
        <path id="Trazado_899016" data-name="Trazado 899016" d="M1598.86,1025.806l11.011,14.349c.263.344.857,0,.589-.344l-11.011-14.349c-.264-.344-.857,0-.589.344" transform="translate(-1422.153 -912.039)" fill="#180c45"/>
        <path id="Trazado_899017" data-name="Trazado 899017" d="M1530.806,761.977c-2.27-5.105-10.789-10.311-12.235-10.938-2.392-1.037-5.3.967-4.544,3.686a9.635,9.635,0,0,0,.373,1.062,3.472,3.472,0,0,0-3.105,1.1,2.839,2.839,0,0,0-.3,2.7,8.185,8.185,0,0,0,.458,1.218c-1.752.062-3.5.948-3.674,2.888a7.545,7.545,0,0,0,1.175,3.966,6.737,6.737,0,0,0,1.228,1.694c.235.387.475.766.709,1.136,1.3,2.045,2.98,3.841,5.546,3.983a11.243,11.243,0,0,0,6.792-2.445c1.9-1.365,4.294-2.682,5.6-4.62.778-1.158,2.54-4.171,1.982-5.425" transform="translate(-1341.181 -667.816)" fill="#ff9d70"/>
        <path id="Trazado_899018" data-name="Trazado 899018" d="M1648.165,558.605a15.311,15.311,0,1,1-2.6-21.8,15.525,15.525,0,0,1,2.6,21.8" transform="translate(-1441.496 -474.764)" fill="#180c45"/>
        <rect id="Rectángulo_404678" data-name="Rectángulo 404678" width="17.097" height="3.639" transform="translate(181.142 89.072) rotate(-52.612)" fill="#180c45"/>
        <path id="Trazado_899019" data-name="Trazado 899019" d="M1664.446,575.457a13.643,13.643,0,0,1-6.513,4.678,12.969,12.969,0,0,1-12.057-1.931,13.279,13.279,0,0,1-2.228-18.639,13.456,13.456,0,0,1,14.285-4.889,12.677,12.677,0,0,1,4.285,2.143,13.272,13.272,0,0,1,2.228,18.638" transform="translate(-1459.539 -492.963)" fill="#fff"/>
        <path id="Trazado_899020" data-name="Trazado 899020" d="M1802.205,579.363a13.643,13.643,0,0,1-6.513,4.677V558.582a12.675,12.675,0,0,1,4.285,2.143,13.272,13.272,0,0,1,2.228,18.638" transform="translate(-1597.299 -496.869)" fill="#4050ff"/>
        <path id="Trazado_899021" data-name="Trazado 899021" d="M1528.88,899.822c1.462,1.508,3.109,3.137,5.264,3.523a2.812,2.812,0,0,0,2.735-.752,2.854,2.854,0,0,0,.511-2.451,6.807,6.807,0,0,0-2.078-3.031.341.341,0,0,0-.482.482,5.8,5.8,0,0,1,1.933,2.884,1.84,1.84,0,0,1-1.543,2.247,5.122,5.122,0,0,1-3.289-1.074,17.192,17.192,0,0,1-2.569-2.311c-.306-.316-.789.167-.483.482" transform="translate(-1359.878 -797.906)" fill="#180c45"/>
        <path id="Trazado_899022" data-name="Trazado 899022" d="M1537.015,841.04a22.527,22.527,0,0,0,4.9,6.1c1.276,1.113,3.156,2.58,4.846,1.388a3.836,3.836,0,0,0,1.359-2.779c.056-.434-.627-.43-.682,0a2.781,2.781,0,0,1-1.436,2.418,2.893,2.893,0,0,1-2.705-.768,21.556,21.556,0,0,1-5.693-6.7c-.212-.385-.8-.041-.589.344" transform="translate(-1367.161 -747.664)" fill="#180c45"/>
        <path id="Trazado_899023" data-name="Trazado 899023" d="M1565.828,794.843a17.042,17.042,0,0,0,2.7,3.386c.316.306.8-.176.482-.482a16.337,16.337,0,0,1-2.6-3.248c-.228-.375-.818-.032-.589.344" transform="translate(-1392.785 -706.576)" fill="#180c45"/>
        <path id="Trazado_899024" data-name="Trazado 899024" d="M1579.829,821.973a45.952,45.952,0,0,0-6.188-.059c-.989.058-1.988.127-2.968.277a2.693,2.693,0,0,0-1.945,1.054c-.849,1.282-.223,2.972.733,3.995a7.664,7.664,0,0,0,4.709,2.047,34.612,34.612,0,0,0,6.933.2c.436-.029.439-.711,0-.682a36.219,36.219,0,0,1-5.49-.048,10.151,10.151,0,0,1-4.825-1.291c-1.1-.728-2.184-2.179-1.639-3.562a2.067,2.067,0,0,1,1.877-1.081c.894-.113,1.8-.183,2.695-.235a45.936,45.936,0,0,1,6.108.064c.438.033.436-.649,0-.682" transform="translate(-1395.055 -731.039)" fill="#180c45"/>
        <path id="Trazado_899025" data-name="Trazado 899025" d="M1624.792,784.936a23.026,23.026,0,0,0,3.333,4.1c.315.307.8-.175.482-.482a22.239,22.239,0,0,1-3.226-3.961c-.236-.369-.826-.027-.589.344" transform="translate(-1445.231 -697.767)" fill="#180c45"/>
        <path id="Trazado_899026" data-name="Trazado 899026" d="M913.2,519.327a157.143,157.143,0,0,0-12.169-11.346l.267-.162c-5.469-4.294-11.147-8.317-16.931-12.174q-8.334-5.556-16.906-10.776c-7.473,8.3-11.537,19.166-13.1,29.342,1.685,1.3,6.772,5.52,9.877,7.844-.6.808-10.144,16.844-15.246,27.65,6.483,4.807,15.292,9.671,24,13.915a19.968,19.968,0,0,0,25.951-7.732l.1-.164c3.205,4.9,6.877,9.528,10.532,14.1a120.957,120.957,0,0,0,26.236-21.237c-3.26-5.124-17.84-24.292-22.609-29.262" transform="translate(-755.195 -431.299)" fill="#0c826a"/>
        <path id="Trazado_899027" data-name="Trazado 899027" d="M677.631,943.349l6.746-5.289c.345-.271-.141-.751-.483-.483l-6.746,5.289c-.345.271.14.751.482.483" transform="translate(-602.23 -833.922)" fill="#180c45"/>
        <path id="Trazado_899028" data-name="Trazado 899028" d="M743.878,971.124l5.335-4.367c.34-.278-.145-.758-.482-.482l-5.335,4.367c-.34.278.145.759.483.482" transform="translate(-661.161 -859.445)" fill="#180c45"/>
        <path id="Trazado_899029" data-name="Trazado 899029" d="M821.131,911.368a9.01,9.01,0,0,0,2.413,8.148.341.341,0,0,0,.482-.482,8.3,8.3,0,0,1-2.237-7.484c.09-.428-.568-.612-.658-.181" transform="translate(-730.244 -810.46)" fill="#180c45"/>
        <path id="Trazado_899030" data-name="Trazado 899030" d="M725.994,922.253a12.675,12.675,0,0,0,9.711,5.288c.439.019.438-.663,0-.682a11.949,11.949,0,0,1-9.122-4.95c-.252-.355-.844-.015-.589.344" transform="translate(-645.728 -819.92)" fill="#180c45"/>
        <path id="Trazado_899031" data-name="Trazado 899031" d="M833.433,632.408a61.824,61.824,0,0,0,7.795,7.037c.35.266.69-.327.344-.589a60.815,60.815,0,0,1-7.657-6.93c-.3-.322-.782.161-.482.482" transform="translate(-741.269 -562.014)" fill="#180c45"/>
        <path id="Trazado_899032" data-name="Trazado 899032" d="M1286.631,612.61l-4.44,5.383a8.59,8.59,0,0,1-8.129-6.771l5.128-5.641Z" transform="translate(-1133.299 -538.675)" fill="#ff9d70"/>
        <path id="Trazado_899033" data-name="Trazado 899033" d="M1429.206,531.27a3.72,3.72,0,0,0-2.9-2.838,3.067,3.067,0,0,0-3.205.8,2.619,2.619,0,0,0-1.116.707.616.616,0,0,0-.2.061,3.285,3.285,0,0,0-.509,5.626,3.051,3.051,0,0,0,3.38.255,2.167,2.167,0,0,0,.82-.946,2.812,2.812,0,0,0,1.728-.266,3.355,3.355,0,0,0,2.008-3.4" transform="translate(-1263.037 -469.931)" fill="#180c45"/>
        <path id="Trazado_899034" data-name="Trazado 899034" d="M1462.651,600.235a2.474,2.474,0,0,1,.5,1.064,1.031,1.031,0,0,1-.857,1.037,3.005,3.005,0,0,1-1.7-.169l-.042-5.064,2.1,3.132" transform="translate(-1299.185 -531.134)" fill="#ff9d70"/>
        <path id="Trazado_899035" data-name="Trazado 899035" d="M1328.368,489.692c1.077-.912,1.675-3.158,1.932-5.034.233-1.7.268-5.955.28-6.355.405-.787,2.735-6.063.3-10.513-2.974-5.428-8.464-5.986-11.5-4.521a9.2,9.2,0,0,0-5.481,10.092c.3,2.3.458,2.878.9,5.087.72,3.6,2.658,5.961,5.435,9.142,2.91,3.333,6.1,3.823,8.135,2.1" transform="translate(-1168.641 -411.468)" fill="#ff9d70"/>
        <path id="Trazado_899036" data-name="Trazado 899036" d="M1358.65,660.819a7.247,7.247,0,0,0,1.162,2.789.351.351,0,0,0,.467.122.344.344,0,0,0,.122-.467,6.768,6.768,0,0,1-1.094-2.626.341.341,0,1,0-.658.181" transform="translate(-1208.535 -587.427)" fill="#180c45"/>
        <path id="Trazado_899037" data-name="Trazado 899037" d="M1323.182,449.626a6.888,6.888,0,0,0-3.815-4.361,4.28,4.28,0,0,0-1.646-2.146,6.237,6.237,0,0,0-6.636.085,8.058,8.058,0,0,0-8.245.391,8.366,8.366,0,0,0-3.1,4.706,7.312,7.312,0,0,0,.575,1.35,19.914,19.914,0,0,0,9.7,9.766c0-.519-.037-1.077-.057-1.588a2.882,2.882,0,0,0,.909-.027,3.409,3.409,0,0,0,2.4-1.942,7.354,7.354,0,0,0,.641-2.4,10.643,10.643,0,0,0,1.21,1.032,4.435,4.435,0,0,0,4.227.941,2.69,2.69,0,0,0,1.416-1.324,2.077,2.077,0,0,0,1.6-.436c1.228-.963,1.194-2.674.816-4.043" transform="translate(-1156.137 -393.348)" fill="#180c45"/>
        <path id="Trazado_899038" data-name="Trazado 899038" d="M1224.831,484.731a6.551,6.551,0,0,0-2.76-1.977,7.03,7.03,0,0,0-3.136.311,5.444,5.444,0,0,0-2.889,3.13c-.035.094-.061.2-.091.294a5.161,5.161,0,0,0-4.3,5.272,5.786,5.786,0,0,0,1.936,3.972,3.885,3.885,0,0,0,2.026,1.018,7.128,7.128,0,0,0,3.919,3.871,8.464,8.464,0,0,0,5.941-.2c.9-.408,1.147-1.09,1.8-1.842a3.086,3.086,0,0,0,.867.138,5.384,5.384,0,0,0,3.21-1.143,2.987,2.987,0,0,0,.672-1.97c-4.439-2.7-5.471-5.691-7.2-10.877" transform="translate(-1077.784 -429.382)" fill="#180c45"/>
        <path id="Trazado_899039" data-name="Trazado 899039" d="M1435.907,571.042a1.878,1.878,0,0,1,1.029-.152,3.882,3.882,0,0,1,2.2.912,1.726,1.726,0,0,1,.386,1.092,1.221,1.221,0,0,1-.615,1.073,1.494,1.494,0,0,1-1.236-.084l-.868-.315-.879-.319a1.568,1.568,0,0,1-.627-.339.968.968,0,0,1-.236-.954,1.479,1.479,0,0,1,.849-.915" transform="translate(-1276.473 -507.801)" fill="#180c45"/>
        <path id="Trazado_899040" data-name="Trazado 899040" d="M1445.331,599.091c1.158.18.809,1.693.52,2.28a1.052,1.052,0,0,1-1.054.724c-.763-.13-.688-1.094-.594-1.6.106-.566.369-1.52,1.128-1.4" transform="translate(-1284.592 -532.893)" fill="#180c45"/>
        <path id="Trazado_899041" data-name="Trazado 899041" d="M1443.491,647.213a2.807,2.807,0,0,0,1.76,1.731.344.344,0,0,0,.42-.238.349.349,0,0,0-.238-.42c-.043-.014-.085-.029-.127-.046-.024-.009-.076-.044,0,0-.019-.011-.042-.019-.062-.028a2.388,2.388,0,0,1-.227-.123c-.038-.023-.076-.048-.113-.074l-.046-.033-.036-.027.033.026c-.032-.009-.078-.064-.1-.086s-.067-.06-.1-.092a2.474,2.474,0,0,1-.175-.191c-.007-.008-.057-.071-.022-.027s-.007-.01-.014-.019c-.026-.036-.052-.073-.077-.111a2.346,2.346,0,0,1-.134-.234l-.029-.061-.009-.02c-.015-.034-.012-.027.008.02a.4.4,0,0,1-.048-.126.341.341,0,0,0-.658.181" transform="translate(-1283.995 -575.321)" fill="#180c45"/>
        <path id="Trazado_899042" data-name="Trazado 899042" d="M1257.865,1054.783l4.323,7.5a.341.341,0,0,0,.589-.344l-4.323-7.5a.341.341,0,0,0-.589.344" transform="translate(-1118.85 -937.794)" fill="#180c45"/>
        <path id="Trazado_899043" data-name="Trazado 899043" d="M985.42,732.44l7.556-10.378c.259-.355-.333-.7-.589-.344L984.831,732.1c-.259.355.333.7.589.344" transform="translate(-875.967 -641.849)" fill="#180c45"/>
        <path id="Trazado_899044" data-name="Trazado 899044" d="M1247.065,640.409a12.79,12.79,0,0,0,2.012,9.251,9.985,9.985,0,0,0,3.171,2.885,12.987,12.987,0,0,0,4.742,1.364,20.757,20.757,0,0,0,5.605-.153c.432-.069.249-.727-.182-.658a16.506,16.506,0,0,1-9.319-.891,9.779,9.779,0,0,1-5.046-6.193,14.491,14.491,0,0,1-.3-5.6c.051-.435-.632-.432-.682,0" transform="translate(-1109.173 -569.366)" fill="#180c45"/>
        <path id="Trazado_899045" data-name="Trazado 899045" d="M1365.466,1045.073c3.464-2.47,6.877-5.01,10.27-7.576q5.583-4.221,11.073-8.564,2.664-2.115,5.286-4.281c.338-.281-.147-.761-.482-.483-3.254,2.706-6.58,5.325-9.925,7.918q-5.511,4.275-11.116,8.428-2.71,2.006-5.45,3.969c-.354.253-.014.845.344.589" transform="translate(-1214.166 -910.942)" fill="#180c45"/>
        <path id="Trazado_899046" data-name="Trazado 899046" d="M935.231,543.591a90.144,90.144,0,0,1,9.892-22.923q1.759-2.951,3.715-5.778c.25-.362-.341-.7-.589-.344a98.417,98.417,0,0,0-11.57,22.182c-.8,2.2-1.508,4.424-2.106,6.682a.342.342,0,0,0,.658.181" transform="translate(-831.307 -457.562)" fill="#180c45"/>
        <path id="Trazado_899047" data-name="Trazado 899047" d="M1342.621,578.87a3.643,3.643,0,1,0-4.275-2.875,3.643,3.643,0,0,0,4.275,2.875" transform="translate(-1190.421 -508.494)" fill="#ff9d70"/>
        <path id="Trazado_899048" data-name="Trazado 899048" d="M1352.49,588.946a2.587,2.587,0,0,0-.962,2.7.39.39,0,1,0,.752-.207c-.013-.048-.024-.1-.033-.145-.005-.027-.009-.054-.014-.081.006.034.005.049,0,.006a2.308,2.308,0,0,1-.008-.295c0-.049.008-.1.012-.147s-.012.064,0,.006c.005-.027.009-.054.014-.081a2.227,2.227,0,0,1,.076-.285c.014-.042.03-.082.046-.123-.03.076,0,0,.007-.012l.029-.059a2.271,2.271,0,0,1,.151-.254l.048-.067c-.021.029-.025.03,0,0s.064-.075.1-.111.069-.071.105-.1l.049-.044c.007-.006.093-.075.024-.022a.4.4,0,0,0,.14-.534.394.394,0,0,0-.534-.14" transform="translate(-1202.135 -523.826)" fill="#180c45"/>
      </g>
    </g>
    <rect id="Rectángulo_404683" data-name="Rectángulo 404683" width="315" height="182" transform="translate(894.99 3672)" fill="none"/>
  </g>
</svg>
