<svg xmlns="http://www.w3.org/2000/svg" xmlns:xlink="http://www.w3.org/1999/xlink" width="141.511" height="151" viewBox="0 0 141.511 151">
  <defs>
    <clipPath id="clip-path">
      <rect id="Rect치ngulo_404693" data-name="Rect치ngulo 404693" width="141.511" height="136.891" transform="translate(0 0)" fill="none"/>
    </clipPath>
  </defs>
  <g id="_77" data-name="77" transform="translate(-205 -1262.604)">
    <rect id="Rect치ngulo_404692" data-name="Rect치ngulo 404692" width="140" height="151" transform="translate(205 1262.604)" fill="#b0dcae"/>
    <g id="Grupo_1108902" data-name="Grupo 1108902" transform="translate(205 1276.707)">
      <g id="Grupo_1108901" data-name="Grupo 1108901" transform="translate(0 0.005)" clip-path="url(#clip-path)">
        <path id="Trazado_899159" data-name="Trazado 899159" d="M445.463,219.437c-.624-3.08-2.037-5.918-3.161-8.832a81.167,81.167,0,0,1-2.878-9.394c-3.236-12.836-3.742-31.687-19.41-35.8q-1.186-.311-2.4-.5c-9.566-1.52-21.892,1.3-28.118,9.233a26.675,26.675,0,0,0-4.017,7.916,38.414,38.414,0,0,0-1.81,8.978c-.605,6.615-1.014,13.253-1.515,19.877-.243,3.223-.5,6.446-.73,9.67-.2,2.747-.319,5.65.655,8.277,1.984,5.352,7.939,7.347,13.227,7.049a.652.652,0,0,0,.385-.144c.721.016.988-1.113.211-1.279-1.155-.247-1.92-1.785-2.3-2.791a13.223,13.223,0,0,1-.718-3.377,8.822,8.822,0,0,0,.93,1.573,5.33,5.33,0,0,0,3.14,2.132,4,4,0,0,0,3.412-.777.64.64,0,0,0,.591-.474,2.977,2.977,0,0,1,.079-.3c0-.013.009-.026.014-.038.02-.039.038-.08.059-.119.047-.086.113-.164.158-.25.05-.059.09-.106.133-.151.065-.069.132-.134.2-.2q.062-.056.126-.11l.081-.066.075-.057.121-.087q.144-.1.292-.2a11.973,11.973,0,0,0,2.234-1.592,3.645,3.645,0,0,0,.268-.314q2.166.292,4.333.584a12.976,12.976,0,0,1,3.859.93c1.918.915,3.242,2.705,5.132,3.662a4.858,4.858,0,0,0,2.962.527,15.389,15.389,0,0,0,1.727-.445,9.023,9.023,0,0,1,2.231-.308c2.7-.046,5.307.811,7.991.955a9.29,9.29,0,0,0,6.448-1.705.735.735,0,0,0,.14-.017,7.661,7.661,0,0,0,5.141-4.467,12.137,12.137,0,0,0,.695-7.573" transform="translate(-347.242 -149.824)" fill="#33232b"/>
        <path id="Trazado_899160" data-name="Trazado 899160" d="M205.029,842.853c-.891-6.989-7-26.949-10.308-36.554a51.223,51.223,0,0,0-1.926-5.089c-15.632-28.823-57.926-23.132-84.264-14.222-9.369,3.167-21.6,7.36-26.989,16.462-8.53,14.4-10.356,35.266-11.653,41.879a1.092,1.092,0,0,0,1.061,1.315c6.831-.022,38.445-.122,54.226-.061,7.124.031,20.249.092,33.89.052,19.686-.07,40.433-.358,45.735-1.306.371-.066.419-.97.227-2.477" transform="translate(-63.628 -710.133)" fill="#f9f7f4"/>
        <path id="Trazado_899161" data-name="Trazado 899161" d="M637.531,486.663a1.3,1.3,0,0,0-.027-.618q-4.846-17.282-9.09-34.723a1.15,1.15,0,0,0-1.143-.931,1.357,1.357,0,0,0-1.719.435c-4.253,5.983-10.208,10.478-14.472,16.492a1.431,1.431,0,0,0-.138.243,1.026,1.026,0,0,0-.8,1.2c.873,7.358,1.215,14.935,2.088,22.293a1.427,1.427,0,0,0,1.505,1.245c6.968,7.378,19.881,5.18,23.989-4.2a1.36,1.36,0,0,0-.195-1.433" transform="translate(-555.649 -410.047)" fill="#ffa894"/>
        <path id="Trazado_899162" data-name="Trazado 899162" d="M494.243,232.616a12.217,12.217,0,0,0-10.775-11.448c-9.491-1.4-20.917,2.193-23.971,12.488-1.088,3.673-.913,7.6-.659,11.383a.1.1,0,0,1,0,.035c.061.917.113,1.839.166,2.765.03.485.057.965.087,1.45.048.747.1,1.489.166,2.236.127,1.42.293,2.83.555,4.219,1.227,6.539,5.945,9.78,12.243,9.557a24.548,24.548,0,0,0,15.763-5.748c.655-.559,2.472-10.277,2.245-12.911-.052-.646,1.31-2.4,1.616-3.031a31.606,31.606,0,0,0,1.45-3.459,18.746,18.746,0,0,0,1.109-7.534" transform="translate(-417.691 -201.154)" fill="#ffa894"/>
        <path id="Trazado_899163" data-name="Trazado 899163" d="M465.946,525.385a1.73,1.73,0,0,1-1.5.428,3.689,3.689,0,0,1-1.428-.463.8.8,0,0,1-.079-.048c-.065-.747-.118-1.49-.166-2.236-.031-.485-.057-.965-.087-1.45a2.519,2.519,0,0,1,.948-.1,3.428,3.428,0,0,1,2.59,2.616,1.317,1.317,0,0,1-.28,1.258" transform="translate(-421.371 -474.932)" fill="#e66c5e"/>
        <path id="Trazado_899164" data-name="Trazado 899164" d="M707.89,487.926c-2.04-.636-4.35,1.037-5.209,2.85a2.036,2.036,0,0,0-.137,1.775,1.458,1.458,0,0,0,.986.708c1.762.386,4.915-1.51,5.4-3.289a1.666,1.666,0,0,0-1.044-2.044" transform="translate(-639.671 -444.23)" fill="#e66c5e"/>
        <path id="Trazado_899165" data-name="Trazado 899165" d="M614.371,833.979a1.544,1.544,0,0,0-2.64,0,16.754,16.754,0,0,1-13.111,7.033c-4.91.265-10.529-1.3-12.917-5.963-.764-1.49-2.781-.592-2.815.786a1.57,1.57,0,0,0-.571,1.5c1.461,9.218,10.811,14.168,19.534,13.186,4.127-.465,8.791-1.941,11.475-5.308a10.607,10.607,0,0,0,1.045-11.234" transform="translate(-530.297 -758.829)" fill="#e2dacc"/>
        <path id="Trazado_899166" data-name="Trazado 899166" d="M524.77,411.87a12.008,12.008,0,0,1,2.787,4.114,5.873,5.873,0,0,1,.226,2.694,10.721,10.721,0,0,0-.442,2.66,5.73,5.73,0,0,0,1.135,2.572c.251.375.861.023.608-.355a5.073,5.073,0,0,1-1.043-2.26,13.2,13.2,0,0,1,.461-2.71,7.139,7.139,0,0,0-1.379-4.963,23.6,23.6,0,0,0-1.855-2.25c-.3-.338-.8.162-.5.5" transform="translate(-477.824 -374.536)" fill="#33232b"/>
        <path id="Trazado_899167" data-name="Trazado 899167" d="M590.169,519.019a4.355,4.355,0,0,1,.576.173c.056.02-.073-.033.021.009l.059.027q.067.031.132.064.138.071.269.154c.083.052.163.108.241.167-.029-.022-.014-.011.006.005l.063.052q.056.047.11.1.114.1.218.219.049.054.1.111l.041.051c.067.083-.04-.054.024.032a.361.361,0,0,0,.482.126.356.356,0,0,0,.126-.482,3.838,3.838,0,0,0-2.278-1.484.352.352,0,0,0-.187.679" transform="translate(-537.236 -472.046)" fill="#33232b"/>
        <path id="Trazado_899168" data-name="Trazado 899168" d="M493.292,483.3c.431-2.216-3.151-2.084-4.454-1.776-.672.159-2.334,1.191-1.639,2.122.307.41.752.135,1.133,0a10.082,10.082,0,0,1,2.1-.506,3.281,3.281,0,0,1,1.934.291,1.646,1.646,0,0,0,.44.2.389.389,0,0,0,.485-.337" transform="translate(-443.542 -438.368)" fill="#33232b"/>
        <path id="Trazado_899169" data-name="Trazado 899169" d="M662.491,433.752a3.716,3.716,0,0,0-.625-1.325,2.326,2.326,0,0,0-1.537-.853,1.891,1.891,0,0,0-1.421.417,2.023,2.023,0,0,0-.627,1.215c-.234,1.425.12,3.971,1.9,4.395a1.988,1.988,0,0,0,1.888-.6,2.681,2.681,0,0,0,.6-1.694,4.752,4.752,0,0,0-.181-1.552" transform="translate(-599.44 -393.026)" fill="#33232b"/>
        <path id="Trazado_899170" data-name="Trazado 899170" d="M630.747,367.2a7.417,7.417,0,0,0-8.719.717c-.917.887-1.4,2.153-.23,3.056.69.535,1.633.129,2.339-.162a4.815,4.815,0,0,1,2.827-.484,9.213,9.213,0,0,0,2.754.308,2.057,2.057,0,0,0,1.926-1.507,1.861,1.861,0,0,0-.9-1.929" transform="translate(-565.647 -333.415)" fill="#33232b"/>
        <path id="Trazado_899171" data-name="Trazado 899171" d="M470.708,404.139a3.8,3.8,0,0,0-3.936-.894,4.2,4.2,0,0,0-2.339,2.385c-.62,1.42.8,2.312,2.014,1.567.273-.168.518-.37.8-.52a3.614,3.614,0,0,1,2.488-.291,3.605,3.605,0,0,0,.839.187.937.937,0,0,0,.921-.655c.186-.643-.364-1.352-.79-1.78" transform="translate(-422.824 -367.039)" fill="#33232b"/>
        <path id="Trazado_899172" data-name="Trazado 899172" d="M572.781,550.272a11.094,11.094,0,0,1-8.281,2.836.417.417,0,0,0-.292.086.411.411,0,0,0-.3.578c.967,2.151,3.666,2.167,5.556,1.374a7.129,7.129,0,0,0,3.993-4.366c.12-.381-.324-.826-.676-.508" transform="translate(-513.514 -501.035)" fill="#cc5b4e"/>
        <path id="Trazado_899173" data-name="Trazado 899173" d="M658.936,542.343a2.89,2.89,0,0,0,2.115,1.294.353.353,0,0,0,.352-.352.362.362,0,0,0-.352-.352c-.069-.008.043.008,0,0l-.068-.011q-.061-.011-.121-.025a2.471,2.471,0,0,1-.251-.073c-.039-.014-.077-.029-.116-.044s.056.027,0,0l-.062-.029a2.552,2.552,0,0,1-.229-.126c-.07-.044-.138-.091-.2-.14.062.047.009.006,0,0l-.052-.044q-.047-.041-.091-.084a2.423,2.423,0,0,1-.178-.191c-.006-.007-.056-.067-.024-.029s-.021-.029-.022-.03c-.027-.037-.052-.075-.078-.114a.352.352,0,0,0-.608.355" transform="translate(-600.05 -493.43)" fill="#33232b"/>
        <path id="Trazado_899174" data-name="Trazado 899174" d="M504.743,239.334c-.417-3.916-2.435-8.246-3.424-11.115l-7.72-22.395-4.376-12.694a.854.854,0,0,0-.646-.579.326.326,0,0,1-.215-.139,14.64,14.64,0,0,0-4.871-4.539,27.384,27.384,0,0,0-11.687-3.622,28.868,28.868,0,0,0-12.194,1.567c-3.928,1.417-7.666,3.635-10.02,7.14-2.492,3.712-3.895,14.855-3.4,14.989a.89.89,0,0,0,1.084-.61,19.938,19.938,0,0,1,10.155-13.923c.319-.173.644-.333.972-.485a.332.332,0,0,1,.459.219,15.458,15.458,0,0,0,.668,1.941,17.1,17.1,0,0,0,4.142,5.958,23.4,23.4,0,0,0,7.119,4.188,55.48,55.48,0,0,0,5.585,2.042.327.327,0,0,1,.23.248l2.88,14.027c.694,3.381,1.457,6.757,2.027,10.162a29.391,29.391,0,0,1,.309,9.6,14.924,14.924,0,0,1-4.061,8.376.89.89,0,0,0,0,1.235,8.06,8.06,0,0,0,6.01,2.772,8.482,8.482,0,0,0,6.36-3c.2-.219.385-.448.567-.68.091-.115.229-.359.369-.394.193-.048.58.193.761.257a7.372,7.372,0,0,0,.86.245,9,9,0,0,0,3.462.061,8.416,8.416,0,0,0,5.308-3.25.3.3,0,0,1,.09-.08c2.875-1.66,3.525-4.465,3.2-7.522" transform="translate(-406.256 -167.702)" fill="#33232b"/>
        <path id="Trazado_899175" data-name="Trazado 899175" d="M617.115,685.967a21.7,21.7,0,0,0,9.94-3.018.352.352,0,0,0-.355-.608,20.935,20.935,0,0,1-9.585,2.921c-.451.024-.454.728,0,.7" transform="translate(-561.699 -621.363)" fill="#33232b"/>
        <path id="Trazado_899176" data-name="Trazado 899176" d="M864.851,409.267a2.949,2.949,0,0,0-1.155-2.317,2.879,2.879,0,0,0-2.466-.323,5.518,5.518,0,0,0-3.427,4.782c-.022.339.454,2.027.55,2.653a3.945,3.945,0,0,0,1.1,2.381,2.163,2.163,0,0,0,2.481.341,4.876,4.876,0,0,0,1.485-2.2,10.709,10.709,0,0,0,1.433-5.316" transform="translate(-781.203 -370.189)" fill="#ffa894"/>
        <path id="Trazado_899177" data-name="Trazado 899177" d="M1076.466,1138.261c-3.494-5.582-9.64-13.863-11.077-15.68q-3.6-4.567-7.382-8.971c-2.35-2.734-4.708-5.565-7.788-7.5-7.386-5.971-18.157,2.931-21.306,9.509-3.8,7.928-2.031,16.772,1.009,24.626.079.205.3.9.581,1.8,19.686-.07,40.433-.358,45.735-1.306.371-.066.419-.97.227-2.477" transform="translate(-935.065 -1005.54)" fill="#f3f0ea"/>
        <path id="Trazado_899178" data-name="Trazado 899178" d="M883.985,427.577a9.961,9.961,0,0,0-2.173,4.541c-.084.443.594.633.679.187a9.258,9.258,0,0,1,1.992-4.23c.29-.345-.206-.845-.5-.5" transform="translate(-803.062 -389.289)" fill="#33232b"/>
        <path id="Trazado_899179" data-name="Trazado 899179" d="M615.743,782.3c.263,2,.5,4,.793,6a7.335,7.335,0,0,0,.732,2.479,5.994,5.994,0,0,0,1.759,1.875,11.415,11.415,0,0,0,9.78,1.636,13.721,13.721,0,0,0,5.129-2.762c.347-.293-.154-.789-.5-.5a12.19,12.19,0,0,1-9,2.95,10.349,10.349,0,0,1-4.491-1.546,6.505,6.505,0,0,1-1.794-1.572,5.388,5.388,0,0,1-.861-2.268c-.181-1-.285-2.026-.418-3.037l-.428-3.257a.364.364,0,0,0-.352-.352.354.354,0,0,0-.352.352" transform="translate(-560.757 -712.125)" fill="#33232b"/>
        <path id="Trazado_899180" data-name="Trazado 899180" d="M35.652,905.483c-.149-1.083.762-6.672-.23-6.307A55.2,55.2,0,0,0,22.35,906.2a30.974,30.974,0,0,0-8.234,10.1C12.123,920.065,2.257,945.617.074,952.665a1.615,1.615,0,0,0,1.295,2.08c3.573.549,12.762,1.567,27.8.638,1.39-.086,3.1-14.648,3.785-19.818.675-5.11,1.274-10.231,1.851-15.353.284-2.526.588-5.052.833-7.582a30.625,30.625,0,0,0,.015-7.147" transform="translate(0 -818.867)" fill="#f3f0ea"/>
        <path id="Trazado_899181" data-name="Trazado 899181" d="M285.736,1242.889a68.847,68.847,0,0,0,5.443,19.919q1.183,2.675,2.591,5.242c.218.4.826.043.608-.355a68.085,68.085,0,0,1-4.22-9.279,68.83,68.83,0,0,1-2.8-9.848q-.579-2.819-.917-5.679a.363.363,0,0,0-.352-.352.354.354,0,0,0-.352.352" transform="translate(-260.219 -1131.582)" fill="#33232b"/>
        <path id="Trazado_899182" data-name="Trazado 899182" d="M810.667,679.063a1.036,1.036,0,0,1-1.022-.879l-5.887-38.374a1.035,1.035,0,0,1,2.047-.314l5.887,38.374a1.037,1.037,0,0,1-1.025,1.192" transform="translate(-731.973 -581.592)" fill="#fff"/>
        <path id="Trazado_899183" data-name="Trazado 899183" d="M741.378,742.426c-8.84-11.479-17.18-26.044-21.624-32.632-1.693-2.51-3.231-5.521-5.98-6.919-4.4-2.239-17.816.552-20.57,2.442a4.792,4.792,0,0,0-2.237,4.447,4.563,4.563,0,0,0,2.334,3.512,4.983,4.983,0,0,0-.141,2.537,4.727,4.727,0,0,0,1.141,2.221,6.423,6.423,0,0,0,.7,1.2,5.685,5.685,0,0,0,1.613,1.461,9.9,9.9,0,0,0,0,1.088,4.992,4.992,0,0,0-.056.718c-.018,3.3,3.9,4.641,6.471,5.469,1.212.39,3.258.549,4.281,1.313,1.457,1.088,1.639,4.608,2.427,6.374a8.811,8.811,0,0,0,6.451,5.454,23.088,23.088,0,0,0,2.527.126c.4.028.34.842.537,1.192l7.9,14.038,3.1,5.514a1.1,1.1,0,0,0,2.028-.483.837.837,0,0,0,.1-.023,13.56,13.56,0,0,0,7.393-6.449c1.623-3.171,1.8-12.338,1.594-12.6" transform="translate(-629.241 -639.354)" fill="#ffa894"/>
        <path id="Trazado_899184" data-name="Trazado 899184" d="M727.747,765.129a68.326,68.326,0,0,0-12.605,2.3q-1.544.435-3.067.944a6.439,6.439,0,0,0-2.411,1.158c-1.3,1.2-.948,3.418-.332,4.871a6.917,6.917,0,0,0,3.849,3.751c.423.163.606-.517.187-.679a6.179,6.179,0,0,1-3.24-3.018,5.866,5.866,0,0,1-.6-2.115,2.741,2.741,0,0,1,.61-2.285,5.754,5.754,0,0,1,2.222-1.035q1.429-.475,2.878-.886,2.874-.815,5.812-1.373a66.975,66.975,0,0,1,6.7-.925c.448-.039.452-.744,0-.7" transform="translate(-645.487 -696.804)" fill="#33232b"/>
        <path id="Trazado_899185" data-name="Trazado 899185" d="M851.717,964.894l-1.324-7.382a1.1,1.1,0,0,0-1.343-.763c-.6.194-1.047-.082-.932.52l1.443,8.034c.107.562,2.271.194,2.156-.409" transform="translate(-772.367 -871.276)" fill="#fff"/>
        <path id="Trazado_899186" data-name="Trazado 899186" d="M704.419,696.434l-5.2,1.223A46.672,46.672,0,0,0,694.4,698.9a8.282,8.282,0,0,0-3.657,2.327,4.689,4.689,0,0,0-1.2,3.625,3.634,3.634,0,0,0,2.4,3.046c.434.134.619-.545.187-.679a2.919,2.919,0,0,1-1.879-2.37,3.96,3.96,0,0,1,1.07-3.213,7.761,7.761,0,0,1,3.4-2.1c1.461-.5,2.991-.8,4.491-1.149l5.4-1.27c.441-.1.254-.783-.187-.679" transform="translate(-627.93 -634.235)" fill="#33232b"/>
        <path id="Trazado_899187" data-name="Trazado 899187" d="M768.011,866.446a39.486,39.486,0,0,0-7.5.109q-1.839.2-3.656.573a24.61,24.61,0,0,0-3.477.9,3.726,3.726,0,0,0-2.2,1.829,4.367,4.367,0,0,0-.331,2.624,6.544,6.544,0,0,0,3.265,4.165A13.516,13.516,0,0,0,760,878.5c.451.04.449-.665,0-.7a13.05,13.05,0,0,1-4.89-1.4,6.687,6.687,0,0,1-3.444-3.525,3.822,3.822,0,0,1,0-2.371,2.884,2.884,0,0,1,1.779-1.755,21.577,21.577,0,0,1,3.261-.872q1.693-.362,3.415-.573a39.471,39.471,0,0,1,7.892-.154c.452.036.449-.668,0-.7" transform="translate(-683.735 -788.958)" fill="#33232b"/>
        <path id="Trazado_899188" data-name="Trazado 899188" d="M829.924,951.608a28.729,28.729,0,0,0,8.141.4c.447-.042.452-.747,0-.7a28.066,28.066,0,0,1-7.954-.375c-.443-.085-.632.593-.187.679" transform="translate(-755.583 -866.007)" fill="#33232b"/>
        <path id="Trazado_899189" data-name="Trazado 899189" d="M878.021,1001.147q.468,2.038,1.076,4.039a24.935,24.935,0,0,0,1.252,3.438,9.053,9.053,0,0,0,1.986,2.831,7.211,7.211,0,0,0,3.2,1.659,11.709,11.709,0,0,0,1.912.288c.321.024.641.03.962.04a.728.728,0,0,1,.727.384c.336.6.607,1.242.909,1.858s.618,1.257.93,1.883c1.235,2.48,2.508,4.941,3.849,7.365q2.342,4.235,4.977,8.3c.246.378.856.026.608-.355a152.771,152.771,0,0,1-8.358-14.728q-.923-1.834-1.819-3.681c-.26-.534-.482-1.288-1.047-1.578a2.042,2.042,0,0,0-.906-.153c-.336-.007-.671-.022-1.006-.051a8.133,8.133,0,0,1-3.546-1.051,6.906,6.906,0,0,1-2.33-2.514,17.777,17.777,0,0,1-1.479-3.648c-.46-1.489-.871-2.991-1.22-4.51-.1-.441-.781-.255-.679.187" transform="translate(-799.606 -911.348)" fill="#33232b"/>
        <path id="Trazado_899190" data-name="Trazado 899190" d="M988.616,735.3c2.875,5.169,5.717,10.356,8.742,15.438q4.415,7.416,9.273,14.556,2.8,4.1,5.743,8.086c.266.361.878.01.608-.355q-5.188-7.025-9.908-14.379-4.656-7.252-8.876-14.771c-1.673-2.968-3.317-5.953-4.973-8.93-.22-.4-.829-.041-.608.355" transform="translate(-900.292 -669.156)" fill="#33232b"/>
        <path id="Trazado_899191" data-name="Trazado 899191" d="M576.97,267.828a18.922,18.922,0,0,1-15.521-7.594,17.517,17.517,0,0,1-1.709-2.919c-4.467-9.612-.9-21.2,7.94-25.838a19.656,19.656,0,0,1,18.359.014,19.017,19.017,0,0,1,10.119,14.882c.8,7.192-2.019,16.022-10.13,19.538a22.792,22.792,0,0,1-9.058,1.917m-.1-36.579a17.683,17.683,0,0,0-8.229,2.062c-7.88,4.13-11.031,14.507-7.023,23.131a15.453,15.453,0,0,0,1.506,2.574c4.742,6.52,13.821,8.574,22.08,4.994,7.141-3.1,9.613-10.974,8.9-17.408a16.975,16.975,0,0,0-9.033-13.283,17.415,17.415,0,0,0-8.2-2.07" transform="translate(-508.001 -208.741)" fill="#fff"/>
        <path id="Trazado_899192" data-name="Trazado 899192" d="M401.518,730.734a4.982,4.982,0,0,0-3.094-3.853,8.953,8.953,0,0,0-3.176-.063,16.635,16.635,0,0,1-3.125-.106,17.711,17.711,0,0,1-3.14-.745,10.821,10.821,0,0,0-3.155-.7c-1.8-.026-4.8,1.942-4.827,2.164-.84,5.966-.941,12.239,2.537,16.59a8.683,8.683,0,0,0,5.957,3.22c2.158.2,5.21-.743,5.686-3.18a4.526,4.526,0,0,0-.205-2.255.223.223,0,0,1,.368-.227c1.188,1.087,2.72,1.908,4.291,1.106a4.831,4.831,0,0,0,1.812-1.935c.564-.95,1.087-1.927,1.629-2.89.253-.45-1.189-5.617-1.558-7.129" transform="translate(-346.534 -660.506)" fill="#33232b"/>
        <path id="Trazado_899193" data-name="Trazado 899193" d="M1022.893,1232.645c-1.459,3.019-2.892,6.178-2.431,9.615a47.349,47.349,0,0,0,1.174,5.205q.666,2.645,1.376,5.279.8,2.953,1.648,5.892a.352.352,0,0,0,.679-.187q-1.475-5.093-2.786-10.232c-.433-1.7-.9-3.4-1.24-5.117a10.948,10.948,0,0,1,.109-4.928A27.9,27.9,0,0,1,1023.5,1233c.2-.406-.411-.764-.608-.355" transform="translate(-929.258 -1122.41)" fill="#33232b"/>
        <path id="Trazado_899194" data-name="Trazado 899194" d="M1208.595,1087.794a6.281,6.281,0,0,1,1.14-.344,2.246,2.246,0,0,1,1.078.162,5.028,5.028,0,0,1,1.265.612l.059.044c.023.017-.068-.055,0,0,.055.045.111.089.165.134.119.1.237.2.353.3.293.258.58.524.865.792,1.866,1.76,3.645,3.615,5.411,5.474q3.647,3.84,7.167,7.8c2.431,2.729,4.823,5.493,7.137,8.322a87.96,87.96,0,0,1,5.354,7.078q.231.349.453.7c.24.383.85.03.608-.355a73.6,73.6,0,0,0-5.126-6.949c-2.295-2.848-4.678-5.625-7.1-8.364q-3.591-4.061-7.31-8.007c-1.869-1.981-3.754-3.952-5.719-5.839-.553-.531-1.109-1.065-1.707-1.545a3.546,3.546,0,0,0-.521-.373,4.307,4.307,0,0,0-2.575-.679,6.716,6.716,0,0,0-1.187.35c-.425.149-.242.829.187.679" transform="translate(-1100.28 -989.695)" fill="#33232b"/>
        <path id="Trazado_899195" data-name="Trazado 899195" d="M1055.531,1121.661a19.541,19.541,0,0,0-4.946-9.281,1.1,1.1,0,0,0-1.864.772,13.947,13.947,0,0,1-3.532,9.977,29.265,29.265,0,0,1-3.849,3.785,11.876,11.876,0,0,1-4.574,2.579,4.939,4.939,0,0,1-4.6-.98c-1.015-.973-2.561.569-1.544,1.544a6.075,6.075,0,0,0,.82.648.892.892,0,0,0,.138.69c1.871,2.568,3.876,5.26,6.708,6.837,3.263,1.817,7.056,1.465,10.453.2a10.17,10.17,0,0,0,4.364-2.811,12.035,12.035,0,0,0,2.263-4.626,19.6,19.6,0,0,0,.167-9.338" transform="translate(-938.284 -1012.775)" fill="#f3f0ea"/>
        <path id="Trazado_899196" data-name="Trazado 899196" d="M1026.218,1107.887a4.011,4.011,0,0,0,2.415,2.334c2.026.713,4.334-.078,6.18-.937a18.714,18.714,0,0,0,9.92-10.769,17.685,17.685,0,0,0,.738-8.163c-.072-.446-.75-.257-.679.187a16.651,16.651,0,0,1-.461,6.849,16.058,16.058,0,0,1-1.2,3.2,15.741,15.741,0,0,1-1.953,2.889,19.692,19.692,0,0,1-5.6,4.633,14.782,14.782,0,0,1-3.486,1.43,6.248,6.248,0,0,1-2.648.171,3.494,3.494,0,0,1-1.748-.845,2.884,2.884,0,0,1-.492-.582q-.1-.153-.185-.316c-.028-.055-.054-.111-.081-.166a.5.5,0,0,1-.043-.1c-.165-.417-.846-.235-.679.187" transform="translate(-934.556 -992.755)" fill="#33232b"/>
        <path id="Trazado_899197" data-name="Trazado 899197" d="M630.343,281.818c-3.521,3.709-6.865,7.582-10.305,11.364q-1.35,1.484-2.726,2.943c-.312.329.185.827.5.5,3.521-3.709,6.865-7.582,10.305-11.364.9-.989,1.805-1.973,2.726-2.943.312-.328-.185-.827-.5-.5" transform="translate(-562.098 -256.555)" fill="#fff"/>
        <path id="Trazado_899198" data-name="Trazado 899198" d="M731.853,307.9a24.822,24.822,0,0,1-2.659,3.287c-1.006,1.116-2.044,2.2-3.057,3.31-.305.334.191.833.5.5,1.031-1.128,2.087-2.233,3.11-3.369a25.567,25.567,0,0,0,2.717-3.371c.242-.384-.367-.738-.608-.355" transform="translate(-661.208 -280.259)" fill="#fff"/>
        <path id="Trazado_899199" data-name="Trazado 899199" d="M1097.041,95.384q-3.917,4.554-7.855,9.089-1.111,1.279-2.223,2.557c-.3.34.2.84.5.5q3.944-4.53,7.867-9.079,1.107-1.283,2.211-2.567c.294-.342-.2-.842-.5-.5" transform="translate(-989.816 -86.761)" fill="#33232b"/>
        <path id="Trazado_899200" data-name="Trazado 899200" d="M1157.2,224.316q-5.048,2.522-10.263,4.687a.364.364,0,0,0-.246.433.354.354,0,0,0,.433.246q5.3-2.2,10.432-4.758c.405-.2.049-.81-.355-.608" transform="translate(-1044.285 -204.249)" fill="#33232b"/>
        <path id="Trazado_899201" data-name="Trazado 899201" d="M345.376,117.564l6.683,8.779a.364.364,0,0,0,.482.126.354.354,0,0,0,.126-.482l-6.683-8.779a.364.364,0,0,0-.482-.126.354.354,0,0,0-.126.482" transform="translate(-314.488 -106.585)" fill="#33232b"/>
        <path id="Trazado_899202" data-name="Trazado 899202" d="M319.168,230.737a40.861,40.861,0,0,0,4.878,2.038c.429.148.614-.532.187-.679a39.428,39.428,0,0,1-4.71-1.967c-.4-.2-.762.406-.355.608" transform="translate(-290.504 -209.543)" fill="#33232b"/>
        <path id="Trazado_899203" data-name="Trazado 899203" d="M446.635.445q1.073,5.269,2.479,10.463.4,1.469.823,2.93a.352.352,0,0,0,.679-.187q-1.5-5.164-2.668-10.416-.33-1.486-.633-2.977c-.09-.444-.769-.256-.679.187" transform="translate(-406.744 -0.005)" fill="#33232b"/>
      </g>
    </g>
  </g>
</svg>
