<svg id="Grupo_1101451" data-name="Grupo 1101451" xmlns="http://www.w3.org/2000/svg" width="56.458" height="48.309" viewBox="0 0 56.458 48.309">
  <g id="Grupo_78347" data-name="Grupo 78347">
    <path id="Trazado_99257" data-name="Trazado 99257" d="M414.214,104.2a1.487,1.487,0,1,0,1.487-1.42A1.454,1.454,0,0,0,414.214,104.2Z" transform="translate(-360.727 -102.779)" fill="#59836b"/>
    <path id="Trazado_99258" data-name="Trazado 99258" d="M422.66,104.2a1.487,1.487,0,1,0,1.485-1.42A1.454,1.454,0,0,0,422.66,104.2Z" transform="translate(-382.545 -102.779)" fill="#59836b"/>
    <path id="Trazado_99259" data-name="Trazado 99259" d="M431.106,104.2a1.487,1.487,0,1,0,1.485-1.42A1.454,1.454,0,0,0,431.106,104.2Z" transform="translate(-404.362 -102.779)" fill="#59836b"/>
    <path id="Trazado_99260" data-name="Trazado 99260" d="M439.553,104.2a1.487,1.487,0,1,0,1.487-1.42A1.454,1.454,0,0,0,439.553,104.2Z" transform="translate(-426.182 -102.779)" fill="#59836b"/>
    <path id="Trazado_99261" data-name="Trazado 99261" d="M448,104.2a1.487,1.487,0,1,0,1.485-1.42A1.454,1.454,0,0,0,448,104.2Z" transform="translate(-447.999 -102.779)" fill="#59836b"/>
    <ellipse id="Elipse_3975" data-name="Elipse 3975" cx="1.486" cy="1.421" rx="1.486" ry="1.421" transform="translate(53.487 11.367)" fill="#59836b"/>
    <path id="Trazado_99268" data-name="Trazado 99268" d="M422.66,111.707a1.487,1.487,0,1,0,1.485-1.42A1.455,1.455,0,0,0,422.66,111.707Z" transform="translate(-382.545 -98.92)" fill="#59836b"/>
    <ellipse id="Elipse_3976" data-name="Elipse 3976" cx="1.486" cy="1.421" rx="1.486" ry="1.421" transform="translate(26.744 11.367)" fill="#59836b"/>
    <path id="Trazado_99269" data-name="Trazado 99269" d="M439.553,111.707a1.487,1.487,0,1,0,1.487-1.42A1.455,1.455,0,0,0,439.553,111.707Z" transform="translate(-426.182 -98.92)" fill="#59836b"/>
    <path id="Trazado_99270" data-name="Trazado 99270" d="M448,111.707a1.487,1.487,0,1,0,1.485-1.42A1.455,1.455,0,0,0,448,111.707Z" transform="translate(-447.999 -98.92)" fill="#59836b"/>
    <path id="Trazado_99274" data-name="Trazado 99274" d="M414.214,119.216a1.487,1.487,0,1,0,1.487-1.422A1.455,1.455,0,0,0,414.214,119.216Z" transform="translate(-360.727 -95.062)" fill="#59836b"/>
    <path id="Trazado_99275" data-name="Trazado 99275" d="M422.66,119.216a1.487,1.487,0,1,0,1.485-1.422A1.455,1.455,0,0,0,422.66,119.216Z" transform="translate(-382.545 -95.062)" fill="#59836b"/>
    <path id="Trazado_99276" data-name="Trazado 99276" d="M431.106,119.216a1.487,1.487,0,1,0,1.485-1.422A1.455,1.455,0,0,0,431.106,119.216Z" transform="translate(-404.362 -95.062)" fill="#59836b"/>
    <path id="Trazado_99277" data-name="Trazado 99277" d="M439.553,119.216a1.487,1.487,0,1,0,1.487-1.422A1.455,1.455,0,0,0,439.553,119.216Z" transform="translate(-426.182 -95.062)" fill="#59836b"/>
    <path id="Trazado_99278" data-name="Trazado 99278" d="M448,119.216a1.487,1.487,0,1,0,1.485-1.422A1.455,1.455,0,0,0,448,119.216Z" transform="translate(-447.999 -95.062)" fill="#59836b"/>
    <ellipse id="Elipse_3980" data-name="Elipse 3980" cx="1.486" cy="1.421" rx="1.486" ry="1.421" transform="translate(53.487 34.1)" fill="#59836b"/>
    <path id="Trazado_99285" data-name="Trazado 99285" d="M422.66,126.724a1.487,1.487,0,1,0,1.485-1.422A1.454,1.454,0,0,0,422.66,126.724Z" transform="translate(-382.545 -91.202)" fill="#59836b"/>
    <ellipse id="Elipse_3981" data-name="Elipse 3981" cx="1.486" cy="1.421" rx="1.486" ry="1.421" transform="translate(26.744 34.1)" fill="#59836b"/>
    <path id="Trazado_99286" data-name="Trazado 99286" d="M439.553,126.724a1.487,1.487,0,1,0,1.487-1.422A1.454,1.454,0,0,0,439.553,126.724Z" transform="translate(-426.182 -91.202)" fill="#59836b"/>
    <path id="Trazado_99287" data-name="Trazado 99287" d="M448,126.724a1.487,1.487,0,1,0,1.485-1.422A1.454,1.454,0,0,0,448,126.724Z" transform="translate(-447.999 -91.202)" fill="#59836b"/>
    <ellipse id="Elipse_3985" data-name="Elipse 3985" cx="1.486" cy="1.421" rx="1.486" ry="1.421" transform="translate(53.487 45.467)" fill="#59836b"/>
    <path id="Trazado_99291" data-name="Trazado 99291" d="M422.66,134.232a1.487,1.487,0,1,0,1.485-1.422A1.454,1.454,0,0,0,422.66,134.232Z" transform="translate(-382.545 -87.343)" fill="#59836b"/>
    <ellipse id="Elipse_3986" data-name="Elipse 3986" cx="1.486" cy="1.421" rx="1.486" ry="1.421" transform="translate(26.744 45.467)" fill="#59836b"/>
    <path id="Trazado_99292" data-name="Trazado 99292" d="M439.553,134.232a1.487,1.487,0,1,0,1.487-1.422A1.454,1.454,0,0,0,439.553,134.232Z" transform="translate(-426.182 -87.343)" fill="#59836b"/>
    <path id="Trazado_99293" data-name="Trazado 99293" d="M448,134.232a1.487,1.487,0,1,0,1.485-1.422A1.454,1.454,0,0,0,448,134.232Z" transform="translate(-447.999 -87.343)" fill="#59836b"/>
  </g>
</svg>
