<svg xmlns="http://www.w3.org/2000/svg" xmlns:xlink="http://www.w3.org/1999/xlink" width="1330" height="5441" viewBox="0 0 1330 5441">
  <defs>
    <linearGradient id="linear-gradient" x1="0.5" x2="0.5" y2="1" gradientUnits="objectBoundingBox">
      <stop offset="0" stop-color="#effaf4" stop-opacity="0"/>
      <stop offset="0.238" stop-color="#effaf4"/>
      <stop offset="0.737" stop-color="#effaf4"/>
      <stop offset="1" stop-color="#effaf4" stop-opacity="0"/>
    </linearGradient>
    <linearGradient id="linear-gradient-2" x1="0.5" y1="1" x2="0.5" gradientUnits="objectBoundingBox">
      <stop offset="0" stop-color="#73c8e2"/>
      <stop offset="1" stop-color="#fff"/>
    </linearGradient>
    <linearGradient id="linear-gradient-3" x1="0.5" y1="1" x2="0.5" gradientUnits="objectBoundingBox">
      <stop offset="0" stop-color="#fff"/>
      <stop offset="1" stop-color="#3ba935"/>
    </linearGradient>
  </defs>
  <g id="Grupo_1101836" data-name="Grupo 1101836" transform="translate(-135.051 -240)">
    <rect id="Rectángulo_575" data-name="Rectángulo 575" width="1328" height="5441" rx="20" transform="translate(136 240)" fill="#fff"/>
    <rect id="Rectángulo_401625" data-name="Rectángulo 401625" width="1330" height="980" transform="translate(135.051 1161.5)" fill="url(#linear-gradient)"/>
    <g id="Grupo_1099918" data-name="Grupo 1099918" transform="translate(137.051 4282.693)">
      <path id="Unión_5" data-name="Unión 5" d="M.488,0V247.628c-.164.253-.326.5-.488.758V453.17c56.853,64.808,174.081,85.265,283.057,82.883,87.128-1.9,169.8-20.1,244.03-45.742,65.65-22.677,125.658-51.222,193.529-71.418,167.611-49.88,355.519-4.8,522.663,45.284,27.24,8.162,54.593,16.281,82.026,24.155v-210.8h1.183V0Z" transform="translate(0.003 9.233)" opacity="0.079" fill="url(#linear-gradient-2)"/>
      <path id="Unión_6" data-name="Unión 6" d="M1048.261,0C940.838,0,836.5,28.478,734.371,58.025c-100.18,28.984-212.8,55.075-313.263,26.207C380.428,72.544,344.462,56.024,305.114,42.9c-44.492-14.839-94.041-25.37-146.262-26.473C99.82,15.181,36.746,24.734,0,54.274v423.8H1326.488V192.37H1325.3V94.052C1291.6,48.321,1213,18.477,1132.432,6.216A558.01,558.01,0,0,0,1048.28,0Z" transform="translate(1326.488 478.071) rotate(180)" opacity="0.079" fill="url(#linear-gradient-3)"/>
    </g>
  </g>
</svg>
